{"glyphs":{"0":{"ha":772,"x_min":40,"x_max":718,"o":"m 547 8 q 512 -12 547 8 q 379 -32 478 -32 q 213 8 281 -32 q 108 121 144 47 q 56 283 71 194 q 40 486 40 371 q 117 872 40 738 q 379 1006 193 1006 q 544 969 476 1006 q 649 860 611 932 q 702 696 686 788 q 718 481 718 604 q 703 283 718 369 q 651 122 688 196 q 547 8 615 47 m 524 485 q 487 767 524 686 q 379 849 450 849 q 268 770 301 849 q 235 488 235 692 q 253 266 235 346 q 301 160 271 186 q 379 135 331 135 q 456 160 426 135 q 505 265 486 185 q 524 485 524 344 z "},"1":{"ha":772,"x_min":94,"x_max":525,"o":"m 331 679 l 94 679 l 94 808 q 396 985 350 808 l 525 985 l 525 0 l 331 0 l 331 679 z "},"2":{"ha":772,"x_min":42,"x_max":715,"o":"m 715 693 q 680 544 715 611 q 590 433 644 478 q 479 349 536 388 q 369 266 422 311 q 294 174 317 221 l 711 174 l 711 0 l 42 0 q 97 216 49 136 q 269 383 144 296 q 476 552 432 497 q 521 689 521 607 q 484 805 521 763 q 382 847 447 847 q 278 801 315 847 q 242 674 242 756 l 242 642 l 56 642 q 54 676 54 657 q 140 919 54 832 q 378 1006 225 1006 q 624 921 533 1006 q 715 693 715 836 z "},"3":{"ha":772,"x_min":40,"x_max":717,"o":"m 53 692 q 74 826 53 768 q 128 918 96 885 q 206 972 161 951 q 290 999 250 992 q 372 1006 329 1006 q 600 933 515 1006 q 685 738 685 860 q 654 620 685 669 q 556 528 624 571 q 678 428 639 488 q 717 283 717 369 q 623 53 717 139 q 372 -32 529 -32 q 131 55 221 -32 q 40 289 42 142 l 229 289 q 376 135 238 135 q 481 176 440 135 q 522 283 522 218 q 493 377 522 338 q 415 431 464 417 q 301 440 376 440 l 301 571 l 318 571 q 490 719 490 571 q 458 815 490 781 q 368 849 426 849 q 264 806 292 849 q 233 675 236 763 l 53 675 l 53 692 z "},"4":{"ha":772,"x_min":33,"x_max":725,"o":"m 725 379 l 725 218 l 622 218 l 622 0 l 428 0 l 428 218 l 33 218 l 33 382 l 393 985 l 622 985 l 622 379 l 725 379 m 428 379 l 428 800 l 171 379 l 428 379 z "},"5":{"ha":772,"x_min":38,"x_max":718,"o":"m 679 985 l 679 811 l 272 811 l 240 606 q 411 665 319 665 q 633 571 547 665 q 718 325 718 476 q 619 67 718 165 q 363 -32 521 -32 q 130 48 219 -32 q 38 257 40 128 l 229 257 q 365 135 236 135 q 481 185 439 135 q 524 321 524 235 q 481 460 524 410 q 365 511 439 511 q 240 436 272 511 l 65 436 l 153 985 l 679 985 z "},"6":{"ha":772,"x_min":44,"x_max":721,"o":"m 44 468 q 408 1006 44 1006 q 460 1003 435 1006 q 527 986 485 1000 q 602 949 569 972 q 665 876 635 925 q 704 761 694 828 l 524 761 q 477 828 504 808 q 403 849 450 849 q 322 828 354 849 q 272 765 289 808 q 249 676 256 722 q 239 561 242 631 q 329 628 285 608 q 435 649 374 649 q 641 560 561 649 q 721 329 721 471 q 630 68 721 168 q 392 -32 539 -32 q 260 -10 318 -32 q 151 65 201 13 q 72 220 100 118 q 44 468 44 322 m 496 447 q 476 472 496 447 q 388 496 456 496 q 278 445 319 496 q 236 313 236 394 q 278 185 236 235 q 386 135 319 135 q 494 186 451 135 q 536 317 536 238 q 496 447 536 399 z "},"7":{"ha":772,"x_min":40,"x_max":733,"o":"m 733 985 l 733 832 q 476 427 558 621 q 381 0 394 233 l 185 0 q 295 439 218 261 q 531 811 372 617 l 40 811 l 40 985 l 733 985 z "},"8":{"ha":772,"x_min":31,"x_max":729,"o":"m 696 739 q 662 615 696 661 q 568 536 628 568 q 691 431 653 490 q 729 283 729 371 q 632 56 729 144 q 381 -32 535 -32 q 128 56 225 -32 q 31 283 31 143 q 69 431 31 371 q 192 536 107 490 q 94 619 125 572 q 64 738 64 667 q 153 930 64 854 q 381 1006 243 1006 q 606 930 517 1006 q 696 739 696 854 m 488 813 q 467 831 488 813 q 382 849 447 849 q 276 813 317 849 q 235 721 235 778 q 276 627 235 664 q 382 590 317 590 q 487 626 446 590 q 528 719 528 663 q 488 813 528 776 m 379 458 q 267 414 310 458 q 225 294 225 369 q 267 178 225 221 q 379 135 308 135 q 492 178 450 135 q 535 292 535 221 q 493 413 535 368 q 379 458 451 458 z "},"9":{"ha":772,"x_min":39,"x_max":717,"o":"m 717 514 q 693 279 717 381 q 634 119 669 178 q 549 26 599 61 q 453 -22 499 -10 q 354 -33 407 -33 q 141 41 226 -33 q 53 229 56 115 l 240 229 q 276 160 243 186 q 360 133 308 133 q 522 414 522 133 q 511 401 521 413 q 495 383 501 389 q 476 365 489 376 q 451 346 464 353 q 420 331 438 339 q 381 320 403 324 q 333 317 358 317 q 121 411 203 317 q 39 658 39 506 q 131 909 39 813 q 371 1006 224 1006 q 461 995 418 1006 q 552 952 504 985 q 635 868 600 919 q 694 725 671 817 q 717 514 717 633 m 365 847 q 262 797 300 847 q 224 661 224 746 q 263 527 224 576 q 368 478 301 478 q 476 528 435 478 q 518 658 518 578 q 477 796 518 744 q 365 847 436 847 z "}," ":{"ha":386,"x_min":0,"x_max":0,"o":""},"!":{"ha":463,"x_min":156,"x_max":364,"o":"m 364 1008 l 364 717 l 306 288 l 213 288 l 156 717 l 156 1008 l 364 1008 m 364 203 l 364 0 l 156 0 l 156 203 l 364 203 z "},"\"":{"ha":658,"x_min":69,"x_max":589,"o":"m 261 1013 l 261 832 l 203 653 l 125 653 l 69 832 l 69 1013 l 261 1013 m 589 1013 l 589 832 l 531 653 l 453 653 l 397 832 l 397 1013 l 589 1013 z "},"#":{"ha":772,"x_min":4,"x_max":768,"o":"m 203 -44 l 56 -44 l 111 239 l 4 239 l 4 376 l 139 376 l 181 589 l 43 589 l 43 726 l 208 726 l 256 968 l 401 968 l 354 726 l 497 726 l 544 968 l 690 968 l 643 726 l 768 726 l 768 589 l 617 589 l 574 376 l 713 376 l 713 239 l 547 239 l 492 -44 l 346 -44 l 401 239 l 258 239 l 203 -44 m 285 376 l 428 376 l 469 589 l 326 589 l 285 376 z "},"$":{"ha":772,"x_min":31,"x_max":732,"o":"m 338 -29 q 110 67 190 -15 q 31 275 31 149 l 31 288 l 213 288 q 338 119 219 140 l 338 415 q 54 711 54 481 q 128 900 54 828 q 338 985 203 972 l 338 1060 l 432 1060 l 432 985 q 640 900 564 978 q 718 692 717 822 l 540 692 l 540 700 q 512 799 540 761 q 432 844 483 838 l 432 565 q 663 453 593 521 q 732 271 732 385 q 653 62 732 138 q 432 -29 575 -14 l 432 -175 l 338 -175 l 338 -29 m 338 593 l 338 844 q 225 717 225 822 q 338 593 225 629 m 432 392 l 432 119 q 549 254 549 149 q 432 392 549 356 z "},"%":{"ha":1235,"x_min":31,"x_max":1199,"o":"m 286 974 q 467 899 393 974 q 542 718 542 825 q 466 542 542 617 q 286 468 390 468 q 106 542 181 468 q 31 721 31 617 q 106 899 31 825 q 286 974 181 974 m 369 802 q 352 819 369 802 q 286 836 335 836 q 203 802 238 836 q 168 721 168 768 q 203 638 168 672 q 286 604 238 604 q 369 638 335 604 q 404 719 404 672 q 369 802 404 768 m 842 985 l 947 985 l 399 -28 l 292 -28 l 842 985 m 943 489 q 1124 415 1050 489 q 1199 232 1199 340 q 1123 56 1199 131 q 943 -18 1047 -18 q 763 56 838 -18 q 688 236 688 131 q 763 415 688 340 q 943 489 838 489 m 1026 317 q 1009 334 1026 317 q 943 351 992 351 q 860 317 894 351 q 825 235 825 283 q 860 152 825 186 q 943 118 894 118 q 1026 152 992 118 q 1061 233 1061 186 q 1026 317 1061 282 z "},"&":{"ha":1003,"x_min":76,"x_max":964,"o":"m 731 518 l 888 518 l 888 496 q 860 338 885 415 q 793 214 835 261 l 964 0 l 740 0 l 676 78 q 535 -8 593 15 q 406 -32 476 -32 q 167 51 257 -32 q 76 268 76 133 q 124 430 76 367 q 294 557 172 493 q 278 578 282 574 l 239 625 q 181 772 181 693 q 256 938 181 871 q 443 1004 332 1004 q 622 945 554 1004 q 690 789 690 886 q 656 661 690 714 q 528 544 621 608 l 689 344 q 731 504 731 424 l 731 518 m 386 443 l 321 403 q 261 292 261 363 q 306 179 261 229 q 408 129 351 129 q 575 206 475 129 l 386 443 m 440 653 q 524 772 524 699 q 503 832 524 811 q 444 853 482 853 q 387 834 410 853 q 364 786 364 815 q 376 740 364 760 q 440 653 388 719 z "},"'":{"ha":347,"x_min":78,"x_max":269,"o":"m 269 1013 l 269 832 l 211 653 l 133 653 l 78 832 l 78 1013 l 269 1013 z "},"(":{"ha":463,"x_min":56,"x_max":421,"o":"m 282 1013 l 421 1013 q 269 660 311 800 q 226 368 226 521 q 268 76 226 215 q 421 -278 310 -62 l 282 -278 q 109 55 163 -97 q 56 368 56 207 q 109 681 56 528 q 282 1013 163 833 z "},")":{"ha":463,"x_min":31,"x_max":396,"o":"m 169 -278 l 31 -278 q 183 74 140 -65 q 225 367 225 214 q 183 658 225 519 q 31 1013 142 797 l 169 1013 q 342 680 289 832 q 396 367 396 528 q 342 54 396 207 q 169 -278 289 -99 z "},"*":{"ha":540,"x_min":32,"x_max":496,"o":"m 183 756 l 32 806 l 63 901 l 214 851 l 214 1013 l 314 1013 l 314 851 l 465 901 l 496 804 l 344 756 l 438 625 l 357 565 l 264 696 l 171 565 l 90 625 l 183 756 z "},"+":{"ha":811,"x_min":69,"x_max":740,"o":"m 740 404 l 740 239 l 488 239 l 488 -14 l 322 -14 l 322 239 l 69 239 l 69 404 l 322 404 l 322 657 l 488 657 l 488 404 l 740 404 z "},",":{"ha":347,"x_min":69,"x_max":278,"o":"m 69 203 l 278 203 l 278 13 q 272 -71 278 -36 q 245 -144 265 -106 q 181 -208 225 -183 q 69 -242 138 -233 l 69 -164 q 153 -114 131 -151 q 175 0 175 -76 l 69 0 l 69 203 z "},"-":{"ha":463,"x_min":36,"x_max":414,"o":"m 414 475 l 414 288 l 36 288 l 36 475 l 414 475 z "},".":{"ha":347,"x_min":69,"x_max":278,"o":"m 278 203 l 278 0 l 69 0 l 69 203 l 278 203 z "},"/":{"ha":386,"x_min":3,"x_max":382,"o":"m 289 992 l 382 992 l 96 -19 l 3 -19 l 289 992 z "},":":{"ha":347,"x_min":69,"x_max":278,"o":"m 278 203 l 278 0 l 69 0 l 69 203 l 278 203 m 278 722 l 278 519 l 69 519 l 69 722 l 278 722 z "},";":{"ha":347,"x_min":69,"x_max":278,"o":"m 69 203 l 278 203 l 278 13 q 272 -71 278 -36 q 245 -144 265 -106 q 181 -208 225 -183 q 69 -242 138 -233 l 69 -164 q 160 -112 132 -151 q 189 0 189 -74 l 69 0 l 69 203 m 278 722 l 278 519 l 69 519 l 69 722 l 278 722 z "},"<":{"ha":811,"x_min":56,"x_max":735,"o":"m 735 658 l 735 507 l 204 322 l 735 140 l 735 -14 l 56 239 l 56 407 l 735 658 z "},"=":{"ha":811,"x_min":69,"x_max":742,"o":"m 742 571 l 742 406 l 69 406 l 69 571 l 742 571 m 742 238 l 742 72 l 69 72 l 69 238 l 742 238 z "},">":{"ha":811,"x_min":56,"x_max":735,"o":"m 56 -14 l 56 138 l 586 322 l 56 504 l 56 658 l 735 406 l 735 238 l 56 -14 z "},"?":{"ha":849,"x_min":89,"x_max":772,"o":"m 89 668 q 113 826 90 758 q 170 933 136 894 q 251 994 204 971 q 340 1026 299 1018 q 426 1033 381 1033 q 676 944 579 1033 q 772 714 772 856 q 738 569 772 626 q 606 444 703 513 q 528 374 543 400 q 513 279 513 347 l 340 279 l 340 299 q 365 420 340 368 q 424 504 389 472 q 493 564 458 536 q 552 628 528 592 q 576 710 576 664 q 535 824 576 778 q 431 869 493 869 q 322 817 365 869 q 278 683 278 764 l 278 671 l 278 668 l 89 668 m 535 203 l 535 0 l 326 0 l 326 203 l 535 203 z "},"@":{"ha":1354,"x_min":38,"x_max":1315,"o":"m 358 315 q 376 416 358 356 q 430 548 393 476 q 542 669 467 619 q 714 719 617 719 q 807 696 771 719 q 868 619 843 672 l 890 706 l 1019 706 l 911 317 q 901 263 901 282 q 968 197 901 197 q 1112 292 1040 197 q 1183 514 1183 386 q 1039 793 1183 672 q 710 914 894 914 q 444 833 568 914 q 249 628 319 753 q 179 369 179 503 q 252 138 179 242 q 438 -22 325 33 q 675 -76 550 -76 q 961 -19 835 -76 l 1001 -128 q 672 -192 861 -192 q 212 -31 386 -192 q 38 367 38 129 q 131 697 38 542 q 381 943 224 851 q 717 1035 538 1035 q 1148 887 981 1035 q 1315 493 1315 739 q 1282 319 1315 400 q 1197 188 1249 239 q 1084 107 1144 136 q 968 78 1024 78 q 854 106 899 78 q 794 179 810 135 q 586 78 710 78 q 425 147 492 78 q 358 315 358 217 m 617 194 q 761 290 700 194 q 822 479 822 386 q 793 581 822 544 q 710 617 764 617 q 566 531 629 617 q 503 339 503 446 q 534 235 503 275 q 617 194 565 194 z "},"A":{"ha":968,"x_min":14,"x_max":954,"o":"m 674 204 l 294 204 l 226 0 l 14 0 l 374 1013 l 604 1013 l 954 0 l 740 0 l 674 204 m 617 378 l 485 774 l 353 378 l 617 378 z "},"B":{"ha":978,"x_min":111,"x_max":922,"o":"m 922 292 q 906 194 922 242 q 852 101 889 147 q 742 28 815 56 q 567 0 668 0 l 111 0 l 111 1013 l 563 1013 q 726 985 657 1013 q 828 913 794 957 q 878 828 863 869 q 893 746 893 786 q 861 633 893 681 q 754 538 829 585 q 922 292 922 439 m 319 839 l 319 610 l 546 610 q 693 724 693 610 q 546 839 693 839 l 319 839 m 319 436 l 319 174 l 568 174 q 722 304 722 174 q 568 436 722 436 l 319 436 z "},"C":{"ha":1001,"x_min":56,"x_max":946,"o":"m 743 669 q 526 851 704 851 q 333 757 403 851 q 264 494 264 663 q 331 236 264 329 q 519 143 399 143 q 675 196 617 143 q 743 346 733 249 l 946 346 q 819 70 936 172 q 514 -32 703 -32 q 179 110 303 -32 q 56 497 56 253 q 181 886 56 743 q 519 1029 306 1029 q 813 933 699 1029 q 942 669 928 838 l 743 669 z "},"D":{"ha":1006,"x_min":111,"x_max":950,"o":"m 111 0 l 111 1013 l 507 1013 q 699 985 624 1013 q 826 896 775 957 q 950 507 950 749 q 826 118 950 263 q 507 0 728 0 l 111 0 m 319 174 l 507 174 q 742 506 742 174 q 507 839 742 839 l 319 839 l 319 174 z "},"E":{"ha":924,"x_min":111,"x_max":868,"o":"m 319 436 l 319 174 l 868 174 l 868 0 l 111 0 l 111 1013 l 843 1013 l 843 839 l 319 839 l 319 610 l 804 610 l 804 436 l 319 436 z "},"F":{"ha":878,"x_min":111,"x_max":822,"o":"m 319 436 l 319 0 l 111 0 l 111 1013 l 822 1013 l 822 839 l 319 839 l 319 610 l 763 610 l 763 436 l 319 436 z "},"G":{"ha":1068,"x_min":56,"x_max":985,"o":"m 789 692 q 547 854 733 854 q 340 761 415 854 q 264 504 264 668 q 345 249 264 349 q 553 149 426 149 q 598 153 572 149 q 660 173 624 158 q 726 211 696 188 q 781 277 757 235 q 810 374 804 319 l 579 374 l 579 547 l 985 547 l 985 0 l 860 0 l 835 133 q 704 10 776 49 q 529 -29 632 -29 q 190 121 324 -29 q 56 501 56 271 q 192 885 56 738 q 546 1032 328 1032 q 847 940 729 1032 q 985 692 965 849 l 789 692 z "},"H":{"ha":1040,"x_min":111,"x_max":929,"o":"m 721 460 l 319 460 l 319 0 l 111 0 l 111 1013 l 319 1013 l 319 633 l 719 633 l 719 1013 l 929 1013 l 929 0 l 721 0 l 721 460 z "},"I":{"ha":431,"x_min":111,"x_max":319,"o":"m 319 1013 l 319 0 l 111 0 l 111 1013 l 319 1013 z "},"J":{"ha":794,"x_min":42,"x_max":683,"o":"m 358 -32 q 249 -18 301 -32 q 149 28 197 -4 q 71 124 100 61 q 42 275 42 188 l 42 375 l 250 375 l 250 278 q 276 177 250 208 q 363 146 303 146 q 446 176 417 146 q 475 264 475 207 l 475 1013 l 683 1013 l 683 264 q 599 45 683 122 q 358 -32 514 -32 z "},"K":{"ha":1011,"x_min":111,"x_max":1004,"o":"m 319 339 l 319 0 l 111 0 l 111 1013 l 319 1013 l 319 568 l 715 1013 l 961 1013 l 557 576 l 1004 0 l 756 0 l 424 447 l 319 339 z "},"L":{"ha":860,"x_min":111,"x_max":804,"o":"m 319 1013 l 319 174 l 804 174 l 804 0 l 111 0 l 111 1013 l 319 1013 z "},"M":{"ha":1208,"x_min":111,"x_max":1097,"o":"m 319 789 l 319 0 l 111 0 l 111 1013 l 422 1013 l 606 207 l 783 1013 l 1097 1013 l 1097 0 l 889 0 l 889 789 l 710 0 l 501 0 l 319 789 z "},"N":{"ha":1046,"x_min":111,"x_max":935,"o":"m 726 0 l 319 700 l 319 0 l 111 0 l 111 1013 l 325 1013 l 726 324 l 726 1013 l 935 1013 l 935 0 l 726 0 z "},"O":{"ha":1086,"x_min":56,"x_max":1031,"o":"m 189 117 q 122 191 189 117 q 56 499 56 265 q 190 881 56 732 q 542 1029 324 1029 q 896 881 761 1029 q 1031 492 1031 733 q 898 117 1031 267 q 543 -32 765 -32 q 189 117 322 -32 m 543 851 q 340 755 417 851 q 264 499 264 658 q 340 242 264 339 q 543 146 417 146 q 745 242 668 146 q 822 493 822 338 q 747 754 822 657 q 543 851 671 851 z "},"P":{"ha":940,"x_min":111,"x_max":885,"o":"m 319 361 l 319 0 l 111 0 l 111 1013 l 558 1013 q 801 932 717 1013 q 885 699 885 851 q 801 453 885 544 q 579 361 718 361 l 319 361 m 319 535 l 514 535 q 676 686 676 535 q 637 801 676 764 q 514 839 597 839 l 319 839 l 319 535 z "},"Q":{"ha":1086,"x_min":56,"x_max":1031,"o":"m 543 1029 q 897 879 764 1029 q 1031 501 1031 729 q 1001 302 1031 399 q 919 143 971 206 l 1031 38 l 925 -75 l 806 38 q 543 -32 690 -32 q 190 117 324 -32 q 56 499 56 267 q 190 880 56 731 q 543 1029 324 1029 m 663 386 l 776 278 q 822 497 822 369 q 747 755 822 658 q 543 851 671 851 q 340 755 417 851 q 264 499 264 658 q 340 242 264 339 q 542 146 417 146 q 664 172 614 146 l 557 274 l 663 386 z "},"R":{"ha":1003,"x_min":111,"x_max":940,"o":"m 685 174 q 686 239 685 215 q 688 281 688 263 q 657 373 688 344 q 558 401 626 401 l 319 401 l 319 0 l 111 0 l 111 1013 l 654 1013 q 788 986 732 1013 q 873 917 844 960 q 914 830 901 874 q 926 739 926 786 q 756 489 926 556 q 811 465 793 474 q 848 435 829 456 q 873 397 867 414 q 885 336 879 381 q 893 249 892 292 q 896 121 894 206 q 940 38 896 63 l 940 0 l 717 0 q 691 69 697 36 q 685 174 685 103 m 718 710 q 682 813 718 788 q 571 839 646 839 l 319 839 l 319 575 l 571 575 q 681 601 644 575 q 718 710 718 628 z "},"S":{"ha":946,"x_min":56,"x_max":890,"o":"m 854 704 l 660 704 q 447 863 649 863 q 319 828 367 863 q 272 738 272 794 q 313 655 272 682 q 464 606 353 628 l 622 575 q 826 481 763 547 q 890 296 890 415 q 781 55 890 142 q 475 -32 671 -32 q 173 54 281 -32 q 56 303 65 140 l 258 303 q 322 178 264 221 q 486 135 381 135 q 635 171 581 135 q 690 271 690 207 q 647 365 690 332 q 500 418 604 399 l 358 446 q 139 538 204 475 q 74 718 74 600 q 174 948 74 867 q 457 1029 275 1029 q 559 1022 510 1029 q 664 994 608 1015 q 760 938 719 972 q 827 844 800 904 q 854 704 854 783 z "},"T":{"ha":894,"x_min":42,"x_max":853,"o":"m 557 839 l 557 0 l 349 0 l 349 839 l 42 839 l 42 1013 l 853 1013 l 853 839 l 557 839 z "},"U":{"ha":1025,"x_min":111,"x_max":914,"o":"m 620 -22 q 594 -27 620 -22 q 513 -32 568 -32 q 405 -22 457 -32 q 298 13 353 -12 q 203 76 243 38 q 137 180 163 115 q 111 326 111 244 l 111 1013 l 319 1013 l 319 326 q 513 146 319 146 q 706 326 706 146 l 706 1013 l 914 1013 l 914 326 q 888 180 914 244 q 822 76 863 115 q 727 13 782 38 q 620 -22 672 -12 z "},"V":{"ha":921,"x_min":28,"x_max":893,"o":"m 546 0 l 369 0 l 28 1013 l 238 1013 l 463 250 l 683 1013 l 893 1013 l 546 0 z "},"W":{"ha":1332,"x_min":28,"x_max":1304,"o":"m 1024 0 l 836 0 l 667 790 l 501 0 l 314 0 l 28 1013 l 249 1013 l 406 254 l 563 1013 l 768 1013 l 932 253 l 1083 1013 l 1304 1013 l 1024 0 z "},"X":{"ha":938,"x_min":31,"x_max":907,"o":"m 582 517 l 907 0 l 660 0 l 465 351 l 272 0 l 31 0 l 350 510 l 42 1013 l 289 1013 l 467 679 l 653 1013 l 894 1013 l 582 517 z "},"Y":{"ha":893,"x_min":14,"x_max":879,"o":"m 558 375 l 558 0 l 350 0 l 350 375 l 14 1013 l 246 1013 l 453 565 l 646 1013 l 879 1013 l 558 375 z "},"Z":{"ha":844,"x_min":42,"x_max":803,"o":"m 803 1013 l 803 839 l 286 174 l 803 174 l 803 0 l 42 0 l 42 174 l 560 839 l 42 839 l 42 1013 l 803 1013 z "},"[":{"ha":463,"x_min":92,"x_max":428,"o":"m 428 1013 l 428 871 l 272 871 l 272 -136 l 428 -136 l 428 -278 l 92 -278 l 92 1013 l 428 1013 z "},"\\":{"ha":386,"x_min":-17,"x_max":401,"o":"m 76 992 l 401 -19 l 308 -19 l -17 992 l 76 992 z "},"]":{"ha":463,"x_min":25,"x_max":361,"o":"m 25 -278 l 25 -136 l 181 -136 l 181 871 l 25 871 l 25 1013 l 361 1013 l 361 -278 l 25 -278 z "},"^":{"ha":811,"x_min":85,"x_max":725,"o":"m 725 375 l 568 375 l 400 792 l 240 375 l 85 375 l 314 965 l 488 965 l 725 375 z "},"_":{"ha":772,"x_min":-31,"x_max":803,"o":"m 803 -167 l 803 -278 l -31 -278 l -31 -167 l 803 -167 z "},"`":{"ha":347,"x_min":24,"x_max":296,"o":"m 24 1051 l 199 1051 l 296 843 l 199 843 l 24 1051 z "},"a":{"ha":786,"x_min":56,"x_max":744,"o":"m 283 -32 q 118 30 181 -32 q 56 193 56 92 q 276 429 56 392 l 354 443 q 382 447 357 443 q 414 452 407 450 q 441 458 421 454 q 469 468 461 463 q 490 483 478 474 q 506 503 501 492 q 510 531 510 515 q 397 606 510 606 q 296 583 325 606 q 260 503 267 561 l 72 503 q 393 763 90 763 q 700 532 700 763 l 700 115 q 744 24 700 64 l 744 0 l 533 0 q 511 75 511 28 q 283 -32 408 -32 m 510 301 l 510 354 q 428 331 483 342 l 361 318 q 275 282 300 306 q 250 215 250 258 q 278 149 250 174 q 356 125 307 125 q 469 171 429 125 q 510 301 510 217 z "},"b":{"ha":863,"x_min":90,"x_max":807,"o":"m 492 763 q 717 651 626 763 q 807 365 807 539 q 717 82 807 196 q 492 -32 626 -32 q 285 76 354 -32 l 285 0 l 90 0 l 90 1013 l 285 1013 l 285 653 q 492 763 354 763 m 567 534 q 544 567 567 534 q 449 600 521 600 q 331 535 376 600 q 285 368 285 471 q 330 196 285 261 q 449 131 375 131 q 567 196 521 131 q 613 364 613 261 q 567 534 613 468 z "},"c":{"ha":775,"x_min":56,"x_max":733,"o":"m 408 606 q 250 360 250 606 q 292 188 250 250 q 408 125 335 125 q 497 156 465 125 q 547 260 529 188 l 733 260 q 631 47 719 125 q 407 -32 543 -32 q 148 71 240 -32 q 56 360 56 174 q 149 657 56 551 q 410 763 242 763 q 637 685 550 763 q 733 469 724 607 l 547 469 q 499 574 531 543 q 408 606 468 606 z "},"d":{"ha":863,"x_min":56,"x_max":772,"o":"m 371 -32 q 144 82 232 -32 q 56 364 56 196 q 146 648 56 533 q 371 763 236 763 q 578 653 507 763 l 578 1013 l 772 1013 l 772 0 l 578 0 l 578 76 q 371 -32 506 -32 m 414 600 q 296 534 342 600 q 250 364 250 468 q 296 196 250 261 q 414 131 342 131 q 532 194 486 131 q 578 361 578 258 q 533 534 578 468 q 414 600 488 600 z "},"e":{"ha":810,"x_min":56,"x_max":754,"o":"m 403 763 q 497 751 451 763 q 591 711 543 740 q 674 637 639 682 q 732 517 710 592 q 754 347 754 443 q 753 314 754 331 l 250 314 q 258 240 251 271 q 280 178 264 208 q 327 133 296 149 q 406 117 358 117 q 554 211 517 117 l 746 211 q 619 34 714 100 q 399 -32 525 -32 q 147 72 239 -32 q 56 356 56 175 q 149 653 56 544 q 403 763 242 763 m 551 443 q 506 569 544 525 q 400 614 468 614 q 253 443 272 614 l 551 443 z "},"f":{"ha":476,"x_min":19,"x_max":435,"o":"m 435 735 l 435 606 l 319 606 l 319 0 l 125 0 l 125 606 l 19 606 l 19 735 l 125 735 l 125 825 q 317 1013 125 1013 q 428 1008 374 1013 l 428 863 q 372 867 403 867 q 319 808 319 867 l 319 735 l 435 735 z "},"g":{"ha":850,"x_min":56,"x_max":760,"o":"m 575 750 l 760 750 l 760 -25 q 666 -230 760 -157 q 403 -303 572 -303 q 163 -245 253 -303 q 71 -90 72 -187 l 272 -90 q 410 -178 296 -178 q 529 -135 483 -178 q 575 -25 575 -93 l 575 76 q 474 -8 521 15 q 363 -32 428 -32 q 140 75 224 -32 q 56 357 56 182 q 144 647 56 531 q 367 763 233 763 q 575 635 492 763 l 575 750 m 408 600 q 294 533 338 600 q 250 360 250 467 q 293 194 250 258 q 406 131 336 131 q 530 194 482 131 q 578 360 578 258 q 530 532 578 464 q 408 600 482 600 z "},"h":{"ha":839,"x_min":90,"x_max":749,"o":"m 554 458 q 435 597 554 597 q 327 556 369 597 q 285 450 285 514 l 285 0 l 90 0 l 90 1013 l 285 1013 l 285 642 q 504 763 365 763 q 588 751 549 763 q 666 712 628 739 q 726 631 704 685 q 749 503 749 576 l 749 0 l 554 0 l 554 458 z "},"i":{"ha":389,"x_min":97,"x_max":292,"o":"m 292 750 l 292 0 l 97 0 l 97 750 l 292 750 m 292 1013 l 292 839 l 97 839 l 97 1013 l 292 1013 z "},"j":{"ha":389,"x_min":6,"x_max":292,"o":"m 292 750 l 292 -131 q 251 -262 292 -222 q 121 -303 211 -303 q 6 -296 71 -303 l 6 -140 q 40 -146 24 -146 q 85 -133 72 -146 q 97 -87 97 -119 l 97 750 l 292 750 m 292 1013 l 292 839 l 97 839 l 97 1013 l 292 1013 z "},"k":{"ha":783,"x_min":90,"x_max":769,"o":"m 285 458 l 531 750 l 751 750 l 496 467 l 769 0 l 542 0 l 363 331 l 285 246 l 285 0 l 90 0 l 90 1013 l 285 1013 l 285 458 z "},"l":{"ha":375,"x_min":90,"x_max":285,"o":"m 285 1013 l 285 0 l 90 0 l 90 1013 l 285 1013 z "},"m":{"ha":1242,"x_min":90,"x_max":1151,"o":"m 90 750 l 283 750 l 283 657 q 378 738 332 714 q 489 763 425 763 q 693 651 636 763 q 913 763 776 763 q 1088 701 1025 763 q 1151 531 1151 640 l 1151 0 l 957 0 l 957 500 q 928 571 957 544 q 851 597 900 597 q 753 558 789 597 q 718 450 718 519 l 718 0 l 524 0 l 524 500 q 495 571 524 544 q 418 597 467 597 q 320 558 356 597 q 285 450 285 519 l 285 0 l 90 0 l 90 750 z "},"n":{"ha":851,"x_min":90,"x_max":761,"o":"m 90 750 l 285 750 l 285 642 q 510 763 365 763 q 695 694 629 763 q 761 503 761 626 l 761 0 l 567 0 l 567 463 q 442 597 567 597 q 328 557 371 597 q 285 450 285 517 l 285 0 l 90 0 l 90 750 z "},"o":{"ha":853,"x_min":56,"x_max":797,"o":"m 425 763 q 699 656 601 763 q 797 360 797 550 q 697 74 797 179 q 426 -32 597 -32 q 154 74 253 -32 q 56 365 56 181 q 154 656 56 550 q 425 763 253 763 m 426 606 q 299 539 347 606 q 250 365 250 472 q 299 192 250 258 q 426 125 347 125 q 553 191 504 125 q 603 363 603 257 q 555 540 603 474 q 426 606 507 606 z "},"p":{"ha":863,"x_min":90,"x_max":807,"o":"m 493 763 q 721 649 635 763 q 807 364 807 535 q 717 80 807 193 q 493 -33 628 -33 q 285 89 354 -33 l 285 -303 l 90 -303 l 90 750 l 285 750 l 285 639 q 493 763 354 763 m 567 534 q 545 567 567 534 q 449 600 522 600 q 330 535 375 600 q 285 364 285 469 q 330 194 285 258 q 449 129 375 129 q 567 194 521 129 q 613 361 613 260 q 567 534 613 468 z "},"q":{"ha":863,"x_min":56,"x_max":772,"o":"m 368 -33 q 142 79 229 -33 q 56 364 56 192 q 145 649 56 536 q 369 763 235 763 q 578 639 508 763 l 578 750 l 772 750 l 772 -303 l 578 -303 l 578 89 q 368 -33 510 -33 m 533 535 q 510 567 533 535 q 414 600 488 600 q 295 535 340 600 q 250 364 250 469 q 295 194 250 258 q 414 129 340 129 q 532 193 486 129 q 578 360 578 257 q 533 535 578 469 z "},"r":{"ha":544,"x_min":90,"x_max":517,"o":"m 90 750 l 285 750 l 285 603 q 371 721 315 679 q 493 763 426 763 q 517 761 506 763 l 517 564 q 456 569 482 569 q 285 399 285 569 l 285 0 l 90 0 l 90 750 z "},"s":{"ha":772,"x_min":42,"x_max":724,"o":"m 232 218 q 272 146 242 171 q 385 121 301 121 q 491 140 453 121 q 529 194 529 160 q 515 231 529 217 q 464 256 500 244 l 232 328 q 215 333 231 328 q 194 340 200 338 q 171 349 188 343 q 145 363 154 356 q 122 380 136 369 q 101 403 108 390 q 85 431 93 415 q 72 468 76 447 q 68 513 68 489 q 151 695 68 628 q 376 763 233 763 q 614 695 528 763 q 703 508 700 628 l 515 508 q 375 610 514 610 q 293 591 324 610 q 263 540 263 572 q 276 506 263 518 q 331 482 290 494 l 576 411 q 724 222 724 368 q 708 138 724 179 q 659 57 693 97 q 557 -8 625 17 q 396 -32 489 -32 q 42 218 50 -32 l 232 218 z "},"t":{"ha":469,"x_min":29,"x_max":428,"o":"m 428 735 l 428 606 l 319 606 l 319 197 q 332 131 319 147 q 383 115 344 115 q 428 119 399 115 l 428 -17 q 315 -32 381 -32 q 125 144 125 -32 l 125 606 l 29 606 l 29 735 l 125 735 l 125 936 l 319 936 l 319 735 l 428 735 z "},"u":{"ha":851,"x_min":90,"x_max":761,"o":"m 761 0 l 567 0 l 567 89 q 342 -32 486 -32 q 156 36 222 -32 q 90 228 90 104 l 90 750 l 285 750 l 285 268 q 410 133 285 133 q 524 174 481 133 q 567 281 567 214 l 567 750 l 761 750 l 761 0 z "},"v":{"ha":753,"x_min":14,"x_max":739,"o":"m 481 0 l 276 0 l 14 750 l 219 750 l 382 201 l 533 750 l 739 750 l 481 0 z "},"w":{"ha":1085,"x_min":14,"x_max":1071,"o":"m 858 0 l 657 0 l 544 529 l 425 0 l 225 0 l 14 750 l 215 750 l 335 225 l 449 750 l 643 750 l 756 225 l 869 750 l 1071 750 l 858 0 z "},"x":{"ha":763,"x_min":21,"x_max":742,"o":"m 492 378 l 742 0 l 508 0 l 382 233 l 254 0 l 21 0 l 271 378 l 26 750 l 260 750 l 382 524 l 503 750 l 736 750 l 492 378 z "},"y":{"ha":763,"x_min":14,"x_max":749,"o":"m 293 -36 l 293 -31 l 14 750 l 228 750 l 393 204 l 549 750 l 749 750 l 440 -137 q 435 -156 440 -139 q 426 -180 429 -174 q 415 -203 422 -186 q 399 -228 407 -221 q 376 -251 390 -236 q 345 -273 363 -265 q 306 -289 328 -281 q 254 -301 283 -297 q 190 -304 225 -304 q 121 -299 160 -304 l 121 -153 q 172 -161 151 -161 q 258 -125 224 -161 q 293 -36 293 -89 z "},"z":{"ha":704,"x_min":42,"x_max":663,"o":"m 650 750 l 650 593 l 282 157 l 663 157 l 663 0 l 42 0 l 42 157 l 413 593 l 67 593 l 67 750 l 650 750 z "},"{":{"ha":540,"x_min":51,"x_max":440,"o":"m 164 208 q 142 289 164 269 q 57 308 121 308 l 51 310 l 51 438 l 74 438 q 164 525 164 439 l 164 818 q 212 958 164 903 q 335 1013 260 1013 l 440 1013 l 440 875 l 389 875 q 326 796 326 875 l 326 525 q 298 417 326 449 q 192 374 269 385 q 298 329 269 361 q 326 221 326 297 l 326 -50 q 340 -121 326 -101 q 389 -140 354 -140 l 440 -140 l 440 -278 l 335 -278 q 212 -223 260 -278 q 164 -83 164 -168 l 164 208 z "},"|":{"ha":389,"x_min":139,"x_max":250,"o":"m 250 1013 l 250 -278 l 139 -278 l 139 1013 l 250 1013 z "},"}":{"ha":540,"x_min":100,"x_max":489,"o":"m 376 526 q 398 446 376 465 q 483 426 419 426 l 489 425 l 489 297 l 467 297 q 376 210 376 296 l 376 -83 q 328 -223 376 -168 q 206 -278 281 -278 l 100 -278 l 100 -140 l 151 -140 q 214 -61 214 -140 l 214 210 q 242 318 214 286 q 349 361 271 350 q 242 406 271 374 q 214 514 214 438 l 214 785 q 200 856 214 836 q 151 875 186 875 l 100 875 l 100 1013 l 206 1013 q 328 958 281 1013 q 376 818 376 903 l 376 526 z "},"~":{"ha":694,"x_min":28,"x_max":665,"o":"m 483 308 q 542 330 529 308 q 557 400 556 351 l 665 400 q 489 197 653 197 q 374 233 426 197 l 294 292 q 210 325 250 325 q 152 304 165 325 q 136 235 139 283 l 28 235 q 204 436 38 436 q 319 401 271 436 l 399 343 q 483 308 446 308 z "}," ":{"ha":386,"x_min":0,"x_max":0,"o":"z "},"¡":{"ha":463,"x_min":92,"x_max":300,"o":"m 92 -258 l 92 33 l 150 463 l 243 463 l 300 33 l 300 -258 l 92 -258 m 92 547 l 92 750 l 300 750 l 300 547 l 92 547 z "},"¢":{"ha":772,"x_min":50,"x_max":725,"o":"m 421 604 l 421 126 q 496 165 468 133 q 539 260 524 196 l 725 260 q 629 54 714 135 q 421 -32 544 -26 l 421 -172 l 360 -172 l 360 -31 q 133 83 215 -21 q 50 360 50 186 q 129 642 50 539 q 360 761 208 746 l 360 881 l 421 881 l 421 763 q 633 680 549 761 q 725 469 717 599 l 539 469 q 497 565 525 533 q 421 604 469 597 m 360 131 l 360 601 q 244 361 244 571 q 360 131 244 165 z "},"£":{"ha":772,"x_min":43,"x_max":746,"o":"m 249 713 q 260 661 249 690 q 294 588 272 632 q 328 515 315 544 l 521 515 l 521 439 l 351 439 q 372 357 372 394 q 336 242 372 296 q 211 119 300 189 q 367 171 319 171 q 453 156 397 171 q 543 142 508 142 q 689 182 608 142 l 746 31 q 544 -32 640 -32 q 408 -10 496 -32 q 271 13 319 13 q 119 -29 203 13 l 43 111 q 163 215 131 171 q 196 321 196 260 q 167 439 196 368 l 43 439 l 43 515 l 126 515 q 66 634 79 597 q 53 717 53 671 q 143 913 53 833 q 383 993 233 993 q 529 972 467 993 q 626 919 592 950 q 683 842 661 889 q 713 758 706 796 q 725 672 721 721 l 542 672 l 540 688 q 529 738 536 717 q 507 785 522 760 q 460 825 492 811 q 385 839 429 839 q 287 803 325 839 q 249 713 249 768 z "},"¤":{"ha":772,"x_min":36,"x_max":736,"o":"m 539 733 l 640 835 l 736 739 l 632 635 q 669 492 669 560 q 629 342 669 413 l 736 236 l 640 142 l 536 246 q 462 212 489 219 q 397 204 435 204 q 243 247 301 204 l 133 139 l 39 235 l 147 342 q 106 489 106 418 q 146 635 106 571 l 36 744 l 132 839 l 239 732 q 390 775 310 775 q 539 733 472 775 m 389 639 q 283 596 326 639 q 239 489 239 553 q 283 384 239 428 q 388 340 326 340 q 492 384 449 340 q 536 490 536 428 q 492 595 536 551 q 389 639 449 639 z "},"¥":{"ha":772,"x_min":7,"x_max":767,"o":"m 690 488 l 690 406 l 493 406 l 493 332 l 690 332 l 690 250 l 493 250 l 493 0 l 299 0 l 299 250 l 97 250 l 97 332 l 299 332 l 299 406 l 97 406 l 97 488 l 289 488 l 7 978 l 200 978 l 393 625 l 579 978 l 767 978 l 500 488 l 690 488 z "},"¦":{"ha":389,"x_min":139,"x_max":250,"o":"m 250 1013 l 250 472 l 139 472 l 139 1013 l 250 1013 m 250 263 l 250 -278 l 139 -278 l 139 263 l 250 263 z "},"§":{"ha":772,"x_min":46,"x_max":719,"o":"m 174 594 q 162 606 172 596 q 148 619 151 615 q 135 635 144 624 q 121 654 125 646 q 109 676 117 663 q 98 701 101 689 q 92 731 94 714 q 89 765 89 747 q 171 937 89 869 q 379 1004 253 1004 q 474 994 431 1004 q 559 958 517 983 q 628 881 601 933 q 657 756 654 829 l 481 756 q 372 863 467 863 q 308 843 332 863 q 283 792 283 824 q 309 738 283 763 q 408 674 335 714 l 585 576 q 719 364 719 501 q 689 249 719 294 q 589 172 658 204 q 686 -14 686 104 q 603 -206 686 -132 q 383 -279 519 -279 q 90 0 93 -279 l 272 0 l 272 -14 q 300 -97 275 -68 q 385 -125 325 -125 q 461 -101 432 -125 q 490 -40 490 -78 q 488 -19 490 -29 q 483 -1 485 -8 q 472 14 481 6 q 460 26 464 22 q 445 38 457 31 q 430 48 433 46 q 411 58 426 50 q 393 68 396 67 l 156 207 q 46 390 46 271 q 73 495 46 453 q 174 594 100 538 m 468 425 l 269 531 q 211 440 211 496 q 227 388 211 408 q 285 343 243 367 l 489 232 q 553 322 553 276 q 535 377 553 356 q 468 425 517 399 z "},"¨":{"ha":463,"x_min":18,"x_max":443,"o":"m 443 1032 l 443 863 l 290 863 l 290 1032 l 443 1032 m 171 1032 l 171 863 l 18 863 l 18 1032 l 171 1032 z "},"©":{"ha":1024,"x_min":-19,"x_max":1043,"o":"m 767 599 l 642 599 q 513 707 619 707 q 397 651 439 707 q 354 499 354 596 q 395 347 354 401 q 508 293 436 293 q 642 413 631 293 l 769 413 q 693 240 764 303 q 506 178 622 178 q 302 265 378 178 q 226 500 226 353 q 303 735 226 649 q 510 822 379 822 q 688 764 618 822 q 767 599 758 706 m 137 876 q 215 954 137 876 q 513 1032 293 1032 q 888 876 732 1032 q 1043 501 1043 721 q 887 124 1043 279 q 506 -31 731 -31 q 135 126 290 -31 q -19 501 -19 283 q 137 876 -19 721 m 511 932 q 213 806 338 932 q 89 501 89 679 q 213 197 89 325 q 507 69 336 69 q 810 195 686 69 q 935 501 935 321 q 810 806 935 679 q 511 932 686 932 z "},"ª":{"ha":514,"x_min":43,"x_max":457,"o":"m 446 472 l 446 364 l 51 364 l 51 472 l 446 472 m 457 569 l 457 556 l 329 556 q 315 600 317 571 q 179 536 256 536 q 81 574 118 536 q 43 672 43 611 q 175 815 43 793 l 222 824 q 239 826 226 825 q 258 829 251 828 q 275 833 264 831 q 292 840 286 836 q 303 848 297 843 q 313 860 310 853 q 315 875 315 867 q 247 918 315 918 q 188 904 206 918 q 165 857 169 890 l 57 857 q 244 1013 60 1013 q 429 874 429 1013 l 429 625 q 457 569 429 594 m 315 736 l 315 768 q 267 754 300 760 l 226 746 q 175 725 190 739 q 160 685 160 711 q 224 631 160 631 q 291 658 267 631 q 315 736 315 686 z "},"«":{"ha":772,"x_min":122,"x_max":650,"o":"m 122 303 l 122 461 l 354 668 l 354 506 l 214 382 l 354 258 l 354 100 l 122 303 m 418 303 l 418 461 l 650 668 l 650 506 l 510 382 l 650 258 l 650 100 l 418 303 z "},"¬":{"ha":811,"x_min":54,"x_max":756,"o":"m 54 522 l 754 522 l 756 119 l 590 119 l 590 356 l 56 356 l 54 522 z "},"­":{"ha":463,"x_min":36,"x_max":414,"o":"m 414 475 l 414 288 l 36 288 l 36 475 l 414 475 z "},"®":{"ha":1024,"x_min":-19,"x_max":1043,"o":"m 400 435 l 400 194 l 267 194 l 267 810 l 597 810 q 721 765 676 810 q 765 642 765 721 q 668 492 765 539 q 704 472 693 481 q 726 451 715 463 q 739 415 736 440 q 744 360 742 389 q 747 271 746 332 q 774 224 747 238 l 774 194 l 631 194 q 611 307 611 232 q 612 324 611 313 q 613 343 613 336 l 613 367 q 528 435 613 435 l 400 435 m 400 547 l 543 547 q 613 563 593 547 q 632 622 632 579 q 613 681 632 665 q 543 697 593 697 l 400 697 l 400 547 m 137 876 q 215 954 137 876 q 513 1032 293 1032 q 888 876 732 1032 q 1043 501 1043 721 q 887 124 1043 279 q 506 -31 731 -31 q 135 126 290 -31 q -19 501 -19 283 q 137 876 -19 721 m 511 932 q 213 806 338 932 q 89 501 89 679 q 213 197 89 325 q 507 69 336 69 q 810 195 686 69 q 935 501 935 321 q 810 806 935 679 q 511 932 686 932 z "},"¯":{"ha":463,"x_min":22,"x_max":438,"o":"m 438 971 l 438 861 l 22 861 l 22 971 l 438 971 z "},"°":{"ha":842,"x_min":210,"x_max":631,"o":"m 421 953 q 569 891 507 953 q 631 743 631 829 q 569 593 631 654 q 418 532 507 532 q 272 594 333 532 q 210 743 210 657 q 272 891 210 829 q 421 953 333 953 m 421 865 q 333 829 369 865 q 297 742 297 793 q 333 656 297 693 q 418 619 369 619 q 507 656 471 619 q 543 743 543 692 q 507 829 543 793 q 421 865 471 865 z "},"±":{"ha":811,"x_min":69,"x_max":740,"o":"m 740 143 l 740 -22 l 69 -22 l 69 143 l 740 143 m 740 642 l 740 476 l 488 476 l 488 224 l 322 224 l 322 476 l 69 476 l 69 642 l 322 642 l 322 894 l 488 894 l 488 642 l 740 642 z "},"²":{"ha":488,"x_min":22,"x_max":456,"o":"m 456 958 q 428 857 456 900 q 364 790 400 814 q 276 729 328 767 q 193 654 225 692 l 453 654 l 453 542 l 22 542 q 48 656 25 606 q 104 733 71 706 q 176 786 138 760 q 248 832 215 813 q 302 882 281 851 q 324 953 324 913 q 301 1018 324 994 q 239 1042 279 1042 q 177 1016 199 1042 q 156 943 156 990 q 158 921 156 940 l 31 921 q 29 946 29 932 q 85 1093 29 1042 q 246 1144 142 1144 q 401 1097 347 1144 q 456 958 456 1049 z "},"³":{"ha":488,"x_min":21,"x_max":457,"o":"m 31 932 q 236 1136 39 1136 q 383 1092 328 1136 q 438 974 438 1047 q 365 850 438 894 q 457 707 457 806 q 397 567 457 619 q 236 515 336 515 q 78 567 135 515 q 21 714 22 619 l 149 714 q 239 622 154 622 q 301 646 276 622 q 325 706 325 669 q 208 793 325 790 l 186 793 l 186 879 l 201 879 q 306 960 306 879 q 285 1015 306 994 q 232 1035 265 1035 q 169 1008 186 1035 q 153 932 153 982 l 31 932 z "},"´":{"ha":463,"x_min":168,"x_max":440,"o":"m 440 1051 l 265 843 l 168 843 l 265 1051 l 440 1051 z "},"µ":{"ha":849,"x_min":81,"x_max":796,"o":"m 275 286 q 392 133 275 133 q 492 175 453 133 q 532 281 532 217 l 532 750 l 726 750 l 726 208 q 735 127 726 147 q 768 107 743 107 q 796 113 778 107 l 796 -8 q 699 -32 750 -32 q 621 -15 650 -32 q 567 43 592 1 q 490 -15 526 1 q 406 -32 454 -32 q 267 21 321 -32 l 267 -306 l 81 -306 l 81 750 l 275 750 l 275 286 z "},"¶":{"ha":772,"x_min":26,"x_max":735,"o":"m 26 688 q 109 919 26 825 q 314 1013 192 1013 l 735 1013 l 735 913 l 675 913 l 675 -265 l 539 -265 l 539 913 l 451 913 l 451 -265 l 315 -265 l 315 371 q 107 465 188 376 q 26 688 26 554 z "},"·":{"ha":386,"x_min":89,"x_max":261,"o":"m 89 406 l 261 406 l 261 235 l 89 235 l 89 406 z "},"¸":{"ha":463,"x_min":38,"x_max":408,"o":"m 225 0 l 285 0 l 244 -87 q 303 -78 274 -78 q 380 -104 351 -78 q 408 -176 408 -131 q 362 -272 408 -239 q 229 -306 315 -306 q 38 -267 153 -306 l 64 -194 q 210 -236 160 -236 q 266 -219 243 -236 q 289 -179 289 -203 q 269 -144 289 -157 q 218 -131 250 -131 q 150 -147 185 -131 l 225 0 z "},"¹":{"ha":417,"x_min":56,"x_max":336,"o":"m 204 942 l 56 942 l 56 1026 q 247 1131 218 1026 l 336 1131 l 336 540 l 204 540 l 204 942 z "},"º":{"ha":507,"x_min":32,"x_max":476,"o":"m 464 472 l 464 364 l 46 364 l 46 472 l 464 472 m 254 1013 q 418 949 360 1013 q 476 771 476 885 q 417 599 476 663 q 254 536 357 536 q 92 600 151 536 q 32 774 32 664 q 92 949 32 885 q 254 1013 151 1013 m 331 878 q 316 898 331 878 q 254 918 301 918 q 178 878 207 918 q 149 775 149 839 q 178 671 149 711 q 254 631 207 631 q 331 670 301 631 q 360 772 360 710 q 331 878 360 838 z "},"»":{"ha":772,"x_min":122,"x_max":642,"o":"m 354 465 l 354 306 l 122 100 l 122 263 l 263 386 l 122 510 l 122 668 l 354 465 m 642 465 l 642 306 l 410 100 l 410 263 l 550 386 l 410 510 l 410 668 l 642 465 z "},"¼":{"ha":1207,"x_min":56,"x_max":1181,"o":"m 204 842 l 56 842 l 56 926 q 247 1031 218 926 l 336 1031 l 336 440 l 204 440 l 204 842 m 824 993 l 944 993 l 357 -28 l 236 -28 l 824 993 m 1181 233 l 1181 129 l 1117 129 l 1117 0 l 985 0 l 985 129 l 736 129 l 736 232 l 965 590 l 1117 590 l 1117 233 l 1181 233 m 985 233 l 985 461 l 838 233 l 985 233 z "},"½":{"ha":1207,"x_min":56,"x_max":1175,"o":"m 204 844 l 56 844 l 56 929 q 247 1033 218 929 l 336 1033 l 336 443 l 204 443 l 204 844 m 815 993 l 936 993 l 349 -28 l 228 -28 l 815 993 m 1175 417 q 1147 315 1175 358 q 1083 249 1119 272 q 996 188 1047 225 q 913 113 944 150 l 1172 113 l 1172 0 l 742 0 q 767 114 744 64 q 824 191 790 164 q 896 244 857 218 q 967 290 935 271 q 1022 340 1000 310 q 1043 411 1043 371 q 1021 476 1043 453 q 958 500 999 500 q 897 474 918 500 q 875 401 875 449 q 878 379 875 399 l 750 379 q 749 404 749 390 q 805 551 749 500 q 965 603 861 603 q 1121 555 1067 603 q 1175 417 1175 507 z "},"¾":{"ha":1207,"x_min":21,"x_max":1181,"o":"m 31 825 q 236 1029 39 1029 q 383 985 328 1029 q 438 867 438 940 q 365 743 438 788 q 457 600 457 700 q 397 460 457 513 q 236 408 336 408 q 78 460 135 408 q 21 607 22 513 l 149 607 q 239 515 154 515 q 301 539 276 515 q 325 599 325 563 q 208 686 325 683 l 186 686 l 186 772 l 201 772 q 306 853 306 772 q 285 908 306 888 q 232 928 265 928 q 169 901 186 928 q 153 825 153 875 l 31 825 m 868 993 l 989 993 l 401 -28 l 281 -28 l 868 993 m 1181 233 l 1181 129 l 1117 129 l 1117 0 l 985 0 l 985 129 l 736 129 l 736 232 l 965 590 l 1117 590 l 1117 233 l 1181 233 m 985 233 l 985 461 l 838 233 l 985 233 z "},"¿":{"ha":849,"x_min":72,"x_max":756,"o":"m 756 82 q 731 -76 754 -8 q 674 -183 708 -144 q 593 -244 640 -221 q 505 -276 546 -268 q 418 -283 464 -283 q 169 -194 265 -283 q 72 36 72 -106 q 107 181 72 124 q 239 306 142 238 q 317 376 301 350 q 332 471 332 403 l 504 471 l 504 451 q 480 330 504 382 q 421 246 456 278 q 351 186 386 214 q 292 122 317 158 q 268 40 268 86 q 310 -74 268 -28 q 414 -119 351 -119 q 523 -67 479 -119 q 567 67 567 -14 l 567 79 l 567 82 l 756 82 m 310 547 l 310 750 l 518 750 l 518 547 l 310 547 z "},"À":{"ha":968,"x_min":14,"x_max":954,"o":"m 274 1250 l 463 1250 l 601 1083 l 490 1083 l 274 1250 m 674 204 l 294 204 l 226 0 l 14 0 l 374 1013 l 604 1013 l 954 0 l 740 0 l 674 204 m 617 378 l 485 774 l 353 378 l 617 378 z "},"Á":{"ha":968,"x_min":14,"x_max":954,"o":"m 726 1250 l 510 1083 l 399 1083 l 538 1250 l 726 1250 m 674 204 l 294 204 l 226 0 l 14 0 l 374 1013 l 604 1013 l 954 0 l 740 0 l 674 204 m 617 378 l 485 774 l 353 378 l 617 378 z "},"Â":{"ha":968,"x_min":14,"x_max":954,"o":"m 424 1250 l 572 1250 l 715 1083 l 593 1083 l 493 1167 l 393 1083 l 274 1083 l 424 1250 m 674 204 l 294 204 l 226 0 l 14 0 l 374 1013 l 604 1013 l 954 0 l 740 0 l 674 204 m 617 378 l 485 774 l 353 378 l 617 378 z "},"Ã":{"ha":968,"x_min":14,"x_max":954,"o":"m 658 1236 l 746 1236 q 614 1060 738 1060 q 538 1076 581 1060 l 439 1113 q 397 1121 414 1121 q 360 1106 372 1121 q 342 1058 347 1092 l 254 1058 q 293 1185 258 1139 q 385 1231 328 1231 q 463 1213 413 1231 l 561 1178 q 608 1169 581 1169 q 658 1236 653 1169 m 674 204 l 294 204 l 226 0 l 14 0 l 374 1013 l 604 1013 l 954 0 l 740 0 l 674 204 m 617 378 l 485 774 l 353 378 l 617 378 z "},"Ä":{"ha":968,"x_min":14,"x_max":954,"o":"m 704 1250 l 704 1081 l 551 1081 l 551 1250 l 704 1250 m 432 1250 l 432 1081 l 279 1081 l 279 1250 l 432 1250 m 674 204 l 294 204 l 226 0 l 14 0 l 374 1013 l 604 1013 l 954 0 l 740 0 l 674 204 m 617 378 l 485 774 l 353 378 l 617 378 z "},"Å":{"ha":968,"x_min":14,"x_max":954,"o":"m 492 1318 q 579 1281 543 1318 q 615 1192 615 1244 q 578 1104 615 1140 q 490 1068 542 1068 q 402 1104 439 1068 q 365 1193 365 1140 q 402 1282 365 1246 q 492 1318 439 1318 m 492 1251 q 449 1234 467 1251 q 432 1193 432 1217 q 449 1152 432 1169 q 492 1135 467 1135 q 532 1152 515 1135 q 549 1193 549 1169 q 532 1234 549 1217 q 492 1251 515 1251 m 674 204 l 294 204 l 226 0 l 14 0 l 374 1013 l 604 1013 l 954 0 l 740 0 l 674 204 m 617 378 l 485 774 l 353 378 l 617 378 z "},"Æ":{"ha":1410,"x_min":14,"x_max":1354,"o":"m 610 211 l 300 211 l 226 0 l 14 0 l 379 1013 l 1326 1013 l 1326 839 l 818 839 l 818 610 l 1289 610 l 1289 436 l 818 436 l 818 174 l 1354 174 l 1354 0 l 610 0 l 610 211 m 610 385 l 610 839 l 517 839 l 358 385 l 610 385 z "},"Ç":{"ha":1001,"x_min":56,"x_max":946,"o":"m 743 669 q 526 851 704 851 q 333 757 403 851 q 264 494 264 663 q 331 236 264 329 q 519 143 399 143 q 675 196 617 143 q 743 346 733 249 l 946 346 q 824 73 938 174 q 521 -32 711 -28 l 494 -87 q 553 -78 522 -78 q 630 -104 601 -78 q 658 -176 658 -131 q 612 -272 658 -239 q 479 -306 565 -306 q 288 -267 403 -306 l 314 -194 q 460 -236 410 -236 q 516 -219 493 -236 q 539 -179 539 -203 q 519 -144 539 -157 q 468 -131 500 -131 q 400 -147 435 -131 l 460 -32 q 312 8 364 -15 q 210 78 260 31 q 56 497 56 225 q 181 886 56 743 q 519 1029 306 1029 q 813 933 699 1029 q 942 669 928 838 l 743 669 z "},"È":{"ha":924,"x_min":111,"x_max":868,"o":"m 288 1250 l 476 1250 l 615 1083 l 504 1083 l 288 1250 m 319 436 l 319 174 l 868 174 l 868 0 l 111 0 l 111 1013 l 843 1013 l 843 839 l 319 839 l 319 610 l 804 610 l 804 436 l 319 436 z "},"É":{"ha":924,"x_min":111,"x_max":868,"o":"m 699 1250 l 482 1083 l 371 1083 l 510 1250 l 699 1250 m 319 436 l 319 174 l 868 174 l 868 0 l 111 0 l 111 1013 l 843 1013 l 843 839 l 319 839 l 319 610 l 804 610 l 804 436 l 319 436 z "},"Ê":{"ha":924,"x_min":111,"x_max":868,"o":"m 410 1250 l 558 1250 l 701 1083 l 579 1083 l 479 1167 l 379 1083 l 260 1083 l 410 1250 m 319 436 l 319 174 l 868 174 l 868 0 l 111 0 l 111 1013 l 843 1013 l 843 839 l 319 839 l 319 610 l 804 610 l 804 436 l 319 436 z "},"Ë":{"ha":924,"x_min":111,"x_max":868,"o":"m 690 1250 l 690 1081 l 538 1081 l 538 1250 l 690 1250 m 418 1250 l 418 1081 l 265 1081 l 265 1250 l 418 1250 m 319 436 l 319 174 l 868 174 l 868 0 l 111 0 l 111 1013 l 843 1013 l 843 839 l 319 839 l 319 610 l 804 610 l 804 436 l 319 436 z "},"Ì":{"ha":431,"x_min":0,"x_max":328,"o":"m 0 1250 l 189 1250 l 328 1083 l 217 1083 l 0 1250 m 319 1013 l 319 0 l 111 0 l 111 1013 l 319 1013 z "},"Í":{"ha":431,"x_min":58,"x_max":386,"o":"m 386 1250 l 169 1083 l 58 1083 l 197 1250 l 386 1250 m 319 1013 l 319 0 l 111 0 l 111 1013 l 319 1013 z "},"Î":{"ha":431,"x_min":-6,"x_max":436,"o":"m 144 1250 l 293 1250 l 436 1083 l 314 1083 l 214 1167 l 114 1083 l -6 1083 l 144 1250 m 336 1013 l 336 0 l 128 0 l 128 1013 l 336 1013 z "},"Ï":{"ha":431,"x_min":3,"x_max":428,"o":"m 428 1250 l 428 1081 l 275 1081 l 275 1250 l 428 1250 m 156 1250 l 156 1081 l 3 1081 l 3 1250 l 156 1250 m 335 1013 l 335 0 l 126 0 l 126 1013 l 335 1013 z "},"Ð":{"ha":1029,"x_min":28,"x_max":974,"o":"m 135 471 l 28 471 l 28 582 l 135 582 l 135 1013 l 531 1013 q 726 985 651 1013 q 851 896 801 958 q 942 722 910 825 q 974 507 974 619 q 941 292 974 394 q 851 118 908 190 q 726 28 801 56 q 531 0 650 0 l 135 0 l 135 471 m 774 506 q 711 762 774 685 q 531 839 649 839 l 343 839 l 343 582 l 551 582 l 551 471 l 343 471 l 343 174 l 531 174 q 709 247 644 174 q 774 506 774 321 z "},"Ñ":{"ha":1046,"x_min":111,"x_max":935,"o":"m 672 1250 l 760 1250 q 628 1074 751 1074 q 551 1090 594 1074 l 453 1126 q 411 1135 428 1135 q 374 1120 386 1135 q 356 1072 361 1106 l 268 1072 q 307 1199 272 1153 q 399 1244 342 1244 q 476 1226 426 1244 l 575 1192 q 622 1183 594 1183 q 672 1250 667 1183 m 726 0 l 319 700 l 319 0 l 111 0 l 111 1013 l 325 1013 l 726 324 l 726 1013 l 935 1013 l 935 0 l 726 0 z "},"Ò":{"ha":1086,"x_min":56,"x_max":1031,"o":"m 315 1250 l 504 1250 l 643 1083 l 532 1083 l 315 1250 m 189 117 q 122 191 189 117 q 56 499 56 265 q 190 881 56 732 q 542 1029 324 1029 q 896 881 761 1029 q 1031 492 1031 733 q 898 117 1031 267 q 543 -32 765 -32 q 189 117 322 -32 m 543 851 q 340 755 417 851 q 264 499 264 658 q 340 242 264 339 q 543 146 417 146 q 745 242 668 146 q 822 493 822 338 q 747 754 822 657 q 543 851 671 851 z "},"Ó":{"ha":1086,"x_min":56,"x_max":1031,"o":"m 768 1250 l 551 1083 l 440 1083 l 579 1250 l 768 1250 m 189 117 q 122 191 189 117 q 56 499 56 265 q 190 881 56 732 q 542 1029 324 1029 q 896 881 761 1029 q 1031 492 1031 733 q 898 117 1031 267 q 543 -32 765 -32 q 189 117 322 -32 m 543 851 q 340 755 417 851 q 264 499 264 658 q 340 242 264 339 q 543 146 417 146 q 745 242 668 146 q 822 493 822 338 q 747 754 822 657 q 543 851 671 851 z "},"Ô":{"ha":1086,"x_min":56,"x_max":1031,"o":"m 479 1250 l 628 1250 l 771 1083 l 649 1083 l 549 1167 l 449 1083 l 329 1083 l 479 1250 m 189 117 q 122 191 189 117 q 56 499 56 265 q 190 881 56 732 q 542 1029 324 1029 q 896 881 761 1029 q 1031 492 1031 733 q 898 117 1031 267 q 543 -32 765 -32 q 189 117 322 -32 m 543 851 q 340 755 417 851 q 264 499 264 658 q 340 242 264 339 q 543 146 417 146 q 745 242 668 146 q 822 493 822 338 q 747 754 822 657 q 543 851 671 851 z "},"Õ":{"ha":1086,"x_min":56,"x_max":1031,"o":"m 711 1250 l 799 1250 q 667 1074 790 1074 q 590 1090 633 1074 l 492 1126 q 450 1135 467 1135 q 413 1120 425 1135 q 394 1072 400 1106 l 307 1072 q 346 1199 311 1153 q 438 1244 381 1244 q 515 1226 465 1244 l 614 1192 q 661 1183 633 1183 q 711 1250 706 1183 m 189 117 q 122 191 189 117 q 56 499 56 265 q 190 881 56 732 q 542 1029 324 1029 q 896 881 761 1029 q 1031 492 1031 733 q 898 117 1031 267 q 543 -32 765 -32 q 189 117 322 -32 m 543 851 q 340 755 417 851 q 264 499 264 658 q 340 242 264 339 q 543 146 417 146 q 745 242 668 146 q 822 493 822 338 q 747 754 822 657 q 543 851 671 851 z "},"Ö":{"ha":1086,"x_min":56,"x_max":1031,"o":"m 756 1250 l 756 1081 l 603 1081 l 603 1250 l 756 1250 m 483 1250 l 483 1081 l 331 1081 l 331 1250 l 483 1250 m 189 117 q 122 191 189 117 q 56 499 56 265 q 190 881 56 732 q 542 1029 324 1029 q 896 881 761 1029 q 1031 492 1031 733 q 898 117 1031 267 q 543 -32 765 -32 q 189 117 322 -32 m 543 851 q 340 755 417 851 q 264 499 264 658 q 340 242 264 339 q 543 146 417 146 q 745 242 668 146 q 822 493 822 338 q 747 754 822 657 q 543 851 671 851 z "},"×":{"ha":811,"x_min":110,"x_max":701,"o":"m 585 617 l 701 500 l 522 321 l 700 142 l 583 25 l 406 204 l 228 26 l 111 143 l 289 321 l 110 499 l 226 617 l 406 438 l 585 617 z "},"Ø":{"ha":1088,"x_min":50,"x_max":1056,"o":"m 1035 496 q 901 119 1035 269 q 546 -32 768 -32 q 236 72 357 -32 l 121 -54 l 50 10 l 169 142 q 56 499 56 294 q 190 880 56 731 q 546 1029 325 1029 q 868 913 736 1029 l 983 1040 l 1056 978 l 932 840 q 1035 496 1035 700 m 794 690 l 363 213 q 546 146 432 146 q 750 243 674 146 q 826 501 826 340 q 794 690 826 606 m 304 290 l 740 771 q 546 851 664 851 q 340 754 417 851 q 264 494 264 657 q 304 290 264 379 z "},"Ù":{"ha":1025,"x_min":111,"x_max":914,"o":"m 301 1250 l 490 1250 l 629 1083 l 518 1083 l 301 1250 m 620 -22 q 594 -27 620 -22 q 513 -32 568 -32 q 405 -22 457 -32 q 298 13 353 -12 q 203 76 243 38 q 137 180 163 115 q 111 326 111 244 l 111 1013 l 319 1013 l 319 326 q 513 146 319 146 q 706 326 706 146 l 706 1013 l 914 1013 l 914 326 q 888 180 914 244 q 822 76 863 115 q 727 13 782 38 q 620 -22 672 -12 z "},"Ú":{"ha":1025,"x_min":111,"x_max":914,"o":"m 726 1250 l 510 1083 l 399 1083 l 538 1250 l 726 1250 m 620 -22 q 594 -27 620 -22 q 513 -32 568 -32 q 405 -22 457 -32 q 298 13 353 -12 q 203 76 243 38 q 137 180 163 115 q 111 326 111 244 l 111 1013 l 319 1013 l 319 326 q 513 146 319 146 q 706 326 706 146 l 706 1013 l 914 1013 l 914 326 q 888 180 914 244 q 822 76 863 115 q 727 13 782 38 q 620 -22 672 -12 z "},"Û":{"ha":1025,"x_min":111,"x_max":914,"o":"m 438 1250 l 586 1250 l 729 1083 l 607 1083 l 507 1167 l 407 1083 l 288 1083 l 438 1250 m 620 -22 q 594 -27 620 -22 q 513 -32 568 -32 q 405 -22 457 -32 q 298 13 353 -12 q 203 76 243 38 q 137 180 163 115 q 111 326 111 244 l 111 1013 l 319 1013 l 319 326 q 513 146 319 146 q 706 326 706 146 l 706 1013 l 914 1013 l 914 326 q 888 180 914 244 q 822 76 863 115 q 727 13 782 38 q 620 -22 672 -12 z "},"Ü":{"ha":1025,"x_min":111,"x_max":914,"o":"m 719 1250 l 719 1081 l 567 1081 l 567 1250 l 719 1250 m 447 1250 l 447 1081 l 294 1081 l 294 1250 l 447 1250 m 620 -22 q 594 -27 620 -22 q 513 -32 568 -32 q 405 -22 457 -32 q 298 13 353 -12 q 203 76 243 38 q 137 180 163 115 q 111 326 111 244 l 111 1013 l 319 1013 l 319 326 q 513 146 319 146 q 706 326 706 146 l 706 1013 l 914 1013 l 914 326 q 888 180 914 244 q 822 76 863 115 q 727 13 782 38 q 620 -22 672 -12 z "},"Ý":{"ha":893,"x_min":14,"x_max":879,"o":"m 706 1250 l 489 1083 l 378 1083 l 517 1250 l 706 1250 m 558 375 l 558 0 l 350 0 l 350 375 l 14 1013 l 246 1013 l 453 565 l 646 1013 l 879 1013 l 558 375 z "},"Þ":{"ha":940,"x_min":111,"x_max":885,"o":"m 558 846 q 885 531 885 846 q 802 285 885 375 q 579 194 719 194 l 319 194 l 319 0 l 111 0 l 111 1013 l 319 1013 l 319 846 l 558 846 m 319 368 l 514 368 q 676 519 676 368 q 637 635 676 597 q 514 672 597 672 l 319 672 l 319 368 z "},"ß":{"ha":849,"x_min":93,"x_max":799,"o":"m 618 571 q 667 555 643 565 q 725 519 692 544 q 778 445 758 494 q 799 328 799 396 q 722 63 799 158 q 510 -32 646 -32 q 396 -15 474 -32 l 396 131 q 456 121 422 121 q 565 176 525 121 q 604 308 604 231 q 551 440 604 394 q 396 485 497 485 l 396 617 q 504 649 464 617 q 544 740 544 681 q 508 825 544 794 q 408 856 472 856 q 319 826 351 856 q 288 746 288 797 l 288 0 l 93 0 l 93 719 q 166 933 93 853 q 421 1013 239 1013 q 650 942 561 1013 q 739 760 739 871 q 618 571 739 618 z "},"à":{"ha":786,"x_min":56,"x_max":744,"o":"m 183 1051 l 358 1051 l 456 843 l 358 843 l 183 1051 m 283 -32 q 118 30 181 -32 q 56 193 56 92 q 276 429 56 392 l 354 443 q 382 447 357 443 q 414 452 407 450 q 441 458 421 454 q 469 468 461 463 q 490 483 478 474 q 506 503 501 492 q 510 531 510 515 q 397 606 510 606 q 296 583 325 606 q 260 503 267 561 l 72 503 q 393 763 90 763 q 700 532 700 763 l 700 115 q 744 24 700 64 l 744 0 l 533 0 q 511 75 511 28 q 283 -32 408 -32 m 510 301 l 510 354 q 428 331 483 342 l 361 318 q 275 282 300 306 q 250 215 250 258 q 278 149 250 174 q 356 125 307 125 q 469 171 429 125 q 510 301 510 217 z "},"á":{"ha":786,"x_min":56,"x_max":744,"o":"m 571 1051 l 396 843 l 299 843 l 396 1051 l 571 1051 m 283 -32 q 118 30 181 -32 q 56 193 56 92 q 276 429 56 392 l 354 443 q 382 447 357 443 q 414 452 407 450 q 441 458 421 454 q 469 468 461 463 q 490 483 478 474 q 506 503 501 492 q 510 531 510 515 q 397 606 510 606 q 296 583 325 606 q 260 503 267 561 l 72 503 q 393 763 90 763 q 700 532 700 763 l 700 115 q 744 24 700 64 l 744 0 l 533 0 q 511 75 511 28 q 283 -32 408 -32 m 510 301 l 510 354 q 428 331 483 342 l 361 318 q 275 282 300 306 q 250 215 250 258 q 278 149 250 174 q 356 125 307 125 q 469 171 429 125 q 510 301 510 217 z "},"â":{"ha":786,"x_min":56,"x_max":744,"o":"m 321 1051 l 469 1051 l 613 843 l 504 843 l 390 982 l 276 843 l 171 843 l 321 1051 m 283 -32 q 118 30 181 -32 q 56 193 56 92 q 276 429 56 392 l 354 443 q 382 447 357 443 q 414 452 407 450 q 441 458 421 454 q 469 468 461 463 q 490 483 478 474 q 506 503 501 492 q 510 531 510 515 q 397 606 510 606 q 296 583 325 606 q 260 503 267 561 l 72 503 q 393 763 90 763 q 700 532 700 763 l 700 115 q 744 24 700 64 l 744 0 l 533 0 q 511 75 511 28 q 283 -32 408 -32 m 510 301 l 510 354 q 428 331 483 342 l 361 318 q 275 282 300 306 q 250 215 250 258 q 278 149 250 174 q 356 125 307 125 q 469 171 429 125 q 510 301 510 217 z "},"ã":{"ha":786,"x_min":56,"x_max":744,"o":"m 536 1040 l 624 1040 q 492 864 615 864 q 415 881 458 864 l 317 917 q 275 925 292 925 q 238 910 250 925 q 219 863 225 896 l 132 863 q 171 989 136 943 q 263 1035 206 1035 q 340 1017 290 1035 l 439 982 q 486 974 458 974 q 536 1040 531 974 m 283 -32 q 118 30 181 -32 q 56 193 56 92 q 276 429 56 392 l 354 443 q 382 447 357 443 q 414 452 407 450 q 441 458 421 454 q 469 468 461 463 q 490 483 478 474 q 506 503 501 492 q 510 531 510 515 q 397 606 510 606 q 296 583 325 606 q 260 503 267 561 l 72 503 q 393 763 90 763 q 700 532 700 763 l 700 115 q 744 24 700 64 l 744 0 l 533 0 q 511 75 511 28 q 283 -32 408 -32 m 510 301 l 510 354 q 428 331 483 342 l 361 318 q 275 282 300 306 q 250 215 250 258 q 278 149 250 174 q 356 125 307 125 q 469 171 429 125 q 510 301 510 217 z "},"ä":{"ha":786,"x_min":56,"x_max":744,"o":"m 590 1032 l 590 863 l 438 863 l 438 1032 l 590 1032 m 318 1032 l 318 863 l 165 863 l 165 1032 l 318 1032 m 283 -32 q 118 30 181 -32 q 56 193 56 92 q 276 429 56 392 l 354 443 q 382 447 357 443 q 414 452 407 450 q 441 458 421 454 q 469 468 461 463 q 490 483 478 474 q 506 503 501 492 q 510 531 510 515 q 397 606 510 606 q 296 583 325 606 q 260 503 267 561 l 72 503 q 393 763 90 763 q 700 532 700 763 l 700 115 q 744 24 700 64 l 744 0 l 533 0 q 511 75 511 28 q 283 -32 408 -32 m 510 301 l 510 354 q 428 331 483 342 l 361 318 q 275 282 300 306 q 250 215 250 258 q 278 149 250 174 q 356 125 307 125 q 469 171 429 125 q 510 301 510 217 z "},"å":{"ha":786,"x_min":56,"x_max":744,"o":"m 379 1069 q 467 1033 431 1069 q 503 943 503 996 q 466 856 503 892 q 378 819 429 819 q 290 856 326 819 q 253 944 253 892 q 290 1033 253 997 q 379 1069 326 1069 m 379 1003 q 337 985 354 1003 q 319 944 319 968 q 337 903 319 921 q 379 886 354 886 q 419 903 403 886 q 436 944 436 921 q 419 985 436 968 q 379 1003 403 1003 m 283 -32 q 118 30 181 -32 q 56 193 56 92 q 276 429 56 392 l 354 443 q 382 447 357 443 q 414 452 407 450 q 441 458 421 454 q 469 468 461 463 q 490 483 478 474 q 506 503 501 492 q 510 531 510 515 q 397 606 510 606 q 296 583 325 606 q 260 503 267 561 l 72 503 q 393 763 90 763 q 700 532 700 763 l 700 115 q 744 24 700 64 l 744 0 l 533 0 q 511 75 511 28 q 283 -32 408 -32 m 510 301 l 510 354 q 428 331 483 342 l 361 318 q 275 282 300 306 q 250 215 250 258 q 278 149 250 174 q 356 125 307 125 q 469 171 429 125 q 510 301 510 217 z "},"æ":{"ha":1235,"x_min":39,"x_max":1192,"o":"m 688 314 q 846 117 688 117 q 937 144 896 117 q 990 211 978 171 l 1182 211 q 1056 34 1150 100 q 835 -32 961 -32 q 557 113 646 -32 q 272 -33 433 -33 q 102 28 165 -33 q 39 196 39 90 q 260 433 39 397 l 338 447 q 369 452 344 449 q 401 458 393 456 q 429 465 410 460 q 456 474 449 469 q 474 488 464 479 q 489 507 485 496 q 493 532 493 518 q 375 606 493 606 q 280 583 310 606 q 243 503 250 560 l 61 503 q 378 763 65 763 q 621 693 540 763 q 836 763 707 763 q 958 743 900 763 q 1072 680 1017 724 q 1159 551 1126 636 q 1192 347 1192 465 q 1190 314 1192 331 l 688 314 m 493 300 l 493 353 q 411 326 463 335 l 344 317 q 233 215 233 301 q 262 148 233 172 q 339 124 290 124 q 453 169 414 124 q 493 300 493 214 m 689 443 l 989 443 q 838 614 974 614 q 689 443 701 614 z "},"ç":{"ha":775,"x_min":56,"x_max":733,"o":"m 250 361 q 263 253 250 303 q 313 165 275 204 q 410 125 350 125 q 497 156 465 125 q 547 260 529 188 l 733 260 q 633 49 722 131 q 415 -32 544 -32 l 413 -32 l 389 -87 q 446 -78 414 -78 q 524 -104 496 -78 q 553 -176 553 -131 q 506 -272 553 -239 q 374 -306 460 -306 q 182 -267 293 -306 l 208 -194 q 353 -236 301 -236 q 410 -219 386 -236 q 433 -179 433 -203 q 414 -144 433 -157 q 363 -131 394 -131 q 293 -147 328 -131 l 353 -29 q 132 90 208 -10 q 56 360 56 190 q 149 657 56 551 q 410 763 242 763 q 637 685 550 763 q 733 469 724 607 l 547 469 q 499 574 531 543 q 408 606 468 606 q 250 361 250 606 z "},"è":{"ha":810,"x_min":56,"x_max":754,"o":"m 213 1051 l 388 1051 l 485 843 l 388 843 l 213 1051 m 403 763 q 497 751 451 763 q 591 711 543 740 q 674 637 639 682 q 732 517 710 592 q 754 347 754 443 q 753 314 754 331 l 250 314 q 258 240 251 271 q 280 178 264 208 q 327 133 296 149 q 406 117 358 117 q 554 211 517 117 l 746 211 q 619 34 714 100 q 399 -32 525 -32 q 147 72 239 -32 q 56 356 56 175 q 149 653 56 544 q 403 763 242 763 m 551 443 q 506 569 544 525 q 400 614 468 614 q 253 443 272 614 l 551 443 z "},"é":{"ha":810,"x_min":56,"x_max":754,"o":"m 582 1051 l 407 843 l 310 843 l 407 1051 l 582 1051 m 403 763 q 497 751 451 763 q 591 711 543 740 q 674 637 639 682 q 732 517 710 592 q 754 347 754 443 q 753 314 754 331 l 250 314 q 258 240 251 271 q 280 178 264 208 q 327 133 296 149 q 406 117 358 117 q 554 211 517 117 l 746 211 q 619 34 714 100 q 399 -32 525 -32 q 147 72 239 -32 q 56 356 56 175 q 149 653 56 544 q 403 763 242 763 m 551 443 q 506 569 544 525 q 400 614 468 614 q 253 443 272 614 l 551 443 z "},"ê":{"ha":810,"x_min":56,"x_max":754,"o":"m 332 1051 l 481 1051 l 624 843 l 515 843 l 401 982 l 288 843 l 182 843 l 332 1051 m 403 763 q 497 751 451 763 q 591 711 543 740 q 674 637 639 682 q 732 517 710 592 q 754 347 754 443 q 753 314 754 331 l 250 314 q 258 240 251 271 q 280 178 264 208 q 327 133 296 149 q 406 117 358 117 q 554 211 517 117 l 746 211 q 619 34 714 100 q 399 -32 525 -32 q 147 72 239 -32 q 56 356 56 175 q 149 653 56 544 q 403 763 242 763 m 551 443 q 506 569 544 525 q 400 614 468 614 q 253 443 272 614 l 551 443 z "},"ë":{"ha":810,"x_min":56,"x_max":754,"o":"m 615 1032 l 615 863 l 463 863 l 463 1032 l 615 1032 m 343 1032 l 343 863 l 190 863 l 190 1032 l 343 1032 m 403 763 q 497 751 451 763 q 591 711 543 740 q 674 637 639 682 q 732 517 710 592 q 754 347 754 443 q 753 314 754 331 l 250 314 q 258 240 251 271 q 280 178 264 208 q 327 133 296 149 q 406 117 358 117 q 554 211 517 117 l 746 211 q 619 34 714 100 q 399 -32 525 -32 q 147 72 239 -32 q 56 356 56 175 q 149 653 56 544 q 403 763 242 763 m 551 443 q 506 569 544 525 q 400 614 468 614 q 253 443 272 614 l 551 443 z "},"ì":{"ha":389,"x_min":14,"x_max":292,"o":"m 14 1051 l 189 1051 l 286 843 l 189 843 l 14 1051 m 292 750 l 292 0 l 97 0 l 97 750 l 292 750 z "},"í":{"ha":389,"x_min":97,"x_max":375,"o":"m 375 1051 l 200 843 l 103 843 l 200 1051 l 375 1051 m 292 750 l 292 0 l 97 0 l 97 750 l 292 750 z "},"î":{"ha":417,"x_min":-12,"x_max":429,"o":"m 138 1051 l 286 1051 l 429 843 l 321 843 l 207 982 l 93 843 l -12 843 l 138 1051 m 306 750 l 306 0 l 111 0 l 111 750 l 306 750 z "},"ï":{"ha":417,"x_min":-6,"x_max":419,"o":"m 419 1032 l 419 863 l 267 863 l 267 1032 l 419 1032 m 147 1032 l 147 863 l -6 863 l -6 1032 l 147 1032 m 306 750 l 306 0 l 111 0 l 111 750 l 306 750 z "},"ð":{"ha":853,"x_min":56,"x_max":797,"o":"m 274 1029 q 365 988 325 1010 q 415 961 404 965 l 536 1033 l 607 986 l 490 917 q 722 678 647 810 q 797 374 797 546 q 699 75 797 182 q 426 -32 601 -32 q 154 74 253 -32 q 56 368 56 181 q 147 639 56 536 q 388 742 239 742 q 506 715 438 742 q 374 849 450 804 l 267 785 l 208 836 l 306 897 q 181 964 253 929 l 274 1029 m 426 596 q 299 531 347 596 q 251 361 251 467 q 299 190 251 254 q 426 125 347 125 q 553 189 506 125 q 601 357 601 253 q 554 531 601 467 q 426 596 507 596 z "},"ñ":{"ha":851,"x_min":90,"x_max":761,"o":"m 578 1040 l 665 1040 q 533 864 657 864 q 457 881 500 864 l 358 917 q 317 925 333 925 q 279 910 292 925 q 261 863 267 896 l 174 863 q 213 989 178 943 q 304 1035 247 1035 q 382 1017 332 1035 l 481 982 q 528 974 500 974 q 578 1040 572 974 m 90 750 l 285 750 l 285 642 q 510 763 365 763 q 695 694 629 763 q 761 503 761 626 l 761 0 l 567 0 l 567 463 q 442 597 567 597 q 328 557 371 597 q 285 450 285 517 l 285 0 l 90 0 l 90 750 z "},"ò":{"ha":853,"x_min":56,"x_max":797,"o":"m 229 1051 l 404 1051 l 501 843 l 404 843 l 229 1051 m 425 763 q 699 656 601 763 q 797 360 797 550 q 697 74 797 179 q 426 -32 597 -32 q 154 74 253 -32 q 56 365 56 181 q 154 656 56 550 q 425 763 253 763 m 426 606 q 299 539 347 606 q 250 365 250 472 q 299 192 250 258 q 426 125 347 125 q 553 191 504 125 q 603 363 603 257 q 555 540 603 474 q 426 606 507 606 z "},"ó":{"ha":853,"x_min":56,"x_max":797,"o":"m 599 1051 l 424 843 l 326 843 l 424 1051 l 599 1051 m 425 763 q 699 656 601 763 q 797 360 797 550 q 697 74 797 179 q 426 -32 597 -32 q 154 74 253 -32 q 56 365 56 181 q 154 656 56 550 q 425 763 253 763 m 426 606 q 299 539 347 606 q 250 365 250 472 q 299 192 250 258 q 426 125 347 125 q 553 191 504 125 q 603 363 603 257 q 555 540 603 474 q 426 606 507 606 z "},"ô":{"ha":853,"x_min":56,"x_max":797,"o":"m 354 1054 l 503 1054 l 646 846 l 538 846 l 424 985 l 310 846 l 204 846 l 354 1054 m 425 763 q 699 656 601 763 q 797 360 797 550 q 697 74 797 179 q 426 -32 597 -32 q 154 74 253 -32 q 56 365 56 181 q 154 656 56 550 q 425 763 253 763 m 426 606 q 299 539 347 606 q 250 365 250 472 q 299 192 250 258 q 426 125 347 125 q 553 191 504 125 q 603 363 603 257 q 555 540 603 474 q 426 606 507 606 z "},"õ":{"ha":853,"x_min":56,"x_max":797,"o":"m 582 1040 l 669 1040 q 538 864 661 864 q 461 881 504 864 l 363 917 q 321 925 338 925 q 283 910 296 925 q 265 863 271 896 l 178 863 q 217 989 182 943 q 308 1035 251 1035 q 386 1017 336 1035 l 485 982 q 532 974 504 974 q 582 1040 576 974 m 425 763 q 699 656 601 763 q 797 360 797 550 q 697 74 797 179 q 426 -32 597 -32 q 154 74 253 -32 q 56 365 56 181 q 154 656 56 550 q 425 763 253 763 m 426 606 q 299 539 347 606 q 250 365 250 472 q 299 192 250 258 q 426 125 347 125 q 553 191 504 125 q 603 363 603 257 q 555 540 603 474 q 426 606 507 606 z "},"ö":{"ha":853,"x_min":56,"x_max":797,"o":"m 632 1032 l 632 863 l 479 863 l 479 1032 l 632 1032 m 360 1032 l 360 863 l 207 863 l 207 1032 l 360 1032 m 425 763 q 699 656 601 763 q 797 360 797 550 q 697 74 797 179 q 426 -32 597 -32 q 154 74 253 -32 q 56 365 56 181 q 154 656 56 550 q 425 763 253 763 m 426 606 q 299 539 347 606 q 250 365 250 472 q 299 192 250 258 q 426 125 347 125 q 553 191 504 125 q 603 363 603 257 q 555 540 603 474 q 426 606 507 606 z "},"÷":{"ha":811,"x_min":69,"x_max":742,"o":"m 742 404 l 742 239 l 69 239 l 69 404 l 742 404 m 319 658 l 492 658 l 492 488 l 319 488 l 319 658 m 319 156 l 492 156 l 492 -15 l 319 -15 l 319 156 z "},"ø":{"ha":853,"x_min":18,"x_max":833,"o":"m 178 49 l 78 -53 l 18 3 l 122 110 q 53 365 53 210 q 153 656 53 550 q 426 763 253 763 q 679 676 575 763 l 774 774 l 833 717 l 733 615 q 799 365 799 514 q 699 74 799 181 q 428 -32 600 -32 q 178 49 267 -32 m 588 467 l 308 183 q 428 125 358 125 q 554 192 504 125 q 604 361 604 258 q 588 467 604 417 m 267 256 l 547 542 q 424 607 493 607 q 297 540 346 607 q 247 369 247 474 q 267 256 247 306 z "},"ù":{"ha":851,"x_min":90,"x_max":761,"o":"m 226 1051 l 401 1051 l 499 843 l 401 843 l 226 1051 m 761 0 l 567 0 l 567 89 q 342 -32 486 -32 q 156 36 222 -32 q 90 228 90 104 l 90 750 l 285 750 l 285 268 q 410 133 285 133 q 524 174 481 133 q 567 281 567 214 l 567 750 l 761 750 l 761 0 z "},"ú":{"ha":851,"x_min":90,"x_max":761,"o":"m 610 1051 l 435 843 l 338 843 l 435 1051 l 610 1051 m 761 0 l 567 0 l 567 89 q 342 -32 486 -32 q 156 36 222 -32 q 90 228 90 104 l 90 750 l 285 750 l 285 268 q 410 133 285 133 q 524 174 481 133 q 567 281 567 214 l 567 750 l 761 750 l 761 0 z "},"û":{"ha":851,"x_min":90,"x_max":761,"o":"m 344 1051 l 493 1051 l 636 843 l 528 843 l 414 982 l 300 843 l 194 843 l 344 1051 m 761 0 l 567 0 l 567 89 q 342 -32 486 -32 q 156 36 222 -32 q 90 228 90 104 l 90 750 l 285 750 l 285 268 q 410 133 285 133 q 524 174 481 133 q 567 281 567 214 l 567 750 l 761 750 l 761 0 z "},"ü":{"ha":851,"x_min":90,"x_max":761,"o":"m 626 1032 l 626 863 l 474 863 l 474 1032 l 626 1032 m 354 1032 l 354 863 l 201 863 l 201 1032 l 354 1032 m 761 0 l 567 0 l 567 89 q 342 -32 486 -32 q 156 36 222 -32 q 90 228 90 104 l 90 750 l 285 750 l 285 268 q 410 133 285 133 q 524 174 481 133 q 567 281 567 214 l 567 750 l 761 750 l 761 0 z "},"ý":{"ha":763,"x_min":14,"x_max":749,"o":"m 571 1051 l 396 843 l 299 843 l 396 1051 l 571 1051 m 293 -36 l 293 -31 l 14 750 l 228 750 l 393 204 l 549 750 l 749 750 l 440 -137 q 435 -156 440 -139 q 426 -180 429 -174 q 415 -203 422 -186 q 399 -228 407 -221 q 376 -251 390 -236 q 345 -273 363 -265 q 306 -289 328 -281 q 254 -301 283 -297 q 190 -304 225 -304 q 121 -299 160 -304 l 121 -153 q 172 -161 151 -161 q 258 -125 224 -161 q 293 -36 293 -89 z "},"þ":{"ha":863,"x_min":90,"x_max":807,"o":"m 285 1013 l 285 639 q 493 763 354 763 q 717 649 628 763 q 807 364 807 536 q 717 81 807 194 q 493 -32 628 -32 q 285 89 354 -32 l 285 -303 l 90 -303 l 90 1013 l 285 1013 m 567 534 q 545 567 567 534 q 449 600 522 600 q 330 535 375 600 q 285 364 285 469 q 330 195 285 260 q 449 131 375 131 q 567 195 521 131 q 613 361 613 260 q 567 534 613 468 z "},"ÿ":{"ha":763,"x_min":14,"x_max":749,"o":"m 593 1032 l 593 863 l 440 863 l 440 1032 l 593 1032 m 321 1032 l 321 863 l 168 863 l 168 1032 l 321 1032 m 293 -36 l 293 -31 l 14 750 l 228 750 l 393 204 l 549 750 l 749 750 l 440 -137 q 435 -156 440 -139 q 426 -180 429 -174 q 415 -203 422 -186 q 399 -228 407 -221 q 376 -251 390 -236 q 345 -273 363 -265 q 306 -289 328 -281 q 254 -301 283 -297 q 190 -304 225 -304 q 121 -299 160 -304 l 121 -153 q 172 -161 151 -161 q 258 -125 224 -161 q 293 -36 293 -89 z "},"Ā":{"ha":968,"x_min":14,"x_max":954,"o":"m 714 1221 l 714 1111 l 299 1111 l 299 1221 l 714 1221 m 674 204 l 294 204 l 226 0 l 14 0 l 374 1013 l 604 1013 l 954 0 l 740 0 l 674 204 m 617 378 l 485 774 l 353 378 l 617 378 z "},"ā":{"ha":786,"x_min":56,"x_max":744,"o":"m 585 971 l 585 861 l 169 861 l 169 971 l 585 971 m 283 -32 q 118 30 181 -32 q 56 193 56 92 q 276 429 56 392 l 354 443 q 382 447 357 443 q 414 452 407 450 q 441 458 421 454 q 469 468 461 463 q 490 483 478 474 q 506 503 501 492 q 510 531 510 515 q 397 606 510 606 q 296 583 325 606 q 260 503 267 561 l 72 503 q 393 763 90 763 q 700 532 700 763 l 700 115 q 744 24 700 64 l 744 0 l 533 0 q 511 75 511 28 q 283 -32 408 -32 m 510 301 l 510 354 q 428 331 483 342 l 361 318 q 275 282 300 306 q 250 215 250 258 q 278 149 250 174 q 356 125 307 125 q 469 171 429 125 q 510 301 510 217 z "},"Ă":{"ha":968,"x_min":14,"x_max":954,"o":"m 685 1250 l 685 1235 q 632 1104 685 1157 q 501 1051 579 1051 q 371 1104 424 1051 q 318 1236 318 1157 l 318 1250 l 396 1250 q 503 1158 408 1158 q 607 1250 592 1158 l 685 1250 m 674 204 l 294 204 l 226 0 l 14 0 l 374 1013 l 604 1013 l 954 0 l 740 0 l 674 204 m 617 378 l 485 774 l 353 378 l 617 378 z "},"ă":{"ha":786,"x_min":56,"x_max":744,"o":"m 579 1039 l 579 1024 q 526 893 579 946 q 396 840 474 840 q 265 893 318 840 q 213 1025 213 946 l 213 1039 l 290 1039 q 397 947 303 947 q 501 1039 486 947 l 579 1039 m 283 -32 q 118 30 181 -32 q 56 193 56 92 q 276 429 56 392 l 354 443 q 382 447 357 443 q 414 452 407 450 q 441 458 421 454 q 469 468 461 463 q 490 483 478 474 q 506 503 501 492 q 510 531 510 515 q 397 606 510 606 q 296 583 325 606 q 260 503 267 561 l 72 503 q 393 763 90 763 q 700 532 700 763 l 700 115 q 744 24 700 64 l 744 0 l 533 0 q 511 75 511 28 q 283 -32 408 -32 m 510 301 l 510 354 q 428 331 483 342 l 361 318 q 275 282 300 306 q 250 215 250 258 q 278 149 250 174 q 356 125 307 125 q 469 171 429 125 q 510 301 510 217 z "},"Ą":{"ha":996,"x_min":28,"x_max":996,"o":"m 688 204 l 308 204 l 240 0 l 28 0 l 388 1013 l 619 1013 l 968 0 q 853 -80 896 -32 q 811 -179 811 -128 q 917 -253 811 -253 q 996 -246 954 -253 l 996 -311 q 892 -324 946 -324 q 740 -289 794 -324 q 686 -192 686 -254 q 731 -80 686 -131 q 858 0 776 -29 l 754 0 l 688 204 m 632 378 l 500 774 l 367 378 l 632 378 z "},"ą":{"ha":772,"x_min":56,"x_max":778,"o":"m 283 -32 q 118 30 181 -32 q 56 193 56 92 q 276 429 56 392 l 354 443 q 382 447 357 443 q 414 452 407 450 q 441 458 421 454 q 469 468 461 463 q 490 483 478 474 q 506 503 501 492 q 510 531 510 515 q 397 606 510 606 q 296 583 325 606 q 260 503 267 561 l 72 503 q 393 763 90 763 q 700 532 700 763 l 700 115 q 744 24 700 64 l 744 0 q 593 -179 593 -81 q 699 -253 593 -253 q 778 -246 733 -253 l 778 -311 q 674 -324 728 -324 q 522 -289 576 -324 q 468 -193 468 -254 q 514 -80 468 -132 q 640 0 560 -28 l 533 0 q 511 75 511 28 q 283 -32 408 -32 m 510 301 l 510 354 q 428 331 483 342 l 361 318 q 275 282 300 306 q 250 215 250 258 q 278 149 250 174 q 356 125 307 125 q 469 171 429 125 q 510 301 510 217 z "},"Ć":{"ha":1001,"x_min":56,"x_max":946,"o":"m 740 1250 l 524 1083 l 413 1083 l 551 1250 l 740 1250 m 743 669 q 526 851 704 851 q 333 757 403 851 q 264 494 264 663 q 331 236 264 329 q 519 143 399 143 q 675 196 617 143 q 743 346 733 249 l 946 346 q 819 70 936 172 q 514 -32 703 -32 q 179 110 303 -32 q 56 497 56 253 q 181 886 56 743 q 519 1029 306 1029 q 813 933 699 1029 q 942 669 928 838 l 743 669 z "},"ć":{"ha":775,"x_min":56,"x_max":733,"o":"m 582 1051 l 407 843 l 310 843 l 407 1051 l 582 1051 m 408 606 q 250 360 250 606 q 292 188 250 250 q 408 125 335 125 q 497 156 465 125 q 547 260 529 188 l 733 260 q 631 47 719 125 q 407 -32 543 -32 q 148 71 240 -32 q 56 360 56 174 q 149 657 56 551 q 410 763 242 763 q 637 685 550 763 q 733 469 724 607 l 547 469 q 499 574 531 543 q 408 606 468 606 z "},"Ĉ":{"ha":1001,"x_min":56,"x_max":946,"o":"m 457 1250 l 606 1250 l 749 1083 l 626 1083 l 526 1167 l 426 1083 l 307 1083 l 457 1250 m 743 669 q 526 851 704 851 q 333 757 403 851 q 264 494 264 663 q 331 236 264 329 q 519 143 399 143 q 675 196 617 143 q 743 346 733 249 l 946 346 q 819 70 936 172 q 514 -32 703 -32 q 179 110 303 -32 q 56 497 56 253 q 181 886 56 743 q 519 1029 306 1029 q 813 933 699 1029 q 942 669 928 838 l 743 669 z "},"ĉ":{"ha":775,"x_min":56,"x_max":733,"o":"m 344 1054 l 493 1054 l 636 846 l 528 846 l 414 985 l 300 846 l 194 846 l 344 1054 m 408 606 q 250 360 250 606 q 292 188 250 250 q 408 125 335 125 q 497 156 465 125 q 547 260 529 188 l 733 260 q 631 47 719 125 q 407 -32 543 -32 q 148 71 240 -32 q 56 360 56 174 q 149 657 56 551 q 410 763 242 763 q 637 685 550 763 q 733 469 724 607 l 547 469 q 499 574 531 543 q 408 606 468 606 z "},"Ċ":{"ha":1001,"x_min":56,"x_max":946,"o":"m 601 1250 l 601 1081 l 449 1081 l 449 1250 l 601 1250 m 743 669 q 526 851 704 851 q 333 757 403 851 q 264 494 264 663 q 331 236 264 329 q 519 143 399 143 q 675 196 617 143 q 743 346 733 249 l 946 346 q 819 70 936 172 q 514 -32 703 -32 q 179 110 303 -32 q 56 497 56 253 q 181 886 56 743 q 519 1029 306 1029 q 813 933 699 1029 q 942 669 928 838 l 743 669 z "},"ċ":{"ha":775,"x_min":56,"x_max":733,"o":"m 492 1015 l 492 846 l 339 846 l 339 1015 l 492 1015 m 408 606 q 250 360 250 606 q 292 188 250 250 q 408 125 335 125 q 497 156 465 125 q 547 260 529 188 l 733 260 q 631 47 719 125 q 407 -32 543 -32 q 148 71 240 -32 q 56 360 56 174 q 149 657 56 551 q 410 763 242 763 q 637 685 550 763 q 733 469 724 607 l 547 469 q 499 574 531 543 q 408 606 468 606 z "},"Č":{"ha":1001,"x_min":56,"x_max":946,"o":"m 590 1083 l 442 1083 l 299 1250 l 421 1250 l 521 1167 l 621 1250 l 740 1250 l 590 1083 m 743 669 q 526 851 704 851 q 333 757 403 851 q 264 494 264 663 q 331 236 264 329 q 519 143 399 143 q 675 196 617 143 q 743 346 733 249 l 946 346 q 819 70 936 172 q 514 -32 703 -32 q 179 110 303 -32 q 56 497 56 253 q 181 886 56 743 q 519 1029 306 1029 q 813 933 699 1029 q 942 669 928 838 l 743 669 z "},"č":{"ha":775,"x_min":56,"x_max":733,"o":"m 474 843 l 325 843 l 182 1051 l 290 1051 l 404 917 l 518 1051 l 624 1051 l 474 843 m 408 606 q 250 360 250 606 q 292 188 250 250 q 408 125 335 125 q 497 156 465 125 q 547 260 529 188 l 733 260 q 631 47 719 125 q 407 -32 543 -32 q 148 71 240 -32 q 56 360 56 174 q 149 657 56 551 q 410 763 242 763 q 637 685 550 763 q 733 469 724 607 l 547 469 q 499 574 531 543 q 408 606 468 606 z "},"Ď":{"ha":1006,"x_min":111,"x_max":950,"o":"m 544 1083 l 396 1083 l 253 1250 l 375 1250 l 475 1167 l 575 1250 l 694 1250 l 544 1083 m 111 0 l 111 1013 l 507 1013 q 699 985 624 1013 q 826 896 775 957 q 950 507 950 749 q 826 118 950 263 q 507 0 728 0 l 111 0 m 319 174 l 507 174 q 742 506 742 174 q 507 839 742 839 l 319 839 l 319 174 z "},"ď":{"ha":1096,"x_min":56,"x_max":1096,"o":"m 925 1028 l 1096 1028 l 931 822 l 833 822 l 925 1028 m 371 -32 q 144 82 232 -32 q 56 364 56 196 q 146 648 56 533 q 371 763 236 763 q 578 653 507 763 l 578 1013 l 772 1013 l 772 0 l 578 0 l 578 76 q 371 -32 506 -32 m 414 600 q 296 534 342 600 q 250 364 250 468 q 296 196 250 261 q 414 131 342 131 q 532 194 486 131 q 578 361 578 258 q 533 534 578 468 q 414 600 488 600 z "},"Đ":{"ha":1029,"x_min":28,"x_max":974,"o":"m 135 471 l 28 471 l 28 582 l 135 582 l 135 1013 l 531 1013 q 726 985 651 1013 q 851 896 801 958 q 942 722 910 825 q 974 507 974 619 q 941 292 974 394 q 851 118 908 190 q 726 28 801 56 q 531 0 650 0 l 135 0 l 135 471 m 774 506 q 711 762 774 685 q 531 839 649 839 l 343 839 l 343 582 l 551 582 l 551 471 l 343 471 l 343 174 l 531 174 q 709 247 644 174 q 774 506 774 321 z "},"đ":{"ha":869,"x_min":56,"x_max":856,"o":"m 578 828 l 393 828 l 393 921 l 578 921 l 578 1013 l 772 1013 l 772 921 l 856 921 l 856 828 l 772 828 l 772 0 l 578 0 l 578 76 q 371 -32 506 -32 q 146 82 236 -32 q 56 364 56 196 q 146 648 56 533 q 371 763 236 763 q 578 653 507 763 l 578 828 m 414 600 q 296 534 342 600 q 250 364 250 468 q 296 196 250 261 q 414 131 342 131 q 532 194 486 131 q 578 361 578 258 q 533 534 578 468 q 414 600 488 600 z "},"Ē":{"ha":924,"x_min":111,"x_max":868,"o":"m 686 1221 l 686 1111 l 271 1111 l 271 1221 l 686 1221 m 319 436 l 319 174 l 868 174 l 868 0 l 111 0 l 111 1013 l 843 1013 l 843 839 l 319 839 l 319 610 l 804 610 l 804 436 l 319 436 z "},"ē":{"ha":810,"x_min":56,"x_max":754,"o":"m 597 971 l 597 861 l 182 861 l 182 971 l 597 971 m 403 763 q 497 751 451 763 q 591 711 543 740 q 674 637 639 682 q 732 517 710 592 q 754 347 754 443 q 753 314 754 331 l 250 314 q 258 240 251 271 q 280 178 264 208 q 327 133 296 149 q 406 117 358 117 q 554 211 517 117 l 746 211 q 619 34 714 100 q 399 -32 525 -32 q 147 72 239 -32 q 56 356 56 175 q 149 653 56 544 q 403 763 242 763 m 551 443 q 506 569 544 525 q 400 614 468 614 q 253 443 272 614 l 551 443 z "},"Ĕ":{"ha":924,"x_min":111,"x_max":868,"o":"m 668 1250 l 668 1235 q 615 1104 668 1157 q 485 1051 563 1051 q 354 1104 407 1051 q 301 1236 301 1157 l 301 1250 l 379 1250 q 486 1158 392 1158 q 590 1250 575 1158 l 668 1250 m 319 436 l 319 174 l 868 174 l 868 0 l 111 0 l 111 1013 l 843 1013 l 843 839 l 319 839 l 319 610 l 804 610 l 804 436 l 319 436 z "},"ĕ":{"ha":810,"x_min":56,"x_max":754,"o":"m 588 1088 l 588 1072 q 535 942 588 994 q 404 889 482 889 q 274 942 326 889 q 221 1074 221 994 l 221 1088 l 299 1088 q 406 996 311 996 q 510 1088 494 996 l 588 1088 m 403 763 q 497 751 451 763 q 591 711 543 740 q 674 637 639 682 q 732 517 710 592 q 754 347 754 443 q 753 314 754 331 l 250 314 q 258 240 251 271 q 280 178 264 208 q 327 133 296 149 q 406 117 358 117 q 554 211 517 117 l 746 211 q 619 34 714 100 q 399 -32 525 -32 q 147 72 239 -32 q 56 356 56 175 q 149 653 56 544 q 403 763 242 763 m 551 443 q 506 569 544 525 q 400 614 468 614 q 253 443 272 614 l 551 443 z "},"Ė":{"ha":924,"x_min":111,"x_max":868,"o":"m 554 1250 l 554 1081 l 401 1081 l 401 1250 l 554 1250 m 319 436 l 319 174 l 868 174 l 868 0 l 111 0 l 111 1013 l 843 1013 l 843 839 l 319 839 l 319 610 l 804 610 l 804 436 l 319 436 z "},"ė":{"ha":810,"x_min":56,"x_max":754,"o":"m 464 1032 l 464 863 l 311 863 l 311 1032 l 464 1032 m 403 763 q 497 751 451 763 q 591 711 543 740 q 674 637 639 682 q 732 517 710 592 q 754 347 754 443 q 753 314 754 331 l 250 314 q 258 240 251 271 q 280 178 264 208 q 327 133 296 149 q 406 117 358 117 q 554 211 517 117 l 746 211 q 619 34 714 100 q 399 -32 525 -32 q 147 72 239 -32 q 56 356 56 175 q 149 653 56 544 q 403 763 242 763 m 551 443 q 506 569 544 525 q 400 614 468 614 q 253 443 272 614 l 551 443 z "},"Ę":{"ha":924,"x_min":111,"x_max":901,"o":"m 319 436 l 319 174 l 868 174 l 868 0 q 717 -179 717 -81 q 822 -253 717 -253 q 901 -246 860 -253 l 901 -311 q 799 -324 844 -324 q 646 -289 700 -324 q 592 -192 592 -254 q 765 0 592 -79 l 111 0 l 111 1013 l 843 1013 l 843 839 l 319 839 l 319 610 l 804 610 l 804 436 l 319 436 z "},"ę":{"ha":811,"x_min":56,"x_max":756,"o":"m 746 211 q 688 96 729 153 q 607 3 646 39 q 537 -83 568 -33 q 506 -182 506 -133 q 611 -254 506 -254 q 690 -246 650 -254 l 690 -311 q 581 -325 636 -325 q 434 -289 488 -325 q 381 -190 381 -253 q 410 -105 381 -143 q 513 -15 439 -67 q 399 -33 447 -33 q 148 71 240 -33 q 56 356 56 175 q 149 653 56 544 q 403 763 242 763 q 524 743 467 763 q 636 680 582 724 q 723 551 690 636 q 756 347 756 465 q 754 314 756 331 l 251 314 q 288 167 256 218 q 407 115 319 115 q 554 211 517 115 l 746 211 m 553 443 q 506 570 546 526 q 401 614 467 614 q 253 443 272 614 l 553 443 z "},"Ě":{"ha":924,"x_min":111,"x_max":868,"o":"m 549 1083 l 400 1083 l 257 1250 l 379 1250 l 479 1167 l 579 1250 l 699 1250 l 549 1083 m 319 436 l 319 174 l 868 174 l 868 0 l 111 0 l 111 1013 l 843 1013 l 843 839 l 319 839 l 319 610 l 804 610 l 804 436 l 319 436 z "},"ě":{"ha":810,"x_min":56,"x_max":754,"o":"m 460 843 l 311 843 l 168 1051 l 276 1051 l 390 917 l 504 1051 l 610 1051 l 460 843 m 403 763 q 497 751 451 763 q 591 711 543 740 q 674 637 639 682 q 732 517 710 592 q 754 347 754 443 q 753 314 754 331 l 250 314 q 258 240 251 271 q 280 178 264 208 q 327 133 296 149 q 406 117 358 117 q 554 211 517 117 l 746 211 q 619 34 714 100 q 399 -32 525 -32 q 147 72 239 -32 q 56 356 56 175 q 149 653 56 544 q 403 763 242 763 m 551 443 q 506 569 544 525 q 400 614 468 614 q 253 443 272 614 l 551 443 z "},"Ĝ":{"ha":1068,"x_min":56,"x_max":985,"o":"m 475 1250 l 624 1250 l 767 1083 l 644 1083 l 544 1167 l 444 1083 l 325 1083 l 475 1250 m 789 692 q 547 854 733 854 q 340 761 415 854 q 264 504 264 668 q 345 249 264 349 q 553 149 426 149 q 598 153 572 149 q 660 173 624 158 q 726 211 696 188 q 781 277 757 235 q 810 374 804 319 l 579 374 l 579 547 l 985 547 l 985 0 l 860 0 l 835 133 q 704 10 776 49 q 529 -29 632 -29 q 190 121 324 -29 q 56 501 56 271 q 192 885 56 738 q 546 1032 328 1032 q 847 940 729 1032 q 985 692 965 849 l 789 692 z "},"ĝ":{"ha":850,"x_min":56,"x_max":760,"o":"m 356 1097 l 504 1097 l 647 889 l 539 889 l 425 1028 l 311 889 l 206 889 l 356 1097 m 575 750 l 760 750 l 760 -25 q 666 -230 760 -157 q 403 -303 572 -303 q 163 -245 253 -303 q 71 -90 72 -187 l 272 -90 q 410 -178 296 -178 q 529 -135 483 -178 q 575 -25 575 -93 l 575 76 q 474 -8 521 15 q 363 -32 428 -32 q 140 75 224 -32 q 56 357 56 182 q 144 647 56 531 q 367 763 233 763 q 575 635 492 763 l 575 750 m 408 600 q 294 533 338 600 q 250 360 250 467 q 293 194 250 258 q 406 131 336 131 q 530 194 482 131 q 578 360 578 258 q 530 532 578 464 q 408 600 482 600 z "},"Ğ":{"ha":1068,"x_min":56,"x_max":985,"o":"m 722 1250 l 722 1235 q 669 1104 722 1157 q 539 1051 617 1051 q 408 1104 461 1051 q 356 1236 356 1157 l 356 1250 l 433 1250 q 540 1158 446 1158 q 644 1250 629 1158 l 722 1250 m 789 692 q 547 854 733 854 q 340 761 415 854 q 264 504 264 668 q 345 249 264 349 q 553 149 426 149 q 598 153 572 149 q 660 173 624 158 q 726 211 696 188 q 781 277 757 235 q 810 374 804 319 l 579 374 l 579 547 l 985 547 l 985 0 l 860 0 l 835 133 q 704 10 776 49 q 529 -29 632 -29 q 190 121 324 -29 q 56 501 56 271 q 192 885 56 738 q 546 1032 328 1032 q 847 940 729 1032 q 985 692 965 849 l 789 692 z "},"ğ":{"ha":850,"x_min":56,"x_max":760,"o":"m 610 1039 l 610 1024 q 557 893 610 946 q 426 840 504 840 q 296 893 349 840 q 243 1025 243 946 l 243 1039 l 321 1039 q 428 947 333 947 q 532 1039 517 947 l 610 1039 m 575 750 l 760 750 l 760 -25 q 666 -230 760 -157 q 403 -303 572 -303 q 163 -245 253 -303 q 71 -90 72 -187 l 272 -90 q 410 -178 296 -178 q 529 -135 483 -178 q 575 -25 575 -93 l 575 76 q 474 -8 521 15 q 363 -32 428 -32 q 140 75 224 -32 q 56 357 56 182 q 144 647 56 531 q 367 763 233 763 q 575 635 492 763 l 575 750 m 408 600 q 294 533 338 600 q 250 360 250 467 q 293 194 250 258 q 406 131 336 131 q 530 194 482 131 q 578 360 578 258 q 530 532 578 464 q 408 600 482 600 z "},"Ġ":{"ha":1068,"x_min":56,"x_max":985,"o":"m 629 1250 l 629 1081 l 476 1081 l 476 1250 l 629 1250 m 789 692 q 547 854 733 854 q 340 761 415 854 q 264 504 264 668 q 345 249 264 349 q 553 149 426 149 q 598 153 572 149 q 660 173 624 158 q 726 211 696 188 q 781 277 757 235 q 810 374 804 319 l 579 374 l 579 547 l 985 547 l 985 0 l 860 0 l 835 133 q 704 10 776 49 q 529 -29 632 -29 q 190 121 324 -29 q 56 501 56 271 q 192 885 56 738 q 546 1032 328 1032 q 847 940 729 1032 q 985 692 965 849 l 789 692 z "},"ġ":{"ha":850,"x_min":56,"x_max":760,"o":"m 517 1058 l 517 889 l 364 889 l 364 1058 l 517 1058 m 575 750 l 760 750 l 760 -25 q 666 -230 760 -157 q 403 -303 572 -303 q 163 -245 253 -303 q 71 -90 72 -187 l 272 -90 q 410 -178 296 -178 q 529 -135 483 -178 q 575 -25 575 -93 l 575 76 q 474 -8 521 15 q 363 -32 428 -32 q 140 75 224 -32 q 56 357 56 182 q 144 647 56 531 q 367 763 233 763 q 575 635 492 763 l 575 750 m 408 600 q 294 533 338 600 q 250 360 250 467 q 293 194 250 258 q 406 131 336 131 q 530 194 482 131 q 578 360 578 258 q 530 532 578 464 q 408 600 482 600 z "},"Ģ":{"ha":1068,"x_min":56,"x_max":985,"o":"m 444 -94 l 614 -94 l 614 -244 q 565 -365 614 -314 q 444 -417 517 -415 l 444 -353 q 516 -312 494 -343 q 538 -243 538 -281 l 444 -243 l 444 -94 m 789 692 q 547 854 733 854 q 340 761 415 854 q 264 504 264 668 q 345 249 264 349 q 553 149 426 149 q 598 153 572 149 q 660 173 624 158 q 726 211 696 188 q 781 277 757 235 q 810 374 804 319 l 579 374 l 579 547 l 985 547 l 985 0 l 860 0 l 835 133 q 704 10 776 49 q 529 -29 632 -29 q 190 121 324 -29 q 56 501 56 271 q 192 885 56 738 q 546 1032 328 1032 q 847 940 729 1032 q 985 692 965 849 l 789 692 z "},"ģ":{"ha":850,"x_min":56,"x_max":760,"o":"m 501 860 l 332 860 l 332 1010 q 381 1130 332 1079 q 501 1182 429 1181 l 501 1118 q 430 1077 451 1108 q 408 1008 408 1046 l 501 1008 l 501 860 m 575 750 l 760 750 l 760 -25 q 666 -230 760 -157 q 403 -303 572 -303 q 163 -245 253 -303 q 71 -90 72 -187 l 272 -90 q 410 -178 296 -178 q 529 -135 483 -178 q 575 -25 575 -93 l 575 76 q 474 -8 521 15 q 363 -32 428 -32 q 140 75 224 -32 q 56 357 56 182 q 144 647 56 531 q 367 763 233 763 q 575 635 492 763 l 575 750 m 408 600 q 294 533 338 600 q 250 360 250 467 q 293 194 250 258 q 406 131 336 131 q 530 194 482 131 q 578 360 578 258 q 530 532 578 464 q 408 600 482 600 z "},"Ĥ":{"ha":1040,"x_min":111,"x_max":929,"o":"m 432 1250 l 581 1250 l 724 1083 l 601 1083 l 501 1167 l 401 1083 l 282 1083 l 432 1250 m 721 460 l 319 460 l 319 0 l 111 0 l 111 1013 l 319 1013 l 319 633 l 719 633 l 719 1013 l 929 1013 l 929 0 l 721 0 l 721 460 z "},"ĥ":{"ha":839,"x_min":90,"x_max":749,"o":"m 393 1250 l 542 1250 l 685 1042 l 576 1042 l 463 1181 l 349 1042 l 243 1042 l 393 1250 m 554 458 q 435 597 554 597 q 327 556 369 597 q 285 450 285 514 l 285 0 l 90 0 l 90 1013 l 285 1013 l 285 642 q 504 763 365 763 q 588 751 549 763 q 666 712 628 739 q 726 631 704 685 q 749 503 749 576 l 749 0 l 554 0 l 554 458 z "},"Ħ":{"ha":1013,"x_min":14,"x_max":999,"o":"m 915 832 l 999 832 l 999 739 l 915 739 l 915 0 l 707 0 l 707 460 l 306 460 l 306 0 l 97 0 l 97 739 l 14 739 l 14 832 l 97 832 l 97 1013 l 306 1013 l 306 832 l 706 832 l 706 1013 l 915 1013 l 915 832 m 706 739 l 306 739 l 306 633 l 706 633 l 706 739 z "},"ħ":{"ha":842,"x_min":11,"x_max":751,"o":"m 557 458 q 438 597 557 597 q 330 556 372 597 q 288 450 288 514 l 288 0 l 93 0 l 93 828 l 11 828 l 11 921 l 93 921 l 93 1013 l 288 1013 l 288 921 l 474 921 l 474 828 l 288 828 l 288 642 q 507 763 368 763 q 591 751 551 763 q 669 712 631 739 q 729 631 707 685 q 751 503 751 576 l 751 0 l 557 0 l 557 458 z "},"Ĩ":{"ha":431,"x_min":-31,"x_max":461,"o":"m 374 1250 l 461 1250 q 329 1074 453 1074 q 253 1090 296 1074 l 154 1126 q 113 1135 129 1135 q 75 1120 88 1135 q 57 1072 63 1106 l -31 1072 q 8 1199 -26 1153 q 100 1244 43 1244 q 178 1226 128 1244 l 276 1192 q 324 1183 296 1183 q 374 1250 368 1183 m 335 1013 l 335 0 l 126 0 l 126 1013 l 335 1013 z "},"ĩ":{"ha":417,"x_min":-37,"x_max":454,"o":"m 367 1067 l 454 1067 q 322 890 446 890 q 246 907 289 890 l 147 943 q 106 951 122 951 q 68 937 81 951 q 50 889 56 922 l -37 889 q 1 1015 -33 969 q 93 1061 36 1061 q 171 1043 121 1061 l 269 1008 q 317 1000 289 1000 q 367 1067 361 1000 m 307 750 l 307 0 l 113 0 l 113 750 l 307 750 z "},"Ī":{"ha":431,"x_min":21,"x_max":400,"o":"m 399 1221 l 399 1111 l 22 1111 l 22 1221 l 399 1221 m 319 1013 l 319 0 l 111 0 l 111 1013 l 319 1013 z "},"ī":{"ha":389,"x_min":10,"x_max":371,"o":"m 371 971 l 371 861 l 11 861 l 11 971 l 371 971 m 292 750 l 292 0 l 97 0 l 97 750 l 292 750 z "},"Ĭ":{"ha":431,"x_min":32,"x_max":399,"o":"m 399 1250 l 399 1235 q 346 1104 399 1157 q 215 1051 293 1051 q 85 1104 138 1051 q 32 1236 32 1157 l 32 1250 l 110 1250 q 217 1158 122 1158 q 321 1250 306 1158 l 399 1250 m 319 1013 l 319 0 l 111 0 l 111 1013 l 319 1013 z "},"ĭ":{"ha":417,"x_min":21,"x_max":388,"o":"m 388 1088 l 388 1072 q 335 942 388 994 q 204 889 282 889 q 74 942 126 889 q 21 1074 21 994 l 21 1088 l 99 1088 q 206 996 111 996 q 310 1088 294 996 l 388 1088 m 306 750 l 306 0 l 111 0 l 111 750 l 306 750 z "},"Į":{"ha":431,"x_min":68,"x_max":350,"o":"m 317 1013 l 317 0 q 193 -182 193 -89 q 217 -233 193 -212 q 281 -253 242 -253 q 350 -246 313 -253 l 350 -311 q 253 -324 296 -324 q 117 -287 167 -324 q 68 -189 68 -251 q 225 0 68 -83 l 108 0 l 108 1013 l 317 1013 z "},"į":{"ha":389,"x_min":49,"x_max":322,"o":"m 174 -178 q 200 -236 174 -219 q 261 -253 226 -253 q 322 -246 282 -253 l 322 -311 q 235 -324 267 -324 q 99 -287 149 -324 q 49 -189 49 -251 q 201 0 49 -90 l 94 0 l 94 750 l 289 750 l 289 0 q 174 -178 174 -81 m 289 1013 l 289 839 l 94 839 l 94 1013 l 289 1013 z "},"İ":{"ha":431,"x_min":111,"x_max":319,"o":"m 296 1250 l 296 1081 l 143 1081 l 143 1250 l 296 1250 m 319 1013 l 319 0 l 111 0 l 111 1013 l 319 1013 z "},"ı":{"ha":389,"x_min":97,"x_max":292,"o":"m 292 750 l 292 0 l 97 0 l 97 750 l 292 750 z "},"Ĳ":{"ha":864,"x_min":111,"x_max":753,"o":"m 319 1013 l 319 500 l 111 500 l 111 1013 l 319 1013 m 428 -32 q 319 -18 371 -32 q 218 28 267 -4 q 140 124 169 61 q 111 275 111 188 l 111 375 l 319 375 l 319 278 q 346 177 319 208 q 432 146 372 146 q 515 176 486 146 q 544 264 544 207 l 544 1013 l 753 1013 l 753 264 q 668 45 753 122 q 428 -32 583 -32 z "},"ĳ":{"ha":761,"x_min":97,"x_max":664,"o":"m 664 750 l 664 -131 q 624 -262 664 -222 q 493 -303 583 -303 q 378 -296 443 -303 l 378 -140 q 413 -146 396 -146 q 457 -133 444 -146 q 469 -87 469 -119 l 469 750 l 664 750 m 664 1013 l 664 839 l 469 839 l 469 1013 l 664 1013 m 292 750 l 292 0 l 97 0 l 97 750 l 292 750 m 292 1013 l 292 839 l 97 839 l 97 1013 l 292 1013 z "},"Ĵ":{"ha":794,"x_min":42,"x_max":683,"o":"m 299 1250 l 447 1250 l 590 1083 l 468 1083 l 368 1167 l 268 1083 l 149 1083 l 299 1250 m 358 -32 q 249 -18 301 -32 q 149 28 197 -4 q 71 124 100 61 q 42 275 42 188 l 42 375 l 250 375 l 250 278 q 276 177 250 208 q 363 146 303 146 q 446 176 417 146 q 475 264 475 207 l 475 1013 l 683 1013 l 683 264 q 599 45 683 122 q 358 -32 514 -32 z "},"ĵ":{"ha":389,"x_min":-26,"x_max":415,"o":"m 124 1086 l 272 1086 l 415 878 l 307 878 l 193 1017 l 79 878 l -26 878 l 124 1086 m 292 750 l 292 -131 q 251 -262 292 -222 q 121 -303 211 -303 q 6 -296 71 -303 l 6 -140 q 40 -146 24 -146 q 85 -133 72 -146 q 97 -87 97 -119 l 97 750 l 292 750 z "},"Ķ":{"ha":1011,"x_min":111,"x_max":1004,"o":"m 444 -94 l 614 -94 l 614 -244 q 565 -365 614 -314 q 444 -417 517 -415 l 444 -353 q 516 -312 494 -343 q 538 -243 538 -281 l 444 -243 l 444 -94 m 319 339 l 319 0 l 111 0 l 111 1013 l 319 1013 l 319 568 l 715 1013 l 961 1013 l 557 576 l 1004 0 l 756 0 l 424 447 l 319 339 z "},"ķ":{"ha":783,"x_min":90,"x_max":769,"o":"m 296 -94 l 465 -94 l 465 -244 q 417 -365 465 -314 q 296 -417 368 -415 l 296 -353 q 367 -312 346 -343 q 389 -243 389 -281 l 296 -243 l 296 -94 m 285 458 l 531 750 l 751 750 l 496 467 l 769 0 l 542 0 l 363 331 l 285 246 l 285 0 l 90 0 l 90 1013 l 285 1013 l 285 458 z "},"ĸ":{"ha":776,"x_min":97,"x_max":776,"o":"m 292 488 l 517 750 l 722 750 l 425 411 l 776 0 l 524 0 l 292 275 l 292 0 l 97 0 l 97 750 l 292 750 l 292 488 z "},"Ĺ":{"ha":860,"x_min":111,"x_max":804,"o":"m 449 1250 l 232 1083 l 121 1083 l 260 1250 l 449 1250 m 319 1013 l 319 174 l 804 174 l 804 0 l 111 0 l 111 1013 l 319 1013 z "},"ĺ":{"ha":375,"x_min":58,"x_max":386,"o":"m 386 1250 l 169 1083 l 58 1083 l 197 1250 l 386 1250 m 285 1013 l 285 0 l 90 0 l 90 1013 l 285 1013 z "},"Ļ":{"ha":860,"x_min":111,"x_max":804,"o":"m 376 -94 l 546 -94 l 546 -244 q 497 -365 546 -314 q 376 -417 449 -415 l 376 -353 q 448 -312 426 -343 q 469 -243 469 -281 l 376 -243 l 376 -94 m 319 1013 l 319 174 l 804 174 l 804 0 l 111 0 l 111 1013 l 319 1013 z "},"ļ":{"ha":375,"x_min":90,"x_max":285,"o":"m 100 -94 l 269 -94 l 269 -244 q 221 -365 269 -314 q 100 -417 172 -415 l 100 -353 q 172 -312 150 -343 q 193 -243 193 -281 l 100 -243 l 100 -94 m 285 1013 l 285 0 l 90 0 l 90 1013 l 285 1013 z "},"Ľ":{"ha":860,"x_min":111,"x_max":804,"o":"m 510 1028 l 681 1028 l 515 822 l 418 822 l 510 1028 m 319 1013 l 319 174 l 804 174 l 804 0 l 111 0 l 111 1013 l 319 1013 z "},"ľ":{"ha":614,"x_min":90,"x_max":611,"o":"m 440 1028 l 611 1028 l 446 822 l 349 822 l 440 1028 m 285 1013 l 285 0 l 90 0 l 90 1013 l 285 1013 z "},"Ŀ":{"ha":860,"x_min":111,"x_max":804,"o":"m 619 614 l 792 614 l 792 443 l 619 443 l 619 614 m 319 1013 l 319 174 l 804 174 l 804 0 l 111 0 l 111 1013 l 319 1013 z "},"ŀ":{"ha":611,"x_min":90,"x_max":576,"o":"m 404 594 l 576 594 l 576 424 l 404 424 l 404 594 m 285 1013 l 285 0 l 90 0 l 90 1013 l 285 1013 z "},"Ł":{"ha":885,"x_min":14,"x_max":843,"o":"m 333 588 l 563 743 l 563 621 l 333 464 l 333 174 l 843 174 l 843 0 l 125 0 l 125 357 l 14 279 l 14 403 l 125 481 l 125 1013 l 333 1013 l 333 588 z "},"ł":{"ha":386,"x_min":14,"x_max":364,"o":"m 286 614 l 364 669 l 364 560 l 286 504 l 286 0 l 92 0 l 92 408 l 14 353 l 14 463 l 92 518 l 92 1013 l 286 1013 l 286 614 z "},"Ń":{"ha":1046,"x_min":111,"x_max":935,"o":"m 713 1250 l 496 1083 l 385 1083 l 524 1250 l 713 1250 m 726 0 l 319 700 l 319 0 l 111 0 l 111 1013 l 325 1013 l 726 324 l 726 1013 l 935 1013 l 935 0 l 726 0 z "},"ń":{"ha":851,"x_min":90,"x_max":761,"o":"m 613 1051 l 438 843 l 340 843 l 438 1051 l 613 1051 m 90 750 l 285 750 l 285 642 q 510 763 365 763 q 695 694 629 763 q 761 503 761 626 l 761 0 l 567 0 l 567 463 q 442 597 567 597 q 328 557 371 597 q 285 450 285 517 l 285 0 l 90 0 l 90 750 z "},"Ņ":{"ha":1046,"x_min":111,"x_max":935,"o":"m 444 -94 l 614 -94 l 614 -244 q 565 -365 614 -314 q 444 -417 517 -415 l 444 -353 q 516 -312 494 -343 q 538 -243 538 -281 l 444 -243 l 444 -94 m 726 0 l 319 700 l 319 0 l 111 0 l 111 1013 l 325 1013 l 726 324 l 726 1013 l 935 1013 l 935 0 l 726 0 z "},"ņ":{"ha":851,"x_min":90,"x_max":761,"o":"m 333 -94 l 503 -94 l 503 -244 q 454 -365 503 -314 q 333 -417 406 -415 l 333 -353 q 405 -312 383 -343 q 426 -243 426 -281 l 333 -243 l 333 -94 m 90 750 l 285 750 l 285 642 q 510 763 365 763 q 695 694 629 763 q 761 503 761 626 l 761 0 l 567 0 l 567 463 q 442 597 567 597 q 328 557 371 597 q 285 450 285 517 l 285 0 l 90 0 l 90 750 z "},"Ň":{"ha":1046,"x_min":111,"x_max":935,"o":"m 579 1083 l 431 1083 l 288 1250 l 410 1250 l 510 1167 l 610 1250 l 729 1250 l 579 1083 m 726 0 l 319 700 l 319 0 l 111 0 l 111 1013 l 325 1013 l 726 324 l 726 1013 l 935 1013 l 935 0 l 726 0 z "},"ň":{"ha":851,"x_min":90,"x_max":761,"o":"m 488 843 l 339 843 l 196 1051 l 304 1051 l 418 917 l 532 1051 l 638 1051 l 488 843 m 90 750 l 285 750 l 285 642 q 510 763 365 763 q 695 694 629 763 q 761 503 761 626 l 761 0 l 567 0 l 567 463 q 442 597 567 597 q 328 557 371 597 q 285 450 285 517 l 285 0 l 90 0 l 90 750 z "},"ŉ":{"ha":974,"x_min":46,"x_max":886,"o":"m 46 1039 l 215 1039 l 215 896 q 167 755 215 811 q 46 696 119 699 l 46 760 q 113 799 93 769 q 133 883 133 829 l 46 883 l 46 1039 m 215 750 l 410 750 l 410 642 q 635 763 490 763 q 820 694 754 763 q 886 503 886 626 l 886 0 l 692 0 l 692 463 q 567 597 692 597 q 453 557 496 597 q 410 450 410 517 l 410 0 l 215 0 l 215 750 z "},"Ŋ":{"ha":1044,"x_min":111,"x_max":989,"o":"m 610 -22 q 553 -19 581 -22 q 510 -12 525 -15 q 481 -4 496 -8 q 465 0 467 0 l 465 171 q 515 161 469 171 q 599 151 561 151 q 725 257 669 151 q 781 543 781 363 q 772 657 781 607 q 749 740 763 707 q 714 795 736 772 q 672 829 692 818 q 625 847 653 840 q 581 854 597 853 q 538 856 564 856 q 383 788 446 856 q 319 610 319 719 l 319 0 l 111 0 l 111 1013 l 319 1013 l 319 906 q 424 1003 364 978 q 572 1029 483 1029 q 669 1015 617 1029 q 779 966 722 1000 q 883 883 836 932 q 959 757 929 833 q 989 589 989 681 q 956 305 989 428 q 866 113 922 182 q 745 11 810 44 q 610 -22 681 -22 z "},"ŋ":{"ha":851,"x_min":90,"x_max":761,"o":"m 90 750 l 285 750 l 285 642 q 510 763 365 763 q 695 694 629 763 q 761 503 761 626 l 761 -131 q 721 -262 761 -222 q 590 -303 681 -303 q 475 -296 540 -303 l 475 -140 q 510 -146 493 -146 q 554 -133 542 -146 q 567 -87 567 -119 l 567 463 q 442 597 567 597 q 328 557 371 597 q 285 450 285 517 l 285 0 l 90 0 l 90 750 z "},"Ō":{"ha":1086,"x_min":56,"x_max":1031,"o":"m 751 1221 l 751 1111 l 336 1111 l 336 1221 l 751 1221 m 189 117 q 122 191 189 117 q 56 499 56 265 q 190 881 56 732 q 542 1029 324 1029 q 896 881 761 1029 q 1031 492 1031 733 q 898 117 1031 267 q 543 -32 765 -32 q 189 117 322 -32 m 543 851 q 340 755 417 851 q 264 499 264 658 q 340 242 264 339 q 543 146 417 146 q 745 242 668 146 q 822 493 822 338 q 747 754 822 657 q 543 851 671 851 z "},"ō":{"ha":853,"x_min":56,"x_max":797,"o":"m 626 971 l 626 861 l 211 861 l 211 971 l 626 971 m 425 763 q 699 656 601 763 q 797 360 797 550 q 697 74 797 179 q 426 -32 597 -32 q 154 74 253 -32 q 56 365 56 181 q 154 656 56 550 q 425 763 253 763 m 426 606 q 299 539 347 606 q 250 365 250 472 q 299 192 250 258 q 426 125 347 125 q 553 191 504 125 q 603 363 603 257 q 555 540 603 474 q 426 606 507 606 z "},"Ŏ":{"ha":1086,"x_min":56,"x_max":1031,"o":"m 724 1250 l 724 1235 q 671 1104 724 1157 q 540 1051 618 1051 q 410 1104 463 1051 q 357 1236 357 1157 l 357 1250 l 435 1250 q 542 1158 447 1158 q 646 1250 631 1158 l 724 1250 m 189 117 q 122 191 189 117 q 56 499 56 265 q 190 881 56 732 q 542 1029 324 1029 q 896 881 761 1029 q 1031 492 1031 733 q 898 117 1031 267 q 543 -32 765 -32 q 189 117 322 -32 m 543 851 q 340 755 417 851 q 264 499 264 658 q 340 242 264 339 q 543 146 417 146 q 745 242 668 146 q 822 493 822 338 q 747 754 822 657 q 543 851 671 851 z "},"ŏ":{"ha":853,"x_min":56,"x_max":797,"o":"m 603 1088 l 603 1072 q 550 942 603 994 q 419 889 497 889 q 289 942 342 889 q 236 1074 236 994 l 236 1088 l 314 1088 q 421 996 326 996 q 525 1088 510 996 l 603 1088 m 425 763 q 699 656 601 763 q 797 360 797 550 q 697 74 797 179 q 426 -32 597 -32 q 154 74 253 -32 q 56 365 56 181 q 154 656 56 550 q 425 763 253 763 m 426 606 q 299 539 347 606 q 250 365 250 472 q 299 192 250 258 q 426 125 347 125 q 553 191 504 125 q 603 363 603 257 q 555 540 603 474 q 426 606 507 606 z "},"Ő":{"ha":1086,"x_min":56,"x_max":1031,"o":"m 189 117 q 122 191 189 117 q 56 499 56 265 q 190 881 56 732 q 542 1029 324 1029 q 896 881 761 1029 q 1031 492 1031 733 q 898 117 1031 267 q 543 -32 765 -32 q 189 117 322 -32 m 543 851 q 340 755 417 851 q 264 499 264 658 q 340 242 264 339 q 543 146 417 146 q 745 242 668 146 q 822 493 822 338 q 747 754 822 657 q 543 851 671 851 z "},"ő":{"ha":853,"x_min":56,"x_max":797,"o":"m 515 1051 l 340 847 l 243 847 l 340 1051 l 515 1051 m 776 1051 l 601 847 l 504 847 l 601 1051 l 776 1051 m 425 763 q 699 656 601 763 q 797 360 797 550 q 697 74 797 179 q 426 -32 597 -32 q 154 74 253 -32 q 56 365 56 181 q 154 656 56 550 q 425 763 253 763 m 426 606 q 299 539 347 606 q 250 365 250 472 q 299 192 250 258 q 426 125 347 125 q 553 191 504 125 q 603 363 603 257 q 555 540 603 474 q 426 606 507 606 z "},"Œ":{"ha":1406,"x_min":56,"x_max":1364,"o":"m 883 436 l 883 174 l 1364 174 l 1364 0 l 683 0 l 683 82 q 585 -7 632 18 q 468 -32 539 -32 q 172 117 288 -32 q 56 499 56 267 q 172 881 56 733 q 474 1029 289 1029 q 587 1009 540 1029 q 683 940 633 989 l 683 1013 l 1338 1013 l 1338 839 l 883 839 l 883 610 l 1299 610 l 1299 436 l 883 436 m 675 247 l 675 750 q 511 851 617 851 q 332 755 400 851 q 264 499 264 658 q 332 243 264 340 q 510 146 400 146 q 675 247 617 146 z "},"œ":{"ha":1357,"x_min":56,"x_max":1301,"o":"m 797 314 q 956 117 801 117 q 1047 143 1007 117 q 1101 211 1088 169 l 1293 211 q 1165 34 1260 100 q 946 -32 1071 -32 q 697 72 789 -32 q 426 -32 592 -32 q 154 74 253 -32 q 56 365 56 181 q 154 656 56 550 q 426 763 253 763 q 697 657 596 763 q 947 763 788 763 q 1044 751 997 763 q 1138 711 1090 740 q 1222 637 1186 682 q 1279 517 1257 592 q 1301 347 1301 443 q 1300 314 1301 331 l 797 314 m 426 606 q 299 539 347 606 q 250 365 250 472 q 299 192 250 258 q 426 125 347 125 q 553 191 504 125 q 603 363 603 257 q 555 540 603 474 q 426 606 507 606 m 1099 443 q 1052 570 1090 526 q 949 614 1014 614 q 800 443 815 614 l 1099 443 z "},"Ŕ":{"ha":1003,"x_min":111,"x_max":940,"o":"m 713 1250 l 496 1083 l 385 1083 l 524 1250 l 713 1250 m 685 174 q 686 239 685 215 q 688 281 688 263 q 657 373 688 344 q 558 401 626 401 l 319 401 l 319 0 l 111 0 l 111 1013 l 654 1013 q 788 986 732 1013 q 873 917 844 960 q 914 830 901 874 q 926 739 926 786 q 756 489 926 556 q 811 465 793 474 q 848 435 829 456 q 873 397 867 414 q 885 336 879 381 q 893 249 892 292 q 896 121 894 206 q 940 38 896 63 l 940 0 l 717 0 q 691 69 697 36 q 685 174 685 103 m 718 710 q 682 813 718 788 q 571 839 646 839 l 319 839 l 319 575 l 571 575 q 681 601 644 575 q 718 710 718 628 z "},"ŕ":{"ha":544,"x_min":90,"x_max":517,"o":"m 485 1051 l 310 843 l 213 843 l 310 1051 l 485 1051 m 90 750 l 285 750 l 285 603 q 371 721 315 679 q 493 763 426 763 q 517 761 506 763 l 517 564 q 456 569 482 569 q 285 399 285 569 l 285 0 l 90 0 l 90 750 z "},"Ŗ":{"ha":1003,"x_min":111,"x_max":940,"o":"m 432 -94 l 601 -94 l 601 -244 q 553 -365 601 -314 q 432 -417 504 -415 l 432 -353 q 503 -312 482 -343 q 525 -243 525 -281 l 432 -243 l 432 -94 m 685 174 q 686 239 685 215 q 688 281 688 263 q 657 373 688 344 q 558 401 626 401 l 319 401 l 319 0 l 111 0 l 111 1013 l 654 1013 q 788 986 732 1013 q 873 917 844 960 q 914 830 901 874 q 926 739 926 786 q 756 489 926 556 q 811 465 793 474 q 848 435 829 456 q 873 397 867 414 q 885 336 879 381 q 893 249 892 292 q 896 121 894 206 q 940 38 896 63 l 940 0 l 717 0 q 691 69 697 36 q 685 174 685 103 m 718 710 q 682 813 718 788 q 571 839 646 839 l 319 839 l 319 575 l 571 575 q 681 601 644 575 q 718 710 718 628 z "},"ŗ":{"ha":544,"x_min":90,"x_max":517,"o":"m 117 -94 l 286 -94 l 286 -244 q 238 -365 286 -314 q 117 -417 189 -415 l 117 -353 q 188 -312 167 -343 q 210 -243 210 -281 l 117 -243 l 117 -94 m 90 750 l 285 750 l 285 603 q 371 721 315 679 q 493 763 426 763 q 517 761 506 763 l 517 564 q 456 569 482 569 q 285 399 285 569 l 285 0 l 90 0 l 90 750 z "},"Ř":{"ha":1003,"x_min":111,"x_max":940,"o":"m 569 1083 l 421 1083 l 278 1250 l 400 1250 l 500 1167 l 600 1250 l 719 1250 l 569 1083 m 685 174 q 686 239 685 215 q 688 281 688 263 q 657 373 688 344 q 558 401 626 401 l 319 401 l 319 0 l 111 0 l 111 1013 l 654 1013 q 788 986 732 1013 q 873 917 844 960 q 914 830 901 874 q 926 739 926 786 q 756 489 926 556 q 811 465 793 474 q 848 435 829 456 q 873 397 867 414 q 885 336 879 381 q 893 249 892 292 q 896 121 894 206 q 940 38 896 63 l 940 0 l 717 0 q 691 69 697 36 q 685 174 685 103 m 718 710 q 682 813 718 788 q 571 839 646 839 l 319 839 l 319 575 l 571 575 q 681 601 644 575 q 718 710 718 628 z "},"ř":{"ha":544,"x_min":76,"x_max":518,"o":"m 368 843 l 219 843 l 76 1051 l 185 1051 l 299 917 l 413 1051 l 518 1051 l 368 843 m 90 750 l 285 750 l 285 603 q 371 721 315 679 q 493 763 426 763 q 517 761 506 763 l 517 564 q 456 569 482 569 q 285 399 285 569 l 285 0 l 90 0 l 90 750 z "},"Ś":{"ha":946,"x_min":56,"x_max":890,"o":"m 657 1250 l 440 1083 l 329 1083 l 468 1250 l 657 1250 m 854 704 l 660 704 q 447 863 649 863 q 319 828 367 863 q 272 738 272 794 q 313 655 272 682 q 464 606 353 628 l 622 575 q 826 481 763 547 q 890 296 890 415 q 781 55 890 142 q 475 -32 671 -32 q 173 54 281 -32 q 56 303 65 140 l 258 303 q 322 178 264 221 q 486 135 381 135 q 635 171 581 135 q 690 271 690 207 q 647 365 690 332 q 500 418 604 399 l 358 446 q 139 538 204 475 q 74 718 74 600 q 174 948 74 867 q 457 1029 275 1029 q 559 1022 510 1029 q 664 994 608 1015 q 760 938 719 972 q 827 844 800 904 q 854 704 854 783 z "},"ś":{"ha":772,"x_min":42,"x_max":724,"o":"m 568 1051 l 393 843 l 296 843 l 393 1051 l 568 1051 m 232 218 q 272 146 242 171 q 385 121 301 121 q 491 140 453 121 q 529 194 529 160 q 515 231 529 217 q 464 256 500 244 l 232 328 q 215 333 231 328 q 194 340 200 338 q 171 349 188 343 q 145 363 154 356 q 122 380 136 369 q 101 403 108 390 q 85 431 93 415 q 72 468 76 447 q 68 513 68 489 q 151 695 68 628 q 376 763 233 763 q 614 695 528 763 q 703 508 700 628 l 515 508 q 375 610 514 610 q 293 591 324 610 q 263 540 263 572 q 276 506 263 518 q 331 482 290 494 l 576 411 q 724 222 724 368 q 708 138 724 179 q 659 57 693 97 q 557 -8 625 17 q 396 -32 489 -32 q 42 218 50 -32 l 232 218 z "},"Ŝ":{"ha":946,"x_min":56,"x_max":890,"o":"m 396 1250 l 544 1250 l 688 1083 l 565 1083 l 465 1167 l 365 1083 l 246 1083 l 396 1250 m 854 704 l 660 704 q 447 863 649 863 q 319 828 367 863 q 272 738 272 794 q 313 655 272 682 q 464 606 353 628 l 622 575 q 826 481 763 547 q 890 296 890 415 q 781 55 890 142 q 475 -32 671 -32 q 173 54 281 -32 q 56 303 65 140 l 258 303 q 322 178 264 221 q 486 135 381 135 q 635 171 581 135 q 690 271 690 207 q 647 365 690 332 q 500 418 604 399 l 358 446 q 139 538 204 475 q 74 718 74 600 q 174 948 74 867 q 457 1029 275 1029 q 559 1022 510 1029 q 664 994 608 1015 q 760 938 719 972 q 827 844 800 904 q 854 704 854 783 z "},"ŝ":{"ha":772,"x_min":42,"x_max":724,"o":"m 317 1097 l 465 1097 l 608 889 l 500 889 l 386 1028 l 272 889 l 167 889 l 317 1097 m 232 218 q 272 146 242 171 q 385 121 301 121 q 491 140 453 121 q 529 194 529 160 q 515 231 529 217 q 464 256 500 244 l 232 328 q 215 333 231 328 q 194 340 200 338 q 171 349 188 343 q 145 363 154 356 q 122 380 136 369 q 101 403 108 390 q 85 431 93 415 q 72 468 76 447 q 68 513 68 489 q 151 695 68 628 q 376 763 233 763 q 614 695 528 763 q 703 508 700 628 l 515 508 q 375 610 514 610 q 293 591 324 610 q 263 540 263 572 q 276 506 263 518 q 331 482 290 494 l 576 411 q 724 222 724 368 q 708 138 724 179 q 659 57 693 97 q 557 -8 625 17 q 396 -32 489 -32 q 42 218 50 -32 l 232 218 z "},"Ş":{"ha":946,"x_min":56,"x_max":890,"o":"m 483 -32 l 460 -86 q 517 -78 490 -78 q 595 -104 567 -78 q 624 -176 624 -131 q 577 -272 624 -239 q 444 -306 531 -306 q 253 -267 365 -306 l 279 -194 q 425 -236 374 -236 q 481 -219 458 -236 q 504 -179 504 -203 q 485 -144 504 -157 q 433 -131 465 -131 q 365 -147 400 -131 l 424 -32 q 156 68 246 -14 q 56 303 67 150 l 258 303 q 322 178 264 221 q 486 135 381 135 q 635 171 581 135 q 690 271 690 207 q 647 365 690 332 q 500 418 604 399 l 358 446 q 139 538 204 475 q 74 718 74 600 q 174 948 74 867 q 457 1029 275 1029 q 559 1022 510 1029 q 664 994 608 1015 q 760 938 719 972 q 827 844 800 904 q 854 704 854 783 l 660 704 q 447 863 649 863 q 319 828 367 863 q 272 738 272 794 q 313 655 272 682 q 464 606 353 628 l 622 575 q 826 481 763 547 q 890 297 890 415 q 483 -32 890 -12 z "},"ş":{"ha":772,"x_min":42,"x_max":724,"o":"m 232 218 q 272 146 242 171 q 385 121 301 121 q 491 140 453 121 q 529 194 529 160 q 515 231 529 217 q 464 256 500 244 l 232 328 q 215 333 231 328 q 194 340 200 338 q 171 349 188 343 q 145 363 154 356 q 122 380 136 369 q 101 403 108 390 q 85 431 93 415 q 72 468 76 447 q 68 513 68 489 q 151 695 68 628 q 376 763 233 763 q 614 695 528 763 q 703 508 700 628 l 515 508 q 375 610 514 610 q 293 591 324 610 q 263 540 263 572 q 276 506 263 518 q 331 482 290 494 l 576 411 q 724 222 724 368 q 639 39 724 110 q 419 -32 554 -32 l 394 -32 l 368 -87 q 426 -78 397 -78 q 503 -104 475 -78 q 532 -176 532 -131 q 486 -272 532 -239 q 354 -306 440 -306 q 161 -267 276 -306 l 188 -194 q 333 -236 283 -236 q 390 -219 367 -236 q 413 -179 413 -203 q 393 -144 413 -157 q 342 -131 374 -131 q 274 -147 308 -131 l 333 -31 q 116 46 185 -12 q 42 218 47 104 l 232 218 z "},"Š":{"ha":946,"x_min":56,"x_max":890,"o":"m 524 1083 l 375 1083 l 232 1250 l 354 1250 l 454 1167 l 554 1250 l 674 1250 l 524 1083 m 854 704 l 660 704 q 447 863 649 863 q 319 828 367 863 q 272 738 272 794 q 313 655 272 682 q 464 606 353 628 l 622 575 q 826 481 763 547 q 890 296 890 415 q 781 55 890 142 q 475 -32 671 -32 q 173 54 281 -32 q 56 303 65 140 l 258 303 q 322 178 264 221 q 486 135 381 135 q 635 171 581 135 q 690 271 690 207 q 647 365 690 332 q 500 418 604 399 l 358 446 q 139 538 204 475 q 74 718 74 600 q 174 948 74 867 q 457 1029 275 1029 q 559 1022 510 1029 q 664 994 608 1015 q 760 938 719 972 q 827 844 800 904 q 854 704 854 783 z "},"š":{"ha":772,"x_min":42,"x_max":724,"o":"m 461 843 l 313 843 l 169 1051 l 278 1051 l 392 917 l 506 1051 l 611 1051 l 461 843 m 232 218 q 272 146 242 171 q 385 121 301 121 q 491 140 453 121 q 529 194 529 160 q 515 231 529 217 q 464 256 500 244 l 232 328 q 215 333 231 328 q 194 340 200 338 q 171 349 188 343 q 145 363 154 356 q 122 380 136 369 q 101 403 108 390 q 85 431 93 415 q 72 468 76 447 q 68 513 68 489 q 151 695 68 628 q 376 763 233 763 q 614 695 528 763 q 703 508 700 628 l 515 508 q 375 610 514 610 q 293 591 324 610 q 263 540 263 572 q 276 506 263 518 q 331 482 290 494 l 576 411 q 724 222 724 368 q 708 138 724 179 q 659 57 693 97 q 557 -8 625 17 q 396 -32 489 -32 q 42 218 50 -32 l 232 218 z "},"Ţ":{"ha":894,"x_min":42,"x_max":853,"o":"m 557 839 l 557 0 l 515 0 l 475 -87 q 533 -78 504 -78 q 610 -104 582 -78 q 639 -176 639 -131 q 592 -272 639 -239 q 460 -306 546 -306 q 268 -267 383 -306 l 294 -194 q 440 -236 390 -236 q 497 -219 474 -236 q 519 -179 519 -203 q 500 -144 519 -157 q 449 -131 481 -131 q 381 -147 415 -131 l 456 0 l 349 0 l 349 839 l 42 839 l 42 1013 l 853 1013 l 853 839 l 557 839 z "},"ţ":{"ha":463,"x_min":19,"x_max":453,"o":"m 418 735 l 418 606 l 310 606 l 310 197 q 322 131 310 147 q 374 115 335 115 q 418 119 389 115 l 418 -17 q 328 -32 376 -29 l 289 -117 q 347 -107 318 -107 q 424 -133 396 -107 q 453 -206 453 -160 q 406 -301 453 -268 q 274 -335 360 -335 q 82 -296 197 -335 l 108 -224 q 254 -265 204 -265 q 310 -249 288 -265 q 333 -208 333 -232 q 314 -173 333 -186 q 263 -160 294 -160 q 194 -176 229 -160 l 269 -31 q 115 144 115 -14 l 115 606 l 19 606 l 19 735 l 115 735 l 115 936 l 310 936 l 310 735 l 418 735 z "},"Ť":{"ha":894,"x_min":42,"x_max":853,"o":"m 496 1083 l 347 1083 l 204 1250 l 326 1250 l 426 1167 l 526 1250 l 646 1250 l 496 1083 m 557 839 l 557 0 l 349 0 l 349 839 l 42 839 l 42 1013 l 853 1013 l 853 839 l 557 839 z "},"ť":{"ha":668,"x_min":29,"x_max":667,"o":"m 496 1028 l 667 1028 l 501 822 l 404 822 l 496 1028 m 428 735 l 428 606 l 319 606 l 319 197 q 332 131 319 147 q 383 115 344 115 q 428 119 399 115 l 428 -17 q 315 -32 381 -32 q 125 144 125 -32 l 125 606 l 29 606 l 29 735 l 125 735 l 125 936 l 319 936 l 319 735 l 428 735 z "},"Ŧ":{"ha":894,"x_min":42,"x_max":853,"o":"m 189 422 l 189 596 l 349 596 l 349 839 l 42 839 l 42 1013 l 853 1013 l 853 839 l 557 839 l 557 596 l 710 596 l 710 422 l 557 422 l 557 0 l 349 0 l 349 422 l 189 422 z "},"ŧ":{"ha":463,"x_min":13,"x_max":418,"o":"m 418 735 l 418 606 l 310 606 l 310 433 l 411 433 l 411 304 l 310 304 l 310 197 q 322 131 310 147 q 374 115 335 115 q 418 119 389 115 l 418 -17 q 306 -32 371 -32 q 115 144 115 -32 l 115 304 l 13 304 l 13 433 l 115 433 l 115 606 l 19 606 l 19 735 l 115 735 l 115 936 l 310 936 l 310 735 l 418 735 z "},"Ũ":{"ha":1025,"x_min":111,"x_max":914,"o":"m 672 1250 l 760 1250 q 628 1074 751 1074 q 551 1090 594 1074 l 453 1126 q 411 1135 428 1135 q 374 1120 386 1135 q 356 1072 361 1106 l 268 1072 q 307 1199 272 1153 q 399 1244 342 1244 q 476 1226 426 1244 l 575 1192 q 622 1183 594 1183 q 672 1250 667 1183 m 620 -22 q 594 -27 620 -22 q 513 -32 568 -32 q 405 -22 457 -32 q 298 13 353 -12 q 203 76 243 38 q 137 180 163 115 q 111 326 111 244 l 111 1013 l 319 1013 l 319 326 q 513 146 319 146 q 706 326 706 146 l 706 1013 l 914 1013 l 914 326 q 888 180 914 244 q 822 76 863 115 q 727 13 782 38 q 620 -22 672 -12 z "},"ũ":{"ha":851,"x_min":90,"x_max":761,"o":"m 575 1067 l 663 1067 q 531 890 654 890 q 454 907 497 890 l 356 943 q 314 951 331 951 q 276 937 289 951 q 258 889 264 922 l 171 889 q 210 1015 175 969 q 301 1061 244 1061 q 379 1043 329 1061 l 478 1008 q 525 1000 497 1000 q 575 1067 569 1000 m 761 0 l 567 0 l 567 89 q 342 -32 486 -32 q 156 36 222 -32 q 90 228 90 104 l 90 750 l 285 750 l 285 268 q 410 133 285 133 q 524 174 481 133 q 567 281 567 214 l 567 750 l 761 750 l 761 0 z "},"Ū":{"ha":1025,"x_min":111,"x_max":914,"o":"m 715 1221 l 715 1111 l 300 1111 l 300 1221 l 715 1221 m 620 -22 q 594 -27 620 -22 q 513 -32 568 -32 q 405 -22 457 -32 q 298 13 353 -12 q 203 76 243 38 q 137 180 163 115 q 111 326 111 244 l 111 1013 l 319 1013 l 319 326 q 513 146 319 146 q 706 326 706 146 l 706 1013 l 914 1013 l 914 326 q 888 180 914 244 q 822 76 863 115 q 727 13 782 38 q 620 -22 672 -12 z "},"ū":{"ha":851,"x_min":90,"x_max":761,"o":"m 624 971 l 624 861 l 208 861 l 208 971 l 624 971 m 761 0 l 567 0 l 567 89 q 342 -32 486 -32 q 156 36 222 -32 q 90 228 90 104 l 90 750 l 285 750 l 285 268 q 410 133 285 133 q 524 174 481 133 q 567 281 567 214 l 567 750 l 761 750 l 761 0 z "},"Ŭ":{"ha":1025,"x_min":111,"x_max":914,"o":"m 688 1250 l 688 1235 q 635 1104 688 1157 q 504 1051 582 1051 q 374 1104 426 1051 q 321 1236 321 1157 l 321 1250 l 399 1250 q 506 1158 411 1158 q 610 1250 594 1158 l 688 1250 m 620 -22 q 594 -27 620 -22 q 513 -32 568 -32 q 405 -22 457 -32 q 298 13 353 -12 q 203 76 243 38 q 137 180 163 115 q 111 326 111 244 l 111 1013 l 319 1013 l 319 326 q 513 146 319 146 q 706 326 706 146 l 706 1013 l 914 1013 l 914 326 q 888 180 914 244 q 822 76 863 115 q 727 13 782 38 q 620 -22 672 -12 z "},"ŭ":{"ha":851,"x_min":90,"x_max":761,"o":"m 599 1088 l 599 1072 q 546 942 599 994 q 415 889 493 889 q 285 942 338 889 q 232 1074 232 994 l 232 1088 l 310 1088 q 417 996 322 996 q 521 1088 506 996 l 599 1088 m 761 0 l 567 0 l 567 89 q 342 -32 486 -32 q 156 36 222 -32 q 90 228 90 104 l 90 750 l 285 750 l 285 268 q 410 133 285 133 q 524 174 481 133 q 567 281 567 214 l 567 750 l 761 750 l 761 0 z "},"Ů":{"ha":1025,"x_min":111,"x_max":914,"o":"m 508 1318 q 596 1281 560 1318 q 632 1192 632 1244 q 595 1104 632 1140 q 507 1068 558 1068 q 419 1104 456 1068 q 382 1193 382 1140 q 419 1282 382 1246 q 508 1318 456 1318 m 508 1251 q 466 1234 483 1251 q 449 1193 449 1217 q 466 1152 449 1169 q 508 1135 483 1135 q 549 1152 532 1135 q 565 1193 565 1169 q 549 1234 565 1217 q 508 1251 532 1251 m 620 -22 q 594 -27 620 -22 q 513 -32 568 -32 q 405 -22 457 -32 q 298 13 353 -12 q 203 76 243 38 q 137 180 163 115 q 111 326 111 244 l 111 1013 l 319 1013 l 319 326 q 513 146 319 146 q 706 326 706 146 l 706 1013 l 914 1013 l 914 326 q 888 180 914 244 q 822 76 863 115 q 727 13 782 38 q 620 -22 672 -12 z "},"ů":{"ha":851,"x_min":90,"x_max":761,"o":"m 417 1069 q 504 1033 468 1069 q 540 943 540 996 q 503 856 540 892 q 415 819 467 819 q 327 856 364 819 q 290 944 290 892 q 327 1033 290 997 q 417 1069 364 1069 m 417 1003 q 374 985 392 1003 q 357 944 357 968 q 374 903 357 921 q 417 886 392 886 q 457 903 440 886 q 474 944 474 921 q 457 985 474 968 q 417 1003 440 1003 m 761 0 l 567 0 l 567 89 q 342 -32 486 -32 q 156 36 222 -32 q 90 228 90 104 l 90 750 l 285 750 l 285 268 q 410 133 285 133 q 524 174 481 133 q 567 281 567 214 l 567 750 l 761 750 l 761 0 z "},"Ű":{"ha":1025,"x_min":111,"x_max":914,"o":"m 620 -22 q 594 -27 620 -22 q 513 -32 568 -32 q 405 -22 457 -32 q 298 13 353 -12 q 203 76 243 38 q 137 180 163 115 q 111 326 111 244 l 111 1013 l 319 1013 l 319 326 q 513 146 319 146 q 706 326 706 146 l 706 1013 l 914 1013 l 914 326 q 888 180 914 244 q 822 76 863 115 q 727 13 782 38 q 620 -22 672 -12 z "},"ű":{"ha":851,"x_min":90,"x_max":775,"o":"m 514 1051 l 339 847 l 242 847 l 339 1051 l 514 1051 m 775 1051 l 600 847 l 503 847 l 600 1051 l 775 1051 m 761 0 l 567 0 l 567 89 q 342 -32 486 -32 q 156 36 222 -32 q 90 228 90 104 l 90 750 l 285 750 l 285 268 q 410 133 285 133 q 524 174 481 133 q 567 281 567 214 l 567 750 l 761 750 l 761 0 z "},"Ų":{"ha":1025,"x_min":111,"x_max":914,"o":"m 914 326 q 886 176 914 243 q 819 66 858 110 q 742 -15 781 22 q 675 -95 703 -53 q 647 -183 647 -137 q 754 -254 647 -254 q 835 -246 794 -254 l 835 -311 q 724 -325 781 -325 q 635 -315 676 -325 q 558 -273 593 -304 q 524 -192 524 -242 q 556 -101 524 -142 q 668 -10 589 -60 q 517 -32 586 -32 q 377 -15 443 -32 q 249 39 311 1 q 149 151 186 76 q 111 326 111 225 l 111 1013 l 319 1013 l 319 326 q 513 146 319 146 q 706 326 706 146 l 706 1013 l 914 1013 l 914 326 z "},"ų":{"ha":849,"x_min":81,"x_max":783,"o":"m 472 -192 q 491 -117 472 -151 q 541 -59 510 -82 q 597 -23 572 -36 q 646 0 621 -10 l 557 0 l 557 89 q 332 -32 476 -32 q 147 36 213 -32 q 81 228 81 104 l 81 750 l 275 750 l 275 268 q 400 133 275 133 q 514 174 471 133 q 557 281 557 214 l 557 750 l 751 750 l 751 0 q 597 -179 597 -78 q 703 -253 597 -253 q 783 -246 739 -253 l 783 -311 q 679 -324 733 -324 q 526 -289 581 -324 q 472 -192 472 -254 z "},"Ŵ":{"ha":1332,"x_min":28,"x_max":1304,"o":"m 586 1250 l 735 1250 l 878 1083 l 756 1083 l 656 1167 l 556 1083 l 436 1083 l 586 1250 m 1024 0 l 836 0 l 667 790 l 501 0 l 314 0 l 28 1013 l 249 1013 l 406 254 l 563 1013 l 768 1013 l 932 253 l 1083 1013 l 1304 1013 l 1024 0 z "},"ŵ":{"ha":1085,"x_min":14,"x_max":1071,"o":"m 464 1097 l 613 1097 l 756 889 l 647 889 l 533 1028 l 419 889 l 314 889 l 464 1097 m 858 0 l 657 0 l 544 529 l 425 0 l 225 0 l 14 750 l 215 750 l 335 225 l 449 750 l 643 750 l 756 225 l 869 750 l 1071 750 l 858 0 z "},"Ŷ":{"ha":893,"x_min":14,"x_max":879,"o":"m 396 1250 l 544 1250 l 688 1083 l 565 1083 l 465 1167 l 365 1083 l 246 1083 l 396 1250 m 558 372 l 558 -3 l 350 -3 l 350 372 l 14 1010 l 246 1010 l 453 563 l 646 1010 l 879 1010 l 558 372 z "},"ŷ":{"ha":763,"x_min":14,"x_max":749,"o":"m 308 1097 l 457 1097 l 600 889 l 492 889 l 378 1028 l 264 889 l 158 889 l 308 1097 m 293 -36 l 293 -31 l 14 750 l 228 750 l 393 204 l 549 750 l 749 750 l 440 -137 q 435 -156 440 -139 q 426 -180 429 -174 q 415 -203 422 -186 q 399 -228 407 -221 q 376 -251 390 -236 q 345 -273 363 -265 q 306 -289 328 -281 q 254 -301 283 -297 q 190 -304 225 -304 q 121 -299 160 -304 l 121 -153 q 172 -161 151 -161 q 258 -125 224 -161 q 293 -36 293 -89 z "},"Ÿ":{"ha":893,"x_min":14,"x_max":879,"o":"m 660 1250 l 660 1081 l 507 1081 l 507 1250 l 660 1250 m 388 1250 l 388 1081 l 235 1081 l 235 1250 l 388 1250 m 558 375 l 558 0 l 350 0 l 350 375 l 14 1013 l 246 1013 l 453 565 l 646 1013 l 879 1013 l 558 375 z "},"Ź":{"ha":844,"x_min":42,"x_max":803,"o":"m 643 1250 l 426 1083 l 315 1083 l 454 1250 l 643 1250 m 803 1013 l 803 839 l 286 174 l 803 174 l 803 0 l 42 0 l 42 174 l 560 839 l 42 839 l 42 1013 l 803 1013 z "},"ź":{"ha":704,"x_min":42,"x_max":663,"o":"m 538 1051 l 363 843 l 265 843 l 363 1051 l 538 1051 m 650 750 l 650 593 l 282 157 l 663 157 l 663 0 l 42 0 l 42 157 l 413 593 l 67 593 l 67 750 l 650 750 z "},"Ż":{"ha":844,"x_min":42,"x_max":803,"o":"m 504 1250 l 504 1081 l 351 1081 l 351 1250 l 504 1250 m 803 1013 l 803 839 l 286 174 l 803 174 l 803 0 l 42 0 l 42 174 l 560 839 l 42 839 l 42 1013 l 803 1013 z "},"ż":{"ha":704,"x_min":42,"x_max":663,"o":"m 425 1032 l 425 863 l 272 863 l 272 1032 l 425 1032 m 650 750 l 650 593 l 282 157 l 663 157 l 663 0 l 42 0 l 42 157 l 413 593 l 67 593 l 67 750 l 650 750 z "},"Ž":{"ha":844,"x_min":42,"x_max":803,"o":"m 496 1083 l 347 1083 l 204 1250 l 326 1250 l 426 1167 l 526 1250 l 646 1250 l 496 1083 m 803 1013 l 803 839 l 286 174 l 803 174 l 803 0 l 42 0 l 42 174 l 560 839 l 42 839 l 42 1013 l 803 1013 z "},"ž":{"ha":704,"x_min":42,"x_max":663,"o":"m 419 843 l 271 843 l 128 1051 l 236 1051 l 350 917 l 464 1051 l 569 1051 l 419 843 m 650 750 l 650 593 l 282 157 l 663 157 l 663 0 l 42 0 l 42 157 l 413 593 l 67 593 l 67 750 l 650 750 z "},"ſ":{"ha":463,"x_min":19,"x_max":428,"o":"m 319 0 l 125 0 l 125 606 l 19 606 l 19 735 l 125 735 l 125 825 q 317 1013 125 1013 q 428 1008 374 1013 l 428 863 q 372 867 403 867 q 319 808 319 867 l 319 0 z "},"ƀ":{"ha":863,"x_min":7,"x_max":807,"o":"m 567 534 q 544 567 567 534 q 449 600 521 600 q 331 535 376 600 q 285 368 285 471 q 330 196 285 261 q 449 131 375 131 q 567 196 521 131 q 613 364 613 261 q 567 534 613 468 m 492 763 q 717 651 626 763 q 807 365 807 539 q 717 82 807 196 q 492 -32 626 -32 q 285 76 354 -32 l 285 0 l 90 0 l 90 828 l 7 828 l 7 921 l 90 921 l 90 1013 l 285 1013 l 285 921 l 469 921 l 469 828 l 285 828 l 285 653 q 492 763 354 763 z "},"Ɓ":{"ha":1254,"x_min":56,"x_max":1199,"o":"m 596 436 l 596 174 l 844 174 q 999 304 999 174 q 844 436 999 436 l 596 436 m 596 839 l 596 610 l 822 610 q 969 724 969 610 q 822 839 969 839 l 596 839 m 310 439 q 116 518 176 439 q 56 722 56 597 q 133 937 56 861 q 351 1013 210 1013 l 839 1013 q 1002 985 933 1013 q 1105 913 1071 957 q 1154 828 1139 869 q 1169 746 1169 786 q 1138 633 1169 681 q 1031 538 1106 585 q 1199 292 1199 439 q 1182 194 1199 242 q 1128 101 1165 147 q 1018 28 1092 56 q 843 0 944 0 l 388 0 l 388 804 l 338 804 q 233 714 233 804 q 257 647 233 674 q 310 619 281 619 l 310 439 z "},"Ƃ":{"ha":943,"x_min":88,"x_max":899,"o":"m 899 308 q 882 203 899 253 q 828 105 865 153 q 718 28 792 57 q 543 0 644 0 l 88 0 l 88 1013 l 799 1013 l 799 839 l 296 839 l 296 643 l 522 643 q 679 617 610 643 q 789 554 749 592 q 855 469 829 517 q 890 382 881 421 q 899 308 899 343 m 296 469 l 296 174 l 544 174 q 658 215 618 174 q 699 321 699 256 q 658 428 699 388 q 544 469 618 469 l 296 469 z "},"ƃ":{"ha":883,"x_min":111,"x_max":828,"o":"m 588 534 q 565 567 588 534 q 469 600 542 600 q 351 535 397 600 q 306 368 306 471 q 351 196 306 261 q 469 131 396 131 q 588 196 542 131 q 633 364 633 261 q 588 534 633 468 m 513 763 q 738 651 647 763 q 828 365 828 539 q 738 82 828 196 q 513 -32 647 -32 q 306 76 375 -32 l 306 0 l 111 0 l 111 1013 l 638 1013 l 638 839 l 306 839 l 306 653 q 513 763 375 763 z "},"Ƅ":{"ha":958,"x_min":0,"x_max":908,"o":"m 343 1013 l 343 651 l 603 651 q 825 560 742 651 q 908 314 908 468 q 824 81 908 161 q 582 0 740 0 l 135 0 l 135 650 l 0 754 l 343 1013 m 343 478 l 343 174 l 538 174 q 660 211 621 174 q 700 326 700 249 q 538 478 700 478 l 343 478 z "},"ƅ":{"ha":907,"x_min":0,"x_max":851,"o":"m 611 534 q 588 567 611 534 q 493 600 565 600 q 375 535 421 600 q 329 368 329 471 q 374 196 329 261 q 493 131 419 131 q 611 196 565 131 q 657 364 657 261 q 611 534 657 468 m 536 763 q 761 651 671 763 q 851 365 851 539 q 761 82 851 196 q 536 -32 671 -32 q 329 76 399 -32 l 329 0 l 135 0 l 135 685 l 0 797 l 329 1013 l 329 653 q 536 763 399 763 z "},"Ɔ":{"ha":1001,"x_min":56,"x_max":946,"o":"m 258 328 q 475 146 297 146 q 668 240 599 146 q 738 503 738 335 q 670 761 738 668 q 482 854 603 854 q 326 801 385 854 q 258 651 268 749 l 56 651 q 182 927 65 825 q 488 1029 299 1029 q 822 887 699 1029 q 946 500 946 744 q 821 111 946 254 q 482 -32 696 -32 q 188 64 303 -32 q 60 328 74 160 l 258 328 z "},"Ƈ":{"ha":1047,"x_min":56,"x_max":1021,"o":"m 743 669 q 526 851 704 851 q 333 757 403 851 q 264 494 264 663 q 331 236 264 329 q 519 143 399 143 q 681 197 619 143 q 743 346 743 251 l 946 346 q 826 71 946 174 q 514 -32 706 -32 q 179 110 303 -32 q 56 497 56 253 q 181 886 56 743 q 519 1029 306 1029 q 761 968 658 1029 q 906 1039 790 1039 q 1021 1032 956 1039 l 1021 876 q 1000 882 1003 882 q 955 869 968 882 q 942 824 942 856 l 942 669 l 743 669 z "},"ƈ":{"ha":851,"x_min":56,"x_max":824,"o":"m 408 606 q 250 360 250 606 q 292 188 250 250 q 408 125 335 125 q 497 156 465 125 q 547 260 529 188 l 733 260 q 631 47 719 125 q 407 -32 543 -32 q 148 71 240 -32 q 56 360 56 174 q 149 657 56 551 q 410 763 242 763 q 578 725 507 763 q 717 775 615 775 q 824 768 758 775 l 824 613 q 789 618 806 618 q 744 605 757 618 q 732 560 732 592 l 733 469 l 547 469 q 499 574 531 543 q 408 606 468 606 z "},"Ɖ":{"ha":1029,"x_min":28,"x_max":974,"o":"m 135 471 l 28 471 l 28 582 l 135 582 l 135 1013 l 531 1013 q 726 985 651 1013 q 851 896 801 958 q 942 722 910 825 q 974 507 974 619 q 941 292 974 394 q 851 118 908 190 q 726 28 801 56 q 531 0 650 0 l 135 0 l 135 471 m 774 506 q 711 762 774 685 q 531 839 649 839 l 343 839 l 343 582 l 551 582 l 551 471 l 343 471 l 343 174 l 531 174 q 709 247 644 174 q 774 506 774 321 z "},"Ɗ":{"ha":1282,"x_min":56,"x_max":1226,"o":"m 596 174 l 783 174 q 1018 506 1018 174 q 783 839 1018 839 l 596 839 l 596 174 m 310 439 q 116 518 176 439 q 56 722 56 597 q 133 937 56 861 q 351 1013 210 1013 l 783 1013 q 1103 896 1006 1013 q 1226 507 1226 747 q 1103 118 1226 263 q 783 0 1004 0 l 388 0 l 388 804 l 338 803 q 233 714 233 803 q 257 647 233 674 q 310 619 281 619 l 310 439 z "},"Ƌ":{"ha":1003,"x_min":72,"x_max":883,"o":"m 72 308 q 81 382 72 343 q 116 469 90 421 q 182 554 142 517 q 292 617 222 592 q 449 643 361 643 l 675 643 l 675 839 l 172 839 l 172 1013 l 883 1013 l 883 0 l 428 0 q 253 28 326 0 q 142 105 179 57 q 89 203 106 153 q 72 308 72 253 m 675 469 l 426 469 q 313 428 353 469 q 272 321 272 388 q 313 215 272 256 q 426 174 353 174 l 675 174 l 675 469 z "},"ƌ":{"ha":863,"x_min":56,"x_max":772,"o":"m 532 535 q 509 568 532 535 q 414 600 486 600 q 296 534 342 600 q 250 364 250 468 q 296 196 250 261 q 414 131 342 131 q 533 196 488 131 q 578 368 578 261 q 532 535 578 471 m 371 763 q 578 653 508 763 l 578 839 l 246 839 l 246 1013 l 772 1013 l 772 0 l 578 0 l 578 76 q 371 -32 508 -32 q 146 82 236 -32 q 56 365 56 196 q 146 651 56 539 q 371 763 236 763 z "},"ƍ":{"ha":864,"x_min":1,"x_max":754,"o":"m 389 589 q 288 569 329 589 q 228 517 247 550 q 201 451 208 483 q 193 382 193 418 q 201 317 193 347 q 226 253 208 286 q 284 200 244 219 q 381 181 324 181 q 510 239 460 181 q 560 383 560 297 q 389 589 560 589 m 754 394 q 731 248 754 313 q 678 147 708 183 q 606 85 647 111 q 537 49 564 58 q 483 35 510 40 l 704 -111 l 704 -254 l 82 -254 l 82 -96 l 383 -96 l 226 10 q 214 18 222 13 q 164 53 183 39 q 110 102 144 68 q 55 172 75 136 q 18 263 35 207 q 1 383 1 319 q 31 569 1 493 q 116 685 61 644 q 237 742 171 725 q 389 760 303 760 q 481 752 436 760 q 576 720 525 744 q 666 658 628 696 q 729 551 704 619 q 754 394 754 483 z "},"Ǝ":{"ha":924,"x_min":56,"x_max":813,"o":"m 604 436 l 119 436 l 119 610 l 604 610 l 604 839 l 81 839 l 81 1013 l 813 1013 l 813 0 l 56 0 l 56 174 l 604 174 l 604 436 z "},"Ə":{"ha":1086,"x_min":56,"x_max":1031,"o":"m 271 407 q 364 216 292 286 q 543 146 436 146 q 722 217 649 146 q 815 407 796 288 l 271 407 m 543 -32 q 190 117 324 -32 q 56 499 56 267 q 61 581 56 546 l 269 581 l 815 581 q 724 779 796 707 q 543 851 653 851 q 306 700 381 851 l 88 700 q 206 898 128 821 q 367 1002 285 975 q 542 1029 449 1029 q 896 881 761 1029 q 1031 492 1031 733 q 897 118 1031 268 q 543 -32 764 -32 z "},"Ɛ":{"ha":946,"x_min":56,"x_max":890,"o":"m 872 704 l 678 704 q 465 863 667 863 q 338 828 385 863 q 290 738 290 794 q 482 594 290 594 l 588 594 l 588 428 l 446 428 q 301 383 347 428 q 256 271 256 339 q 310 171 256 207 q 460 135 365 135 q 624 178 565 135 q 688 303 682 221 l 890 303 q 773 54 881 140 q 471 -32 665 -32 q 165 55 275 -32 q 56 296 56 142 q 179 524 56 456 q 92 718 92 589 q 192 948 92 867 q 475 1029 293 1029 q 578 1022 529 1029 q 683 994 626 1015 q 779 938 739 972 q 846 844 819 904 q 872 704 872 783 z "},"Ƒ":{"ha":849,"x_min":28,"x_max":815,"o":"m 313 610 l 756 610 l 756 436 l 314 436 l 314 -131 q 274 -262 314 -222 q 143 -303 233 -303 q 28 -296 93 -303 l 28 -140 q 47 -146 46 -146 q 92 -133 79 -146 q 104 -87 104 -119 l 104 1013 l 815 1013 l 815 839 l 313 839 l 313 610 z "},"ƒ":{"ha":463,"x_min":19,"x_max":435,"o":"m 435 735 l 435 606 l 319 606 l 319 -131 q 279 -262 319 -222 q 149 -303 239 -303 q 33 -296 99 -303 l 33 -140 q 68 -146 51 -146 q 113 -133 100 -146 q 125 -87 125 -119 l 125 606 l 19 606 l 19 735 l 125 735 l 125 825 q 317 1013 125 1013 q 428 1008 374 1013 l 428 863 q 372 867 403 867 q 319 808 319 867 l 319 735 l 435 735 z "},"Ɠ":{"ha":1092,"x_min":56,"x_max":1064,"o":"m 789 689 q 547 851 733 851 q 340 758 415 851 q 264 501 264 665 q 345 246 264 346 q 553 146 426 146 q 737 218 664 146 q 810 371 810 290 l 579 371 l 579 544 l 985 544 l 985 0 l 860 0 l 835 131 q 704 7 776 46 q 529 -32 632 -32 q 190 118 324 -32 q 56 499 56 268 q 192 882 56 735 q 546 1029 328 1029 q 804 967 694 1029 q 949 1039 835 1039 q 1064 1032 999 1039 l 1064 876 q 1043 882 1046 882 q 998 869 1011 882 q 985 824 985 856 l 985 689 l 789 689 z "},"Ɣ":{"ha":913,"x_min":24,"x_max":889,"o":"m 463 189 q 435 139 435 161 q 443 119 435 126 q 463 111 451 111 q 490 139 490 111 q 463 189 490 161 m 568 375 q 642 231 613 304 q 671 113 671 157 q 613 13 671 53 q 463 -28 554 -28 q 310 10 365 -28 q 254 113 254 49 q 360 375 254 206 l 24 1013 l 256 1013 l 463 565 l 656 1013 l 889 1013 l 568 375 z "},"ƕ":{"ha":1318,"x_min":111,"x_max":1228,"o":"m 575 458 q 456 597 575 597 q 348 556 390 597 q 306 450 306 514 l 306 0 l 111 0 l 111 1013 l 306 1013 l 306 642 q 525 763 386 763 q 609 751 569 763 q 687 712 649 739 q 747 631 725 685 q 769 503 769 576 l 769 331 q 796 188 769 231 q 904 146 822 146 q 1008 192 981 146 q 1036 339 1036 239 l 1036 750 l 1228 750 l 1228 294 q 1152 63 1228 149 q 907 -22 1076 -22 q 738 1 806 -22 q 635 69 669 24 q 588 168 601 115 q 575 294 575 221 l 575 458 z "},"Ɩ":{"ha":415,"x_min":90,"x_max":394,"o":"m 275 135 q 279 107 276 111 q 304 104 285 104 q 331 106 319 104 q 350 108 343 107 l 394 121 l 394 -51 l 365 -57 q 265 -67 308 -67 q 136 -26 182 -67 q 90 83 90 14 l 90 1047 l 275 1047 l 275 135 z "},"Ɨ":{"ha":601,"x_min":28,"x_max":574,"o":"m 199 407 l 29 407 l 28 581 l 199 581 l 199 1013 l 407 1013 l 407 581 l 574 581 l 574 407 l 407 407 l 407 0 l 199 0 l 199 407 z "},"Ƙ":{"ha":1089,"x_min":111,"x_max":1089,"o":"m 922 776 q 901 824 922 801 q 850 846 879 846 q 793 825 825 846 l 557 576 l 1004 0 l 756 0 l 424 447 l 319 339 l 319 0 l 111 0 l 111 1013 l 319 1013 l 319 568 l 631 913 q 849 1035 746 1035 q 1021 954 935 1035 q 1077 878 1065 913 q 1089 782 1089 844 q 988 563 1089 671 l 865 676 q 922 776 922 738 z "},"ƙ":{"ha":783,"x_min":90,"x_max":769,"o":"m 285 458 l 531 750 l 751 750 l 496 467 l 769 0 l 542 0 l 363 331 l 285 246 l 285 0 l 90 0 l 90 840 q 131 972 90 932 q 261 1013 171 1013 q 376 1006 311 1013 l 376 850 q 342 856 358 856 q 297 842 310 856 q 285 797 285 829 l 285 458 z "},"ƚ":{"ha":546,"x_min":7,"x_max":539,"o":"m 179 436 l 7 436 l 7 599 l 179 599 l 179 1047 l 365 1047 l 365 599 l 539 599 l 539 436 l 365 436 l 365 -35 l 179 -35 l 179 436 z "},"ƛ":{"ha":833,"x_min":24,"x_max":814,"o":"m 393 464 l 224 -3 l 24 -3 l 271 642 l 69 515 l 69 639 l 282 771 q 242 833 263 818 q 192 847 222 847 q 141 841 169 847 q 82 832 113 835 l 103 1001 q 208 1026 171 1026 q 340 983 290 1026 q 426 860 390 939 l 618 979 l 618 857 l 465 761 l 474 739 l 676 199 q 701 157 692 157 q 768 186 719 157 l 814 31 q 665 -18 721 -18 q 610 -9 633 -18 q 572 19 588 0 q 547 57 556 39 q 526 106 538 75 q 393 464 399 449 z "},"Ɯ":{"ha":1358,"x_min":111,"x_max":1247,"o":"m 1247 0 l 1040 0 l 1040 100 q 939 13 989 39 q 821 -14 889 -14 q 601 106 663 -14 q 367 -14 511 -14 q 178 52 246 -14 q 111 235 111 118 l 111 1013 l 319 1013 l 319 268 q 350 192 319 219 q 432 164 381 164 q 537 206 499 164 q 575 321 575 247 l 575 1013 l 783 1013 l 783 268 q 814 192 783 219 q 896 164 844 164 q 1001 206 964 164 q 1039 321 1039 247 l 1039 1013 l 1247 1013 l 1247 0 z "},"Ɲ":{"ha":1039,"x_min":28,"x_max":928,"o":"m 107 1013 l 318 1013 l 719 324 l 719 1013 l 928 1013 l 928 0 l 719 0 l 314 697 l 314 -131 q 274 -262 314 -222 q 143 -303 233 -303 q 28 -296 93 -303 l 28 -140 q 50 -146 46 -146 q 94 -133 82 -146 q 107 -87 107 -119 l 107 1013 z "},"ƞ":{"ha":851,"x_min":90,"x_max":761,"o":"m 90 750 l 285 750 l 285 642 q 510 763 365 763 q 695 694 629 763 q 761 503 761 626 l 761 -279 l 567 -279 l 567 463 q 442 597 567 597 q 328 557 371 597 q 285 450 285 517 l 285 0 l 90 0 l 90 750 z "},"Ɵ":{"ha":1086,"x_min":56,"x_max":1031,"o":"m 542 1029 q 724 999 642 1029 q 863 916 807 968 q 958 794 919 864 q 1013 648 996 724 q 1031 492 1031 572 q 1018 368 1031 432 q 971 231 1006 304 q 884 101 936 157 q 743 6 832 44 q 543 -32 654 -32 q 322 15 419 -32 q 169 140 225 63 q 84 310 113 218 q 56 499 56 401 q 85 691 56 599 q 172 860 115 783 q 325 983 229 938 q 542 1029 421 1029 m 271 407 q 364 216 292 286 q 543 146 436 146 q 722 217 649 146 q 815 407 796 288 l 271 407 m 815 581 q 724 779 796 707 q 543 851 653 851 q 362 778 435 851 q 269 581 289 706 l 815 581 z "},"Ơ":{"ha":1099,"x_min":56,"x_max":1099,"o":"m 543 851 q 340 755 417 851 q 264 499 264 658 q 340 242 264 339 q 543 146 417 146 q 745 242 668 146 q 822 493 822 338 q 747 754 822 657 q 543 851 671 851 m 189 117 q 122 191 189 117 q 56 499 56 265 q 190 881 56 732 q 542 1029 324 1029 q 731 994 644 1029 q 882 896 818 960 q 906 999 906 936 q 900 1060 906 1025 l 1097 1060 q 1099 1036 1099 1049 q 1056 914 1099 969 q 938 828 1014 858 q 1031 492 1031 689 q 898 117 1031 267 q 543 -32 765 -32 q 189 117 322 -32 z "},"ơ":{"ha":914,"x_min":56,"x_max":914,"o":"m 426 606 q 299 539 347 606 q 250 365 250 472 q 299 192 250 258 q 426 125 347 125 q 553 191 504 125 q 603 363 603 257 q 555 540 603 474 q 426 606 507 606 m 751 581 q 797 360 797 492 q 697 74 797 179 q 426 -32 597 -32 q 154 74 253 -32 q 56 365 56 181 q 154 656 56 550 q 425 763 253 763 q 701 654 601 763 q 721 751 721 689 q 715 813 721 778 l 913 813 q 914 789 914 801 q 872 667 914 722 q 754 581 831 611 l 751 581 z "},"Ƣ":{"ha":1494,"x_min":56,"x_max":1383,"o":"m 543 851 q 340 755 417 851 q 264 499 264 658 q 340 242 264 339 q 543 146 417 146 q 745 242 668 146 q 822 493 822 338 q 747 754 822 657 q 543 851 671 851 m 56 499 q 190 881 56 732 q 542 1029 324 1029 q 854 922 733 1029 q 901 973 879 953 q 974 1013 924 993 q 1090 1033 1025 1033 q 1306 960 1228 1033 q 1383 749 1383 888 l 1383 -278 l 1175 -278 l 1175 749 q 1158 838 1175 810 q 1094 867 1140 867 q 1033 835 1053 867 q 1014 735 1014 804 l 1014 643 q 1031 492 1031 572 q 897 118 1031 268 q 543 -32 764 -32 q 190 117 324 -32 q 56 499 56 267 z "},"ƣ":{"ha":1176,"x_min":56,"x_max":1086,"o":"m 1086 443 l 1086 -303 l 900 -303 l 900 471 q 880 560 900 521 q 829 599 860 599 q 821 598 825 599 q 813 597 817 597 q 806 594 810 596 q 798 590 801 592 q 791 585 794 588 q 784 581 788 583 q 777 576 781 579 q 771 571 774 574 q 765 565 768 568 q 761 560 763 563 q 797 360 797 474 q 697 74 797 179 q 426 -32 597 -32 q 154 74 253 -32 q 56 365 56 181 q 154 656 56 550 q 425 763 253 763 q 706 650 607 763 q 781 731 738 697 q 865 764 825 764 q 1030 674 974 764 q 1086 443 1086 583 m 426 606 q 299 539 347 606 q 250 365 250 472 q 299 192 250 258 q 426 125 347 125 q 553 191 504 125 q 603 363 603 257 q 555 540 603 474 q 426 606 507 606 z "},"Ƥ":{"ha":1217,"x_min":56,"x_max":1161,"o":"m 596 535 l 790 535 q 953 686 953 535 q 913 801 953 764 q 790 839 874 839 l 596 839 l 596 535 m 310 439 q 116 518 176 439 q 56 722 56 597 q 135 939 56 865 q 365 1013 215 1013 l 835 1013 q 1077 932 993 1013 q 1161 699 1161 851 q 1078 453 1161 544 q 856 361 994 361 l 596 361 l 596 0 l 388 0 l 388 804 l 365 804 q 265 783 297 804 q 233 714 233 763 q 257 647 233 674 q 310 619 281 619 l 310 439 z "},"ƥ":{"ha":863,"x_min":90,"x_max":807,"o":"m 567 534 q 545 567 567 534 q 449 600 522 600 q 330 535 375 600 q 285 364 285 469 q 330 194 285 258 q 449 129 375 129 q 567 194 521 129 q 613 361 613 260 q 567 534 613 468 m 493 763 q 721 649 635 763 q 807 364 807 535 q 717 80 807 193 q 493 -33 628 -33 q 285 89 354 -33 l 285 -303 l 90 -303 l 90 783 q 133 915 90 874 q 267 956 175 956 q 374 949 308 956 l 374 793 q 342 799 356 799 q 285 750 285 799 l 285 639 q 493 763 354 763 z "},"Ʀ":{"ha":899,"x_min":111,"x_max":871,"o":"m 319 413 l 489 413 q 572 433 546 413 q 599 500 599 453 q 489 597 599 597 l 319 597 l 319 413 m 319 260 l 319 0 l 111 0 l 111 1013 l 319 1013 l 319 750 l 529 750 q 658 728 604 750 q 740 669 713 706 q 779 597 767 633 q 792 521 792 560 q 771 411 792 463 q 717 331 750 360 q 824 107 824 283 l 824 -128 q 832 -183 824 -161 q 848 -210 840 -204 q 871 -226 856 -217 l 871 -264 l 647 -264 q 615 -118 615 -206 l 615 124 q 567 220 615 181 q 458 260 519 260 l 319 260 z "},"Ƨ":{"ha":946,"x_min":56,"x_max":890,"o":"m 92 704 q 119 844 92 783 q 186 938 146 904 q 282 994 226 972 q 387 1022 338 1015 q 489 1029 436 1029 q 772 948 671 1029 q 872 718 872 867 q 807 538 872 600 q 588 446 742 475 l 446 418 q 299 365 342 399 q 256 271 256 332 q 310 171 256 207 q 460 135 365 135 q 624 178 565 135 q 688 303 682 221 l 890 303 q 773 54 881 140 q 471 -32 665 -32 q 165 55 275 -32 q 56 296 56 142 q 119 481 56 415 q 324 575 183 547 l 482 606 q 633 655 593 628 q 674 738 674 682 q 626 828 674 794 q 499 863 579 863 q 286 704 297 863 l 92 704 z "},"ƨ":{"ha":779,"x_min":49,"x_max":731,"o":"m 540 218 l 731 218 q 376 -32 722 -32 q 215 -8 283 -32 q 113 57 147 17 q 64 138 79 97 q 49 222 49 179 q 196 411 49 368 l 442 482 q 496 506 482 494 q 510 540 510 518 q 479 591 510 572 q 397 610 449 610 q 257 508 258 610 l 69 508 q 158 695 72 628 q 396 763 244 763 q 622 695 539 763 q 704 513 704 628 q 700 468 704 489 q 688 431 696 447 q 672 403 679 415 q 650 380 664 390 q 627 363 636 369 q 601 349 618 356 q 578 340 585 343 q 557 333 572 338 q 540 328 542 328 l 308 256 q 258 231 272 244 q 243 194 243 217 q 281 140 243 160 q 388 121 319 121 q 501 146 471 121 q 540 218 531 171 z "},"Ʃ":{"ha":939,"x_min":83,"x_max":939,"o":"m 653 542 l 343 178 l 939 178 l 939 0 l 83 0 l 83 163 l 401 542 l 131 856 l 131 1013 l 911 1013 l 911 835 l 400 835 q 653 542 400 835 z "},"ƪ":{"ha":613,"x_min":50,"x_max":585,"o":"m 256 872 q 219 858 235 872 q 204 824 204 843 q 219 789 204 804 q 256 774 235 774 q 292 788 276 774 q 307 822 307 803 q 292 858 307 844 q 256 872 278 872 m 256 618 q 110 678 171 618 q 50 824 50 739 q 110 967 50 907 q 256 1028 171 1028 q 405 972 349 1028 q 461 821 461 915 l 461 -64 q 474 -112 461 -100 q 522 -125 486 -125 q 585 -121 525 -125 l 585 -285 l 557 -292 q 511 -296 532 -296 q 338 -247 399 -296 q 276 -110 276 -199 l 276 619 q 256 618 267 618 z "},"ƫ":{"ha":463,"x_min":19,"x_max":418,"o":"m 418 735 l 418 606 l 310 606 l 310 197 q 322 131 310 147 q 374 115 335 115 q 418 119 389 115 l 418 -131 q 378 -262 418 -222 q 247 -303 338 -303 q 132 -296 197 -303 l 132 -140 q 167 -146 150 -146 q 211 -133 199 -146 q 224 -87 224 -119 l 224 -21 q 115 144 115 11 l 115 606 l 19 606 l 19 735 l 115 735 l 115 936 l 310 936 l 310 735 l 418 735 z "},"Ƭ":{"ha":993,"x_min":56,"x_max":965,"o":"m 313 839 q 267 833 285 839 q 242 816 250 828 q 233 792 235 804 q 231 763 231 781 q 233 732 231 743 q 243 708 235 721 q 272 688 251 694 q 326 682 293 682 l 326 508 q 128 574 200 508 q 56 764 56 640 q 118 942 56 872 q 313 1013 181 1013 l 965 1013 l 965 839 l 669 839 l 669 0 l 461 0 l 461 839 l 313 839 z "},"ƭ":{"ha":463,"x_min":19,"x_max":418,"o":"m 418 735 l 418 606 l 310 606 l 310 197 q 322 131 310 147 q 374 115 335 115 q 418 119 389 115 l 418 -17 q 306 -32 371 -32 q 115 144 115 -32 l 115 606 l 19 606 l 19 735 l 115 735 l 115 840 q 156 972 115 932 q 286 1013 196 1013 q 401 1006 336 1013 l 401 850 q 367 856 383 856 q 322 842 335 856 q 310 797 310 829 l 310 735 l 418 735 z "},"Ʈ":{"ha":867,"x_min":28,"x_max":839,"o":"m 335 -131 l 335 839 l 28 839 l 28 1013 l 839 1013 l 839 839 l 543 839 l 543 -87 q 590 -146 543 -146 q 621 -140 599 -146 l 621 -296 q 506 -303 556 -303 q 375 -262 415 -303 q 335 -131 335 -222 z "},"Ư":{"ha":1074,"x_min":111,"x_max":1074,"o":"m 620 -22 q 594 -27 620 -22 q 513 -32 568 -32 q 405 -22 457 -32 q 298 13 353 -12 q 203 76 243 38 q 137 180 163 115 q 111 326 111 244 l 111 1013 l 319 1013 l 319 326 q 513 146 319 146 q 706 326 706 146 l 706 1013 l 710 1013 q 881 1183 881 1013 q 875 1244 881 1210 l 1072 1244 q 1074 1221 1074 1233 q 1032 1099 1074 1154 q 914 1013 990 1043 l 914 326 q 888 180 914 244 q 822 76 863 115 q 727 13 782 38 q 620 -22 672 -12 z "},"ư":{"ha":925,"x_min":90,"x_max":921,"o":"m 761 0 l 567 0 l 567 89 q 342 -32 486 -32 q 156 36 222 -32 q 90 228 90 104 l 90 750 l 285 750 l 285 268 q 410 133 285 133 q 524 174 481 133 q 567 281 567 214 l 567 750 q 690 792 651 750 q 728 921 728 835 q 722 982 728 947 l 919 982 q 921 958 921 971 q 879 836 921 892 q 761 750 838 781 l 761 0 z "},"Ʊ":{"ha":1110,"x_min":0,"x_max":999,"o":"m 199 463 q 283 219 199 317 q 507 121 367 121 q 719 219 638 121 q 800 467 800 318 q 558 828 800 728 l 558 992 l 999 992 l 999 822 l 828 822 q 992 465 992 686 q 935 213 992 329 q 766 24 878 97 q 510 -49 654 -49 q 139 97 278 -49 q 0 460 0 243 q 169 822 0 692 l 3 822 l 3 992 l 458 992 l 458 829 q 199 463 199 725 z "},"Ʋ":{"ha":1003,"x_min":90,"x_max":935,"o":"m 90 338 l 90 1015 l 289 1015 l 289 282 q 334 197 289 228 q 429 167 379 167 q 497 172 464 167 q 565 188 529 176 q 631 221 601 199 q 684 274 660 243 q 722 354 708 306 q 736 464 736 403 l 736 467 q 726 601 736 542 q 687 724 715 661 q 631 831 658 786 q 547 961 604 876 l 513 1015 l 744 1015 l 754 1001 q 892 748 850 872 q 935 481 935 624 q 814 104 935 225 q 471 -17 693 -17 q 90 338 90 -17 z "},"Ƴ":{"ha":1165,"x_min":24,"x_max":1124,"o":"m 892 667 q 918 758 918 721 q 892 812 918 796 q 844 828 865 828 q 756 750 793 828 l 568 375 l 568 0 l 360 0 l 360 375 l 24 1013 l 256 1013 l 463 565 l 579 835 q 822 1013 663 1013 q 928 998 878 1013 q 1024 952 979 983 q 1097 865 1069 921 q 1124 736 1124 810 q 1079 576 1124 672 l 892 667 z "},"ƴ":{"ha":893,"x_min":13,"x_max":886,"o":"m 392 204 l 567 818 q 648 958 590 903 q 772 1014 706 1014 q 886 1008 835 1014 l 885 863 q 828 867 858 867 q 790 844 808 867 q 747 750 772 821 l 479 -14 q 461 -70 472 -32 q 442 -129 450 -108 q 420 -182 435 -150 q 388 -232 406 -214 q 347 -269 371 -250 q 288 -296 322 -287 q 208 -304 253 -304 q 119 -294 165 -304 l 119 -153 q 172 -161 150 -161 q 253 -130 214 -161 q 292 -31 292 -99 l 13 750 l 226 750 l 392 204 z "},"Ƶ":{"ha":849,"x_min":42,"x_max":803,"o":"m 803 1013 l 803 839 l 582 554 l 731 554 l 731 461 l 510 461 l 286 174 l 803 174 l 803 0 l 42 0 l 42 174 l 265 461 l 122 461 l 122 554 l 338 554 l 560 839 l 42 839 l 42 1013 l 803 1013 z "},"ƶ":{"ha":694,"x_min":29,"x_max":650,"o":"m 638 750 l 638 593 l 504 435 l 575 435 l 575 342 l 425 342 l 269 157 l 650 157 l 650 0 l 29 0 l 29 157 l 186 342 l 113 342 l 113 435 l 265 435 l 400 593 l 54 593 l 54 750 l 638 750 z "},"Ʒ":{"ha":788,"x_min":56,"x_max":732,"o":"m 510 546 q 678 444 624 517 q 732 283 732 371 q 638 53 732 139 q 388 -32 544 -32 q 147 55 236 -32 q 56 289 57 142 l 244 289 q 392 135 253 135 q 497 176 456 135 q 538 283 538 218 q 508 377 538 338 q 431 431 479 417 q 317 440 392 440 l 317 571 l 467 839 l 113 839 l 113 1013 l 669 1013 l 669 839 l 510 546 z "},"Ƹ":{"ha":772,"x_min":40,"x_max":717,"o":"m 40 283 q 94 442 40 368 q 263 546 147 517 l 103 839 l 103 1013 l 660 1013 l 660 839 l 306 839 l 456 571 l 456 440 q 342 431 381 440 q 264 377 293 417 q 235 283 235 338 q 276 176 235 218 q 381 135 317 135 q 528 289 519 135 l 717 289 q 626 55 715 142 q 385 -32 536 -32 q 134 53 228 -32 q 40 283 40 139 z "},"ƹ":{"ha":896,"x_min":47,"x_max":849,"o":"m 289 407 l 108 590 l 108 728 l 790 728 l 790 557 l 379 557 l 567 401 l 567 250 l 447 250 q 293 213 339 250 q 247 107 247 176 q 261 51 247 75 q 301 11 275 26 q 364 -12 328 -4 q 447 -21 400 -21 q 593 11 543 -21 q 650 124 643 43 l 651 189 l 849 189 l 846 119 q 828 21 842 65 q 792 -59 815 -24 q 738 -121 769 -94 q 663 -165 706 -147 q 568 -190 621 -182 q 451 -199 515 -199 q 155 -115 261 -199 q 49 108 49 -32 q 110 303 49 228 q 289 407 171 379 z "},"ƺ":{"ha":790,"x_min":42,"x_max":735,"o":"m 735 150 q 637 -53 735 25 q 389 -132 539 -132 q 360 -129 378 -132 q 325 -122 343 -126 q 290 -112 307 -117 q 258 -106 274 -108 q 235 -103 243 -103 q 224 -108 224 -103 q 263 -157 224 -132 q 346 -182 301 -182 q 590 -132 460 -182 l 624 -118 l 678 -281 l 647 -292 q 570 -319 594 -311 q 479 -340 546 -328 q 346 -353 413 -353 q 121 -274 200 -353 q 42 -83 42 -194 q 47 -38 42 -60 q 69 8 53 -17 q 121 47 85 32 q 210 61 157 61 q 317 50 253 61 q 389 39 381 39 q 498 66 440 39 q 556 143 556 93 q 505 220 556 190 q 375 250 454 250 l 274 250 l 274 401 l 433 592 l 67 592 l 67 763 l 679 763 l 679 613 l 511 407 q 678 316 622 382 q 735 150 735 250 z "},"ƻ":{"ha":804,"x_min":28,"x_max":763,"o":"m 413 1028 q 665 938 567 1028 q 763 704 763 847 q 619 431 763 543 l 703 397 l 703 215 l 438 322 l 397 301 q 385 294 393 299 q 315 256 335 268 q 275 224 294 243 q 247 183 256 206 l 756 183 l 756 1 l 29 1 l 31 38 q 58 201 36 136 q 119 310 79 265 q 232 407 158 356 l 171 431 l 171 613 l 413 515 l 453 538 q 568 701 568 603 q 523 809 568 767 q 408 851 478 851 q 326 834 360 851 q 277 785 293 817 q 254 722 261 753 q 244 649 247 692 l 243 617 l 51 617 l 53 653 q 61 742 54 700 q 84 827 68 783 q 127 906 100 871 q 192 969 154 940 q 287 1013 231 997 q 413 1028 343 1028 z "},"ƾ":{"ha":794,"x_min":56,"x_max":739,"o":"m 56 344 l 244 344 q 289 193 244 243 q 397 143 333 143 q 501 189 460 143 q 543 303 543 235 q 519 387 543 351 q 460 448 494 422 q 390 505 425 474 q 331 594 356 536 q 307 733 307 651 l 307 758 l 185 758 l 185 888 l 307 888 l 307 1013 l 479 1013 l 479 888 l 600 888 l 600 758 l 479 758 l 479 733 q 494 639 479 665 q 572 568 510 613 q 704 443 669 500 q 739 299 739 386 q 642 68 739 157 q 393 -21 546 -21 q 282 -7 333 -21 q 176 43 231 7 q 88 156 121 79 q 56 344 56 233 z "},"ƿ":{"ha":871,"x_min":90,"x_max":822,"o":"m 285 486 l 285 44 q 379 117 332 76 q 472 206 426 157 q 551 307 517 256 q 608 415 586 358 q 629 522 629 471 q 529 601 629 601 q 285 486 400 601 m 285 -107 l 285 -303 l 90 -303 l 90 750 l 285 750 l 285 639 q 412 735 350 703 q 575 767 474 767 q 751 694 681 767 q 822 497 822 621 q 369 -60 822 207 q 285 -107 365 -61 z "},"ǀ":{"ha":361,"x_min":139,"x_max":250,"o":"m 250 1013 l 250 -278 l 139 -278 l 139 1013 l 250 1013 z "},"ǁ":{"ha":556,"x_min":139,"x_max":444,"o":"m 250 1013 l 250 -278 l 139 -278 l 139 1013 l 250 1013 m 444 1013 l 444 -278 l 333 -278 l 333 1013 l 444 1013 z "},"ǂ":{"ha":811,"x_min":63,"x_max":749,"o":"m 354 1015 l 451 1015 l 451 497 l 749 497 l 749 386 l 451 386 l 451 258 l 749 258 l 749 147 l 451 147 l 451 -278 l 354 -278 l 354 147 l 63 147 l 63 258 l 354 258 l 354 386 l 63 386 l 63 497 l 354 497 l 354 1015 z "},"ǃ":{"ha":386,"x_min":86,"x_max":294,"o":"m 294 1008 l 294 717 l 236 288 l 143 288 l 86 717 l 86 1008 l 294 1008 m 294 203 l 294 0 l 86 0 l 86 203 l 294 203 z "},"Ǆ":{"ha":1806,"x_min":111,"x_max":1764,"o":"m 1457 1083 l 1308 1083 l 1165 1250 l 1288 1250 l 1388 1167 l 1488 1250 l 1607 1250 l 1457 1083 m 1764 1013 l 1764 839 l 1247 174 l 1764 174 l 1764 0 l 1003 0 l 1003 174 l 1521 839 l 1003 839 l 1003 1013 l 1764 1013 m 111 0 l 111 1013 l 507 1013 q 699 985 624 1013 q 826 896 775 957 q 950 507 950 749 q 826 118 950 263 q 507 0 728 0 l 111 0 m 319 174 l 507 174 q 742 506 742 174 q 507 839 742 839 l 319 839 l 319 174 z "},"ǅ":{"ha":1672,"x_min":111,"x_max":1638,"o":"m 1394 843 l 1246 843 l 1103 1051 l 1211 1051 l 1325 917 l 1439 1051 l 1544 1051 l 1394 843 m 1625 750 l 1625 593 l 1257 157 l 1638 157 l 1638 0 l 1017 0 l 1017 157 l 1388 593 l 1042 593 l 1042 750 l 1625 750 m 111 0 l 111 1013 l 507 1013 q 699 985 624 1013 q 826 896 775 957 q 950 507 950 749 q 826 118 950 263 q 507 0 728 0 l 111 0 m 319 174 l 507 174 q 742 506 742 174 q 507 839 742 839 l 319 839 l 319 174 z "},"ǆ":{"ha":1543,"x_min":56,"x_max":1511,"o":"m 1268 843 l 1119 843 l 976 1051 l 1085 1051 l 1199 917 l 1313 1051 l 1418 1051 l 1268 843 m 1499 750 l 1499 593 l 1131 157 l 1511 157 l 1511 0 l 890 0 l 890 157 l 1261 593 l 915 593 l 915 750 l 1499 750 m 371 -32 q 144 82 232 -32 q 56 364 56 196 q 146 648 56 533 q 371 763 236 763 q 578 653 507 763 l 578 1013 l 772 1013 l 772 0 l 578 0 l 578 76 q 371 -32 506 -32 m 414 600 q 296 534 342 600 q 250 364 250 468 q 296 196 250 261 q 414 131 342 131 q 532 194 486 131 q 578 361 578 258 q 533 534 578 468 q 414 600 488 600 z "},"Ǉ":{"ha":1643,"x_min":111,"x_max":1532,"o":"m 1207 -32 q 1098 -18 1150 -32 q 997 28 1046 -4 q 919 124 949 61 q 890 275 890 188 l 890 375 l 1099 375 l 1099 278 q 1125 177 1099 208 q 1211 146 1151 146 q 1294 176 1265 146 q 1324 264 1324 207 l 1324 1013 l 1532 1013 l 1532 264 q 1447 45 1532 122 q 1207 -32 1363 -32 m 319 1013 l 319 174 l 804 174 l 804 0 l 111 0 l 111 1013 l 319 1013 z "},"ǈ":{"ha":1188,"x_min":111,"x_max":1090,"o":"m 1090 750 l 1090 -131 q 1050 -262 1090 -222 q 919 -303 1010 -303 q 804 -296 869 -303 l 804 -140 q 839 -146 822 -146 q 883 -133 871 -146 q 896 -87 896 -119 l 896 750 l 1090 750 m 1090 1013 l 1090 839 l 896 839 l 896 1013 l 1090 1013 m 319 1013 l 319 174 l 804 174 l 804 0 l 111 0 l 111 1013 l 319 1013 z "},"ǉ":{"ha":772,"x_min":90,"x_max":675,"o":"m 675 750 l 675 -131 q 635 -262 675 -222 q 504 -303 594 -303 q 389 -296 454 -303 l 389 -140 q 424 -146 407 -146 q 468 -133 456 -146 q 481 -87 481 -119 l 481 750 l 675 750 m 675 1013 l 675 839 l 481 839 l 481 1013 l 675 1013 m 285 1013 l 285 0 l 90 0 l 90 1013 l 285 1013 z "},"Ǌ":{"ha":1797,"x_min":111,"x_max":1686,"o":"m 1361 -32 q 1252 -18 1304 -32 q 1151 28 1200 -4 q 1074 124 1103 61 q 1044 275 1044 188 l 1044 375 l 1253 375 l 1253 278 q 1279 177 1253 208 q 1365 146 1306 146 q 1449 176 1419 146 q 1478 264 1478 207 l 1478 1013 l 1686 1013 l 1686 264 q 1601 45 1686 122 q 1361 -32 1517 -32 m 726 0 l 319 700 l 319 0 l 111 0 l 111 1013 l 325 1013 l 726 324 l 726 1013 l 935 1013 l 935 0 l 726 0 z "},"ǋ":{"ha":1389,"x_min":111,"x_max":1292,"o":"m 1292 750 l 1292 -131 q 1251 -262 1292 -222 q 1121 -303 1211 -303 q 1006 -296 1071 -303 l 1006 -140 q 1040 -146 1024 -146 q 1085 -133 1072 -146 q 1097 -87 1097 -119 l 1097 750 l 1292 750 m 1292 1013 l 1292 839 l 1097 839 l 1097 1013 l 1292 1013 m 726 0 l 319 700 l 319 0 l 111 0 l 111 1013 l 325 1013 l 726 324 l 726 1013 l 935 1013 l 935 0 l 726 0 z "},"ǌ":{"ha":1235,"x_min":90,"x_max":1138,"o":"m 1138 750 l 1138 -131 q 1097 -262 1138 -222 q 967 -303 1057 -303 q 851 -296 917 -303 l 851 -140 q 886 -146 869 -146 q 931 -133 918 -146 q 943 -87 943 -119 l 943 750 l 1138 750 m 1138 1013 l 1138 839 l 943 839 l 943 1013 l 1138 1013 m 90 750 l 285 750 l 285 642 q 510 763 365 763 q 695 694 629 763 q 761 503 761 626 l 761 0 l 567 0 l 567 463 q 442 597 567 597 q 328 557 371 597 q 285 450 285 517 l 285 0 l 90 0 l 90 750 z "},"Ǎ":{"ha":968,"x_min":14,"x_max":954,"o":"m 565 1083 l 417 1083 l 274 1250 l 396 1250 l 496 1167 l 596 1250 l 715 1250 l 565 1083 m 674 204 l 294 204 l 226 0 l 14 0 l 374 1013 l 604 1013 l 954 0 l 740 0 l 674 204 m 617 378 l 485 774 l 353 378 l 617 378 z "},"ǎ":{"ha":786,"x_min":56,"x_max":744,"o":"m 461 846 l 313 846 l 169 1054 l 278 1054 l 392 919 l 506 1054 l 611 1054 l 461 846 m 283 -32 q 118 30 181 -32 q 56 193 56 92 q 276 429 56 392 l 354 443 q 382 447 357 443 q 414 452 407 450 q 441 458 421 454 q 469 468 461 463 q 490 483 478 474 q 506 503 501 492 q 510 531 510 515 q 397 606 510 606 q 296 583 325 606 q 260 503 267 561 l 72 503 q 393 763 90 763 q 700 532 700 763 l 700 115 q 744 24 700 64 l 744 0 l 533 0 q 511 75 511 28 q 283 -32 408 -32 m 510 301 l 510 354 q 428 331 483 342 l 361 318 q 275 282 300 306 q 250 215 250 258 q 278 149 250 174 q 356 125 307 125 q 469 171 429 125 q 510 301 510 217 z "},"Ǐ":{"ha":431,"x_min":-4,"x_max":438,"o":"m 288 1083 l 139 1083 l -4 1250 l 118 1250 l 218 1167 l 318 1250 l 438 1250 l 288 1083 m 319 1013 l 319 0 l 111 0 l 111 1013 l 319 1013 z "},"ǐ":{"ha":417,"x_min":-11,"x_max":431,"o":"m 281 846 l 132 846 l -11 1054 l 97 1054 l 211 919 l 325 1054 l 431 1054 l 281 846 m 307 750 l 307 0 l 113 0 l 113 750 l 307 750 z "},"Ǒ":{"ha":1086,"x_min":56,"x_max":1031,"o":"m 613 1083 l 464 1083 l 321 1250 l 443 1250 l 543 1167 l 643 1250 l 763 1250 l 613 1083 m 189 117 q 122 191 189 117 q 56 499 56 265 q 190 881 56 732 q 542 1029 324 1029 q 896 881 761 1029 q 1031 492 1031 733 q 898 117 1031 267 q 543 -32 765 -32 q 189 117 322 -32 m 543 851 q 340 755 417 851 q 264 499 264 658 q 340 242 264 339 q 543 146 417 146 q 745 242 668 146 q 822 493 822 338 q 747 754 822 657 q 543 851 671 851 z "},"ǒ":{"ha":853,"x_min":56,"x_max":797,"o":"m 489 846 l 340 846 l 197 1054 l 306 1054 l 419 919 l 533 1054 l 639 1054 l 489 846 m 425 763 q 699 656 601 763 q 797 360 797 550 q 697 74 797 179 q 426 -32 597 -32 q 154 74 253 -32 q 56 365 56 181 q 154 656 56 550 q 425 763 253 763 m 426 606 q 299 539 347 606 q 250 365 250 472 q 299 192 250 258 q 426 125 347 125 q 553 191 504 125 q 603 363 603 257 q 555 540 603 474 q 426 606 507 606 z "},"Ǔ":{"ha":1025,"x_min":111,"x_max":914,"o":"m 579 1083 l 431 1083 l 288 1250 l 410 1250 l 510 1167 l 610 1250 l 729 1250 l 579 1083 m 620 -22 q 594 -27 620 -22 q 513 -32 568 -32 q 405 -22 457 -32 q 298 13 353 -12 q 203 76 243 38 q 137 180 163 115 q 111 326 111 244 l 111 1013 l 319 1013 l 319 326 q 513 146 319 146 q 706 326 706 146 l 706 1013 l 914 1013 l 914 326 q 888 180 914 244 q 822 76 863 115 q 727 13 782 38 q 620 -22 672 -12 z "},"ǔ":{"ha":851,"x_min":90,"x_max":761,"o":"m 488 846 l 339 846 l 196 1054 l 304 1054 l 418 919 l 532 1054 l 638 1054 l 488 846 m 761 0 l 567 0 l 567 89 q 342 -32 486 -32 q 156 36 222 -32 q 90 228 90 104 l 90 750 l 285 750 l 285 268 q 410 133 285 133 q 524 174 481 133 q 567 281 567 214 l 567 750 l 761 750 l 761 0 z "},"Ǖ":{"ha":1025,"x_min":111,"x_max":914,"o":"m 715 1374 l 715 1264 l 300 1264 l 300 1374 l 715 1374 m 721 1232 l 721 1063 l 568 1063 l 568 1232 l 721 1232 m 449 1232 l 449 1063 l 296 1063 l 296 1232 l 449 1232 m 620 -22 q 594 -27 620 -22 q 513 -32 568 -32 q 405 -22 457 -32 q 298 13 353 -12 q 203 76 243 38 q 137 180 163 115 q 111 326 111 244 l 111 1013 l 319 1013 l 319 326 q 513 146 319 146 q 706 326 706 146 l 706 1013 l 914 1013 l 914 326 q 888 180 914 244 q 822 76 863 115 q 727 13 782 38 q 620 -22 672 -12 z "},"ǖ":{"ha":851,"x_min":90,"x_max":761,"o":"m 622 1197 l 622 1088 l 207 1088 l 207 1197 l 622 1197 m 626 1032 l 626 863 l 474 863 l 474 1032 l 626 1032 m 354 1032 l 354 863 l 201 863 l 201 1032 l 354 1032 m 761 0 l 567 0 l 567 89 q 342 -32 486 -32 q 156 36 222 -32 q 90 228 90 104 l 90 750 l 285 750 l 285 268 q 410 133 285 133 q 524 174 481 133 q 567 281 567 214 l 567 750 l 761 750 l 761 0 z "},"Ǘ":{"ha":1025,"x_min":111,"x_max":914,"o":"m 726 1433 l 510 1267 l 399 1267 l 538 1433 l 726 1433 m 719 1239 l 719 1069 l 567 1069 l 567 1239 l 719 1239 m 447 1239 l 447 1069 l 294 1069 l 294 1239 l 447 1239 m 620 -22 q 594 -27 620 -22 q 513 -32 568 -32 q 405 -22 457 -32 q 298 13 353 -12 q 203 76 243 38 q 137 180 163 115 q 111 326 111 244 l 111 1013 l 319 1013 l 319 326 q 513 146 319 146 q 706 326 706 146 l 706 1013 l 914 1013 l 914 326 q 888 180 914 244 q 822 76 863 115 q 727 13 782 38 q 620 -22 672 -12 z "},"ǘ":{"ha":851,"x_min":90,"x_max":761,"o":"m 629 1250 l 413 1083 l 301 1083 l 440 1250 l 629 1250 m 626 1032 l 626 863 l 474 863 l 474 1032 l 626 1032 m 354 1032 l 354 863 l 201 863 l 201 1032 l 354 1032 m 761 0 l 567 0 l 567 89 q 342 -32 486 -32 q 156 36 222 -32 q 90 228 90 104 l 90 750 l 285 750 l 285 268 q 410 133 285 133 q 524 174 481 133 q 567 281 567 214 l 567 750 l 761 750 l 761 0 z "},"Ǚ":{"ha":1025,"x_min":111,"x_max":914,"o":"m 579 1264 l 431 1264 l 288 1431 l 410 1431 l 510 1347 l 610 1431 l 729 1431 l 579 1264 m 719 1236 l 719 1067 l 567 1067 l 567 1236 l 719 1236 m 447 1236 l 447 1067 l 294 1067 l 294 1236 l 447 1236 m 620 -22 q 594 -27 620 -22 q 513 -32 568 -32 q 405 -22 457 -32 q 298 13 353 -12 q 203 76 243 38 q 137 180 163 115 q 111 326 111 244 l 111 1013 l 319 1013 l 319 326 q 513 146 319 146 q 706 326 706 146 l 706 1013 l 914 1013 l 914 326 q 888 180 914 244 q 822 76 863 115 q 727 13 782 38 q 620 -22 672 -12 z "},"ǚ":{"ha":851,"x_min":90,"x_max":761,"o":"m 482 1083 l 333 1083 l 190 1250 l 313 1250 l 413 1167 l 513 1250 l 632 1250 l 482 1083 m 626 1032 l 626 863 l 474 863 l 474 1032 l 626 1032 m 354 1032 l 354 863 l 201 863 l 201 1032 l 354 1032 m 761 0 l 567 0 l 567 89 q 342 -32 486 -32 q 156 36 222 -32 q 90 228 90 104 l 90 750 l 285 750 l 285 268 q 410 133 285 133 q 524 174 481 133 q 567 281 567 214 l 567 750 l 761 750 l 761 0 z "},"Ǜ":{"ha":1025,"x_min":111,"x_max":914,"o":"m 288 1440 l 476 1440 l 615 1274 l 504 1274 l 288 1440 m 719 1242 l 719 1072 l 567 1072 l 567 1242 l 719 1242 m 447 1242 l 447 1072 l 294 1072 l 294 1242 l 447 1242 m 620 -22 q 594 -27 620 -22 q 513 -32 568 -32 q 405 -22 457 -32 q 298 13 353 -12 q 203 76 243 38 q 137 180 163 115 q 111 326 111 244 l 111 1013 l 319 1013 l 319 326 q 513 146 319 146 q 706 326 706 146 l 706 1013 l 914 1013 l 914 326 q 888 180 914 244 q 822 76 863 115 q 727 13 782 38 q 620 -22 672 -12 z "},"ǜ":{"ha":851,"x_min":90,"x_max":761,"o":"m 190 1250 l 379 1250 l 518 1083 l 407 1083 l 190 1250 m 626 1032 l 626 863 l 474 863 l 474 1032 l 626 1032 m 354 1032 l 354 863 l 201 863 l 201 1032 l 354 1032 m 761 0 l 567 0 l 567 89 q 342 -32 486 -32 q 156 36 222 -32 q 90 228 90 104 l 90 750 l 285 750 l 285 268 q 410 133 285 133 q 524 174 481 133 q 567 281 567 214 l 567 750 l 761 750 l 761 0 z "},"ǝ":{"ha":810,"x_min":56,"x_max":754,"o":"m 407 -32 q 313 -21 358 -32 q 219 19 267 -10 q 135 94 171 49 q 78 213 100 139 q 56 383 56 288 q 57 417 56 400 l 560 417 q 552 491 558 460 q 530 552 546 522 q 483 598 514 582 q 404 614 451 614 q 256 519 293 614 l 64 519 q 190 697 96 631 q 411 763 285 763 q 663 659 571 763 q 754 375 754 556 q 661 77 754 186 q 407 -32 568 -32 m 258 288 q 303 161 265 206 q 410 117 342 117 q 557 288 538 117 l 258 288 z "},"Ǟ":{"ha":968,"x_min":14,"x_max":954,"o":"m 699 1374 l 699 1264 l 283 1264 l 283 1374 l 699 1374 m 704 1232 l 704 1063 l 551 1063 l 551 1232 l 704 1232 m 432 1232 l 432 1063 l 279 1063 l 279 1232 l 432 1232 m 674 204 l 294 204 l 226 0 l 14 0 l 374 1013 l 604 1013 l 954 0 l 740 0 l 674 204 m 617 378 l 485 774 l 353 378 l 617 378 z "},"ǟ":{"ha":786,"x_min":56,"x_max":744,"o":"m 585 1197 l 585 1088 l 169 1088 l 169 1197 l 585 1197 m 590 1032 l 590 863 l 438 863 l 438 1032 l 590 1032 m 318 1032 l 318 863 l 165 863 l 165 1032 l 318 1032 m 283 -32 q 118 30 181 -32 q 56 193 56 92 q 276 429 56 392 l 354 443 q 382 447 357 443 q 414 452 407 450 q 441 458 421 454 q 469 468 461 463 q 490 483 478 474 q 506 503 501 492 q 510 531 510 515 q 397 606 510 606 q 296 583 325 606 q 260 503 267 561 l 72 503 q 393 763 90 763 q 700 532 700 763 l 700 115 q 744 24 700 64 l 744 0 l 533 0 q 511 75 511 28 q 283 -32 408 -32 m 510 301 l 510 354 q 428 331 483 342 l 361 318 q 275 282 300 306 q 250 215 250 258 q 278 149 250 174 q 356 125 307 125 q 469 171 429 125 q 510 301 510 217 z "},"Ǡ":{"ha":968,"x_min":14,"x_max":954,"o":"m 703 1374 l 703 1264 l 288 1264 l 288 1374 l 703 1374 m 674 204 l 294 204 l 226 0 l 14 0 l 374 1013 l 604 1013 l 954 0 l 740 0 l 674 204 m 617 378 l 485 774 l 353 378 l 617 378 m 574 1236 l 574 1067 l 421 1067 l 421 1236 l 574 1236 z "},"ǡ":{"ha":786,"x_min":56,"x_max":744,"o":"m 585 1193 l 585 1083 l 169 1083 l 169 1193 l 585 1193 z "},"Ǣ":{"ha":1396,"x_min":14,"x_max":1354,"o":"m 1049 1222 l 1049 1113 l 633 1113 l 633 1222 l 1049 1222 m 610 211 l 300 211 l 226 0 l 14 0 l 379 1013 l 1326 1013 l 1326 839 l 818 839 l 818 610 l 1289 610 l 1289 436 l 818 436 l 818 174 l 1354 174 l 1354 0 l 610 0 l 610 211 m 610 385 l 610 839 l 517 839 l 358 385 l 610 385 z "},"ǣ":{"ha":1235,"x_min":39,"x_max":1192,"o":"m 811 971 l 811 861 l 396 861 l 396 971 l 811 971 m 688 314 q 846 117 688 117 q 937 144 896 117 q 990 211 978 171 l 1182 211 q 1056 34 1150 100 q 835 -32 961 -32 q 557 113 646 -32 q 272 -33 433 -33 q 102 28 165 -33 q 39 196 39 90 q 260 433 39 397 l 338 447 q 369 452 344 449 q 401 458 393 456 q 429 465 410 460 q 456 474 449 469 q 474 488 464 479 q 489 507 485 496 q 493 532 493 518 q 375 606 493 606 q 280 583 310 606 q 243 503 250 560 l 61 503 q 378 763 65 763 q 621 693 540 763 q 836 763 707 763 q 958 743 900 763 q 1072 680 1017 724 q 1159 551 1126 636 q 1192 347 1192 465 q 1190 314 1192 331 l 688 314 m 493 300 l 493 353 q 411 326 463 335 l 344 317 q 233 215 233 301 q 262 148 233 172 q 339 124 290 124 q 453 169 414 124 q 493 300 493 214 m 689 443 l 989 443 q 838 614 974 614 q 689 443 701 614 z "},"Ǥ":{"ha":1117,"x_min":56,"x_max":1103,"o":"m 579 207 l 579 318 l 800 318 q 810 371 807 340 l 579 371 l 579 544 l 985 544 l 985 318 l 1103 318 l 1103 207 l 985 207 l 985 -3 l 860 -3 l 835 131 q 704 7 776 46 q 529 -32 632 -32 q 190 118 324 -32 q 56 499 56 268 q 192 882 56 735 q 546 1029 328 1029 q 847 938 729 1029 q 985 689 965 846 l 789 689 q 726 790 765 757 q 547 851 657 851 q 340 758 415 851 q 264 501 264 665 q 345 246 264 346 q 553 146 426 146 q 724 207 650 146 l 579 207 z "},"ǥ":{"ha":906,"x_min":47,"x_max":878,"o":"m 400 600 q 285 533 329 600 q 242 360 242 467 q 285 194 242 258 q 397 131 328 131 q 522 194 474 131 q 569 360 569 258 q 522 532 569 464 q 400 600 474 600 m 567 750 l 751 750 l 751 -25 q 749 -65 751 -46 l 878 -65 l 878 -158 l 719 -158 q 394 -303 640 -303 q 154 -245 244 -303 q 63 -90 64 -187 l 264 -90 q 401 -178 288 -178 q 488 -158 450 -178 l 415 -158 l 415 -65 l 561 -65 q 567 -25 567 -46 l 567 76 q 466 -8 513 15 q 354 -32 419 -32 q 131 75 215 -32 q 47 357 47 182 q 136 647 47 531 q 358 763 225 763 q 567 635 483 763 l 567 750 z "},"Ǧ":{"ha":1068,"x_min":56,"x_max":985,"o":"m 621 1083 l 472 1083 l 329 1250 l 451 1250 l 551 1167 l 651 1250 l 771 1250 l 621 1083 m 789 692 q 547 854 733 854 q 340 761 415 854 q 264 504 264 668 q 345 249 264 349 q 553 149 426 149 q 598 153 572 149 q 660 173 624 158 q 726 211 696 188 q 781 277 757 235 q 810 374 804 319 l 579 374 l 579 547 l 985 547 l 985 0 l 860 0 l 835 133 q 704 10 776 49 q 529 -29 632 -29 q 190 121 324 -29 q 56 501 56 271 q 192 885 56 738 q 546 1032 328 1032 q 847 940 729 1032 q 985 692 965 849 l 789 692 z "},"ǧ":{"ha":850,"x_min":56,"x_max":760,"o":"m 526 846 l 378 846 l 235 1054 l 343 1054 l 457 919 l 571 1054 l 676 1054 l 526 846 m 575 750 l 760 750 l 760 -25 q 666 -230 760 -157 q 403 -303 572 -303 q 163 -245 253 -303 q 71 -90 72 -187 l 272 -90 q 410 -178 296 -178 q 529 -135 483 -178 q 575 -25 575 -93 l 575 76 q 474 -8 521 15 q 363 -32 428 -32 q 140 75 224 -32 q 56 357 56 182 q 144 647 56 531 q 367 763 233 763 q 575 635 492 763 l 575 750 m 408 600 q 294 533 338 600 q 250 360 250 467 q 293 194 250 258 q 406 131 336 131 q 530 194 482 131 q 578 360 578 258 q 530 532 578 464 q 408 600 482 600 z "},"Ǩ":{"ha":1011,"x_min":111,"x_max":1004,"o":"m 593 1083 l 444 1083 l 301 1250 l 424 1250 l 524 1167 l 624 1250 l 743 1250 l 593 1083 m 319 339 l 319 0 l 111 0 l 111 1013 l 319 1013 l 319 568 l 715 1013 l 961 1013 l 557 576 l 1004 0 l 756 0 l 424 447 l 319 339 z "},"ǩ":{"ha":783,"x_min":90,"x_max":769,"o":"m 501 1028 l 353 1028 l 210 1236 l 318 1236 l 432 1101 l 546 1236 l 651 1236 l 501 1028 m 285 458 l 531 750 l 751 750 l 496 467 l 769 0 l 542 0 l 363 331 l 285 246 l 285 0 l 90 0 l 90 1013 l 285 1013 l 285 458 z "},"Ǫ":{"ha":1086,"x_min":54,"x_max":1031,"o":"m 543 851 q 340 755 417 851 q 264 499 264 658 q 340 242 264 339 q 543 146 417 146 q 745 242 668 146 q 822 493 822 338 q 747 754 822 657 q 543 851 671 851 m 56 499 q 190 881 56 732 q 542 1029 324 1029 q 896 881 761 1029 q 1031 492 1031 733 q 977 237 1031 351 q 820 50 924 122 q 579 -31 717 -22 q 472 -118 500 -82 q 443 -206 443 -154 q 549 -275 443 -275 q 628 -267 590 -275 l 628 -332 q 518 -346 574 -346 q 372 -310 425 -346 q 318 -214 318 -275 q 328 -158 318 -185 q 359 -107 339 -131 q 408 -63 379 -83 q 472 -28 436 -43 q 251 60 346 -11 q 106 244 157 131 q 56 499 56 358 z "},"ǫ":{"ha":849,"x_min":49,"x_max":790,"o":"m 419 606 q 292 539 340 606 q 243 365 243 472 q 292 192 243 258 q 419 125 340 125 q 547 191 497 125 q 596 363 596 257 q 548 540 596 474 q 419 606 500 606 m 418 763 q 692 656 594 763 q 790 360 790 550 q 750 162 790 247 q 635 27 710 76 q 457 -31 560 -22 q 349 -117 378 -81 q 321 -206 321 -154 q 426 -275 321 -275 q 506 -267 468 -275 l 506 -332 q 396 -346 451 -346 q 249 -310 303 -346 q 196 -214 196 -275 q 351 -28 196 -92 q 128 97 208 -7 q 49 365 49 200 q 147 656 49 550 q 418 763 246 763 z "},"Ǭ":{"ha":1086,"x_min":56,"x_max":1031,"o":"m 749 1194 l 749 1085 l 333 1085 l 333 1194 l 749 1194 m 543 851 q 340 755 417 851 q 264 499 264 658 q 340 242 264 339 q 543 146 417 146 q 745 242 668 146 q 822 493 822 338 q 747 754 822 657 q 543 851 671 851 m 56 499 q 190 881 56 732 q 542 1029 324 1029 q 896 881 761 1029 q 1031 492 1031 733 q 977 237 1031 351 q 820 50 924 122 q 579 -31 717 -22 q 472 -118 500 -82 q 443 -206 443 -154 q 549 -275 443 -275 q 628 -267 590 -275 l 628 -332 q 518 -346 574 -346 q 372 -310 425 -346 q 318 -214 318 -275 q 328 -158 318 -185 q 359 -107 339 -131 q 408 -63 379 -83 q 472 -28 436 -43 q 251 60 346 -11 q 106 244 157 131 q 56 499 56 358 z "},"ǭ":{"ha":849,"x_min":49,"x_max":790,"o":"m 626 928 l 626 818 l 211 818 l 211 928 l 626 928 m 419 606 q 292 539 340 606 q 243 365 243 472 q 292 192 243 258 q 419 125 340 125 q 547 191 497 125 q 596 363 596 257 q 548 540 596 474 q 419 606 500 606 m 418 763 q 692 656 594 763 q 790 360 790 550 q 750 162 790 247 q 635 27 710 76 q 457 -31 560 -22 q 349 -117 378 -81 q 321 -206 321 -154 q 426 -275 321 -275 q 506 -267 468 -275 l 506 -332 q 396 -346 451 -346 q 249 -310 303 -346 q 196 -214 196 -275 q 351 -28 196 -92 q 128 97 208 -7 q 49 365 49 200 q 147 656 49 550 q 418 763 246 763 z "},"Ǯ":{"ha":788,"x_min":56,"x_max":732,"o":"m 444 1083 l 296 1083 l 153 1250 l 275 1250 l 375 1167 l 475 1250 l 594 1250 l 444 1083 m 510 546 q 678 444 624 517 q 732 283 732 371 q 638 53 732 139 q 388 -32 544 -32 q 147 55 236 -32 q 56 289 57 142 l 244 289 q 392 135 253 135 q 497 176 456 135 q 538 283 538 218 q 508 377 538 338 q 431 431 479 417 q 317 440 392 440 l 317 571 l 467 839 l 113 839 l 113 1013 l 669 1013 l 669 839 l 510 546 z "},"ǯ":{"ha":781,"x_min":49,"x_max":725,"o":"m 478 846 l 329 846 l 186 1054 l 294 1054 l 408 919 l 522 1054 l 628 1054 l 478 846 m 522 378 q 667 289 608 353 q 725 117 725 225 q 631 -113 725 -28 q 381 -199 538 -199 q 140 -112 229 -199 q 49 122 50 -25 l 238 122 q 385 -32 246 -32 q 490 10 449 -32 q 531 117 531 51 q 501 210 531 171 q 424 264 472 250 q 310 274 385 274 l 310 404 l 469 593 l 124 593 l 124 750 l 707 750 l 707 593 l 522 378 z "},"ǰ":{"ha":417,"x_min":-11,"x_max":431,"o":"m 307 750 l 307 -131 q 267 -262 307 -222 q 136 -303 226 -303 q 21 -296 86 -303 l 21 -140 q 56 -146 39 -146 q 100 -133 88 -146 q 113 -87 113 -119 l 113 750 l 307 750 m 281 833 l 132 833 l -11 1042 l 97 1042 l 211 907 l 325 1042 l 431 1042 l 281 833 z "},"Ǳ":{"ha":1851,"x_min":111,"x_max":1806,"o":"m 1806 1013 l 1806 839 l 1289 174 l 1806 174 l 1806 0 l 1044 0 l 1044 174 l 1563 839 l 1044 839 l 1044 1013 l 1806 1013 m 111 0 l 111 1013 l 507 1013 q 699 985 624 1013 q 826 896 775 957 q 950 507 950 749 q 826 118 950 263 q 507 0 728 0 l 111 0 m 319 174 l 507 174 q 742 506 742 174 q 507 839 742 839 l 319 839 l 319 174 z "},"ǲ":{"ha":1697,"x_min":111,"x_max":1665,"o":"m 1653 750 l 1653 593 l 1285 157 l 1665 157 l 1665 0 l 1044 0 l 1044 157 l 1415 593 l 1069 593 l 1069 750 l 1653 750 m 111 0 l 111 1013 l 507 1013 q 699 985 624 1013 q 826 896 775 957 q 950 507 950 749 q 826 118 950 263 q 507 0 728 0 l 111 0 m 319 174 l 507 174 q 742 506 742 174 q 507 839 742 839 l 319 839 l 319 174 z "},"ǳ":{"ha":1543,"x_min":56,"x_max":1511,"o":"m 1499 750 l 1499 593 l 1131 157 l 1511 157 l 1511 0 l 890 0 l 890 157 l 1261 593 l 915 593 l 915 750 l 1499 750 m 371 -32 q 144 82 232 -32 q 56 364 56 196 q 146 648 56 533 q 371 763 236 763 q 578 653 507 763 l 578 1013 l 772 1013 l 772 0 l 578 0 l 578 76 q 371 -32 506 -32 m 414 600 q 296 534 342 600 q 250 364 250 468 q 296 196 250 261 q 414 131 342 131 q 532 194 486 131 q 578 361 578 258 q 533 534 578 468 q 414 600 488 600 z "},"Ǵ":{"ha":1068,"x_min":56,"x_max":985,"o":"m 754 1250 l 538 1083 l 426 1083 l 565 1250 l 754 1250 m 789 692 q 547 854 733 854 q 340 761 415 854 q 264 504 264 668 q 345 249 264 349 q 553 149 426 149 q 598 153 572 149 q 660 173 624 158 q 726 211 696 188 q 781 277 757 235 q 810 374 804 319 l 579 374 l 579 547 l 985 547 l 985 0 l 860 0 l 835 133 q 704 10 776 49 q 529 -29 632 -29 q 190 121 324 -29 q 56 501 56 271 q 192 885 56 738 q 546 1032 328 1032 q 847 940 729 1032 q 985 692 965 849 l 789 692 z "},"ǵ":{"ha":850,"x_min":56,"x_max":760,"o":"m 626 1051 l 451 843 l 354 843 l 451 1051 l 626 1051 m 575 750 l 760 750 l 760 -25 q 666 -230 760 -157 q 403 -303 572 -303 q 163 -245 253 -303 q 71 -90 72 -187 l 272 -90 q 410 -178 296 -178 q 529 -135 483 -178 q 575 -25 575 -93 l 575 76 q 474 -8 521 15 q 363 -32 428 -32 q 140 75 224 -32 q 56 357 56 182 q 144 647 56 531 q 367 763 233 763 q 575 635 492 763 l 575 750 m 408 600 q 294 533 338 600 q 250 360 250 467 q 293 194 250 258 q 406 131 336 131 q 530 194 482 131 q 578 360 578 258 q 530 532 578 464 q 408 600 482 600 z "},"Ƿ":{"ha":915,"x_min":111,"x_max":860,"o":"m 313 722 l 313 347 q 407 415 365 383 q 498 491 449 446 q 580 578 547 536 q 635 672 613 619 q 657 775 657 724 q 625 824 657 804 q 557 844 593 844 q 444 817 508 844 q 313 722 379 789 m 313 129 l 313 0 l 111 0 l 111 1013 l 313 1013 l 313 942 q 442 1013 378 994 q 603 1032 506 1032 q 784 956 708 1032 q 860 758 860 881 q 835 627 860 693 q 777 510 811 561 q 687 403 743 458 q 588 311 631 347 q 481 233 544 275 q 388 173 417 190 q 313 129 358 156 z "},"Ǹ":{"ha":1046,"x_min":111,"x_max":935,"o":"m 288 1250 l 476 1250 l 615 1083 l 504 1083 l 288 1250 m 726 0 l 319 700 l 319 0 l 111 0 l 111 1013 l 325 1013 l 726 324 l 726 1013 l 935 1013 l 935 0 l 726 0 z "},"ǹ":{"ha":851,"x_min":90,"x_max":761,"o":"m 268 1054 l 443 1054 l 540 846 l 443 846 l 268 1054 m 90 750 l 285 750 l 285 642 q 510 763 365 763 q 695 694 629 763 q 761 503 761 626 l 761 0 l 567 0 l 567 463 q 442 597 567 597 q 328 557 371 597 q 285 450 285 517 l 285 0 l 90 0 l 90 750 z "},"Ǻ":{"ha":968,"x_min":14,"x_max":954,"o":"m 740 1250 l 524 1083 l 413 1083 l 551 1250 l 740 1250 m 506 1044 q 593 1008 557 1044 q 629 918 629 971 q 592 831 629 867 q 504 794 556 794 q 416 831 453 794 q 379 919 379 867 q 416 1008 379 972 q 506 1044 453 1044 m 506 978 q 463 960 481 978 q 446 919 446 943 q 463 878 446 896 q 506 861 481 861 q 546 878 529 861 q 563 919 563 896 q 546 960 563 943 q 506 978 529 978 m 674 153 l 294 153 l 226 0 l 14 0 l 374 759 l 604 759 l 954 0 l 740 0 l 674 153 m 617 283 l 485 580 l 353 283 l 617 283 z "},"ǻ":{"ha":786,"x_min":56,"x_max":744,"o":"m 379 1049 q 467 1012 431 1049 q 503 922 503 975 q 466 835 503 871 q 378 799 429 799 q 290 835 326 799 q 253 924 253 871 q 290 1013 253 976 q 379 1049 326 1049 m 379 982 q 337 965 354 982 q 319 924 319 947 q 337 883 319 900 q 379 865 354 865 q 419 883 403 865 q 436 924 436 900 q 419 965 436 947 q 379 982 403 982 m 283 -32 q 118 30 181 -32 q 56 193 56 92 q 276 429 56 392 l 354 443 q 382 447 357 443 q 414 452 407 450 q 441 458 421 454 q 469 468 461 463 q 490 483 478 474 q 506 503 501 492 q 510 531 510 515 q 397 606 510 606 q 296 583 325 606 q 260 503 267 561 l 72 503 q 393 763 90 763 q 700 532 700 763 l 700 115 q 744 24 700 64 l 744 0 l 533 0 q 511 75 511 28 q 283 -32 408 -32 m 510 301 l 510 354 q 428 331 483 342 l 361 318 q 275 282 300 306 q 250 215 250 258 q 278 149 250 174 q 356 125 307 125 q 469 171 429 125 q 510 301 510 217 m 585 1250 l 368 1083 l 257 1083 l 396 1250 l 585 1250 z "},"Ǽ":{"ha":1410,"x_min":14,"x_max":1354,"o":"m 976 1250 l 760 1083 l 649 1083 l 788 1250 l 976 1250 m 610 211 l 300 211 l 226 0 l 14 0 l 379 1013 l 1326 1013 l 1326 839 l 818 839 l 818 610 l 1289 610 l 1289 436 l 818 436 l 818 174 l 1354 174 l 1354 0 l 610 0 l 610 211 m 610 385 l 610 839 l 517 839 l 358 385 l 610 385 z "},"ǽ":{"ha":1235,"x_min":39,"x_max":1192,"o":"m 828 1051 l 653 843 l 556 843 l 653 1051 l 828 1051 m 688 314 q 846 117 688 117 q 937 144 896 117 q 990 211 978 171 l 1182 211 q 1056 34 1150 100 q 835 -32 961 -32 q 557 113 646 -32 q 272 -33 433 -33 q 102 28 165 -33 q 39 196 39 90 q 260 433 39 397 l 338 447 q 369 452 344 449 q 401 458 393 456 q 429 465 410 460 q 456 474 449 469 q 474 488 464 479 q 489 507 485 496 q 493 532 493 518 q 375 606 493 606 q 280 583 310 606 q 243 503 250 560 l 61 503 q 378 763 65 763 q 621 693 540 763 q 836 763 707 763 q 958 743 900 763 q 1072 680 1017 724 q 1159 551 1126 636 q 1192 347 1192 465 q 1190 314 1192 331 l 688 314 m 493 300 l 493 353 q 411 326 463 335 l 344 317 q 233 215 233 301 q 262 148 233 172 q 339 124 290 124 q 453 169 414 124 q 493 300 493 214 m 689 443 l 989 443 q 838 614 974 614 q 689 443 701 614 z "},"Ǿ":{"ha":1088,"x_min":50,"x_max":1056,"o":"m 768 1250 l 551 1083 l 440 1083 l 579 1250 l 768 1250 m 1035 496 q 901 119 1035 269 q 546 -32 768 -32 q 236 72 357 -32 l 121 -54 l 50 10 l 169 142 q 56 499 56 294 q 190 880 56 731 q 546 1029 325 1029 q 868 913 736 1029 l 983 1040 l 1056 978 l 932 840 q 1035 496 1035 700 m 794 690 l 363 213 q 546 146 432 146 q 750 243 674 146 q 826 501 826 340 q 794 690 826 606 m 304 290 l 740 771 q 546 851 664 851 q 340 754 417 851 q 264 494 264 657 q 304 290 264 379 z "},"ǿ":{"ha":853,"x_min":18,"x_max":833,"o":"m 638 1051 l 463 843 l 365 843 l 463 1051 l 638 1051 m 178 49 l 78 -53 l 18 3 l 122 110 q 53 365 53 210 q 153 656 53 550 q 426 763 253 763 q 679 676 575 763 l 774 774 l 833 717 l 733 615 q 799 365 799 514 q 699 74 799 181 q 428 -32 600 -32 q 178 49 267 -32 m 588 467 l 308 183 q 428 125 358 125 q 554 192 504 125 q 604 361 604 258 q 588 467 604 417 m 267 256 l 547 542 q 424 607 493 607 q 297 540 346 607 q 247 369 247 474 q 267 256 247 306 z "},"Ȁ":{"ha":968,"x_min":14,"x_max":954,"o":"m 674 204 l 294 204 l 226 0 l 14 0 l 374 1013 l 604 1013 l 954 0 l 740 0 l 674 204 m 617 378 l 485 774 l 353 378 l 617 378 z "},"ȁ":{"ha":786,"x_min":36,"x_max":744,"o":"m 297 1050 l 472 1050 l 569 846 l 472 846 l 297 1050 m 36 1050 l 211 1050 l 308 846 l 211 846 l 36 1050 m 283 -32 q 118 30 181 -32 q 56 193 56 92 q 276 429 56 392 l 354 443 q 382 447 357 443 q 414 452 407 450 q 441 458 421 454 q 469 468 461 463 q 490 483 478 474 q 506 503 501 492 q 510 531 510 515 q 397 606 510 606 q 296 583 325 606 q 260 503 267 561 l 72 503 q 393 763 90 763 q 700 532 700 763 l 700 115 q 744 24 700 64 l 744 0 l 533 0 q 511 75 511 28 q 283 -32 408 -32 m 510 301 l 510 354 q 428 331 483 342 l 361 318 q 275 282 300 306 q 250 215 250 258 q 278 149 250 174 q 356 125 307 125 q 469 171 429 125 q 510 301 510 217 z "},"Ȃ":{"ha":968,"x_min":14,"x_max":954,"o":"m 674 204 l 294 204 l 226 0 l 14 0 l 374 1013 l 604 1013 l 954 0 l 740 0 l 674 204 m 617 378 l 485 774 l 353 378 l 617 378 z "},"ȃ":{"ha":786,"x_min":56,"x_max":744,"o":"m 283 -32 q 118 30 181 -32 q 56 193 56 92 q 276 429 56 392 l 354 443 q 382 447 357 443 q 414 452 407 450 q 441 458 421 454 q 469 468 461 463 q 490 483 478 474 q 506 503 501 492 q 510 531 510 515 q 397 606 510 606 q 296 583 325 606 q 260 503 267 561 l 72 503 q 393 763 90 763 q 700 532 700 763 l 700 115 q 744 24 700 64 l 744 0 l 533 0 q 511 75 511 28 q 283 -32 408 -32 m 510 301 l 510 354 q 428 331 483 342 l 361 318 q 275 282 300 306 q 250 215 250 258 q 278 149 250 174 q 356 125 307 125 q 469 171 429 125 q 510 301 510 217 z "},"Ȅ":{"ha":924,"x_min":111,"x_max":868,"o":"m 319 436 l 319 174 l 868 174 l 868 0 l 111 0 l 111 1013 l 843 1013 l 843 839 l 319 839 l 319 610 l 804 610 l 804 436 l 319 436 z "},"ȅ":{"ha":810,"x_min":24,"x_max":754,"o":"m 285 1050 l 460 1050 l 557 846 l 460 846 l 285 1050 m 24 1050 l 199 1050 l 296 846 l 199 846 l 24 1050 m 403 763 q 497 751 451 763 q 591 711 543 740 q 674 637 639 682 q 732 517 710 592 q 754 347 754 443 q 753 314 754 331 l 250 314 q 258 240 251 271 q 280 178 264 208 q 327 133 296 149 q 406 117 358 117 q 554 211 517 117 l 746 211 q 619 34 714 100 q 399 -32 525 -32 q 147 72 239 -32 q 56 356 56 175 q 149 653 56 544 q 403 763 242 763 m 551 443 q 506 569 544 525 q 400 614 468 614 q 253 443 272 614 l 551 443 z "},"Ȇ":{"ha":924,"x_min":111,"x_max":868,"o":"m 319 436 l 319 174 l 868 174 l 868 0 l 111 0 l 111 1013 l 843 1013 l 843 839 l 319 839 l 319 610 l 804 610 l 804 436 l 319 436 z "},"ȇ":{"ha":810,"x_min":56,"x_max":754,"o":"m 403 763 q 497 751 451 763 q 591 711 543 740 q 674 637 639 682 q 732 517 710 592 q 754 347 754 443 q 753 314 754 331 l 250 314 q 258 240 251 271 q 280 178 264 208 q 327 133 296 149 q 406 117 358 117 q 554 211 517 117 l 746 211 q 619 34 714 100 q 399 -32 525 -32 q 147 72 239 -32 q 56 356 56 175 q 149 653 56 544 q 403 763 242 763 m 551 443 q 506 569 544 525 q 400 614 468 614 q 253 443 272 614 l 551 443 z "},"Ȉ":{"ha":431,"x_min":-164,"x_max":431,"o":"m 319 1013 l 319 0 l 111 0 l 111 1013 l 319 1013 z "},"ȉ":{"ha":417,"x_min":-108,"x_max":425,"o":"m 307 750 l 307 0 l 113 0 l 113 750 l 307 750 m 153 1050 l 328 1050 l 425 846 l 328 846 l 153 1050 m -108 1050 l 67 1050 l 164 846 l 67 846 l -108 1050 z "},"Ȋ":{"ha":431,"x_min":32,"x_max":399,"o":"m 319 1013 l 319 0 l 111 0 l 111 1013 l 319 1013 z "},"ȋ":{"ha":389,"x_min":7,"x_max":374,"o":"m 292 750 l 292 0 l 97 0 l 97 750 l 292 750 z "},"Ȍ":{"ha":1086,"x_min":56,"x_max":1031,"o":"m 189 117 q 122 191 189 117 q 56 499 56 265 q 190 881 56 732 q 542 1029 324 1029 q 896 881 761 1029 q 1031 492 1031 733 q 898 117 1031 267 q 543 -32 765 -32 q 189 117 322 -32 m 543 851 q 340 755 417 851 q 264 499 264 658 q 340 242 264 339 q 543 146 417 146 q 745 242 668 146 q 822 493 822 338 q 747 754 822 657 q 543 851 671 851 z "},"ȍ":{"ha":853,"x_min":56,"x_max":797,"o":"m 325 1050 l 500 1050 l 597 846 l 500 846 l 325 1050 m 64 1050 l 239 1050 l 336 846 l 239 846 l 64 1050 m 425 763 q 699 656 601 763 q 797 360 797 550 q 697 74 797 179 q 426 -32 597 -32 q 154 74 253 -32 q 56 365 56 181 q 154 656 56 550 q 425 763 253 763 m 426 606 q 299 539 347 606 q 250 365 250 472 q 299 192 250 258 q 426 125 347 125 q 553 191 504 125 q 603 363 603 257 q 555 540 603 474 q 426 606 507 606 z "},"Ȏ":{"ha":1086,"x_min":56,"x_max":1031,"o":"m 358 1051 l 358 1067 q 411 1197 358 1144 q 542 1250 464 1250 q 672 1197 619 1250 q 725 1065 725 1144 l 725 1051 l 647 1051 q 540 1143 635 1143 q 436 1051 451 1143 l 358 1051 m 189 117 q 122 191 189 117 q 56 499 56 265 q 190 881 56 732 q 542 1029 324 1029 q 896 881 761 1029 q 1031 492 1031 733 q 898 117 1031 267 q 543 -32 765 -32 q 189 117 322 -32 m 543 851 q 340 755 417 851 q 264 499 264 658 q 340 242 264 339 q 543 146 417 146 q 745 242 668 146 q 822 493 822 338 q 747 754 822 657 q 543 851 671 851 z "},"ȏ":{"ha":853,"x_min":56,"x_max":797,"o":"m 425 763 q 699 656 601 763 q 797 360 797 550 q 697 74 797 179 q 426 -32 597 -32 q 154 74 253 -32 q 56 365 56 181 q 154 656 56 550 q 425 763 253 763 m 426 606 q 299 539 347 606 q 250 365 250 472 q 299 192 250 258 q 426 125 347 125 q 553 191 504 125 q 603 363 603 257 q 555 540 603 474 q 426 606 507 606 z "},"Ȑ":{"ha":1003,"x_min":111,"x_max":940,"o":"m 685 174 q 686 239 685 215 q 688 281 688 263 q 657 373 688 344 q 558 401 626 401 l 319 401 l 319 0 l 111 0 l 111 1013 l 654 1013 q 788 986 732 1013 q 873 917 844 960 q 914 830 901 874 q 926 739 926 786 q 756 489 926 556 q 811 465 793 474 q 848 435 829 456 q 873 397 867 414 q 885 336 879 381 q 893 249 892 292 q 896 121 894 206 q 940 38 896 63 l 940 0 l 717 0 q 691 69 697 36 q 685 174 685 103 m 718 710 q 682 813 718 788 q 571 839 646 839 l 319 839 l 319 575 l 571 575 q 681 601 644 575 q 718 710 718 628 z "},"ȑ":{"ha":544,"x_min":-26,"x_max":517,"o":"m 235 1050 l 410 1050 l 507 846 l 410 846 l 235 1050 m -26 1050 l 149 1050 l 246 846 l 149 846 l -26 1050 m 90 750 l 285 750 l 285 603 q 371 721 315 679 q 493 763 426 763 q 517 761 506 763 l 517 564 q 456 569 482 569 q 285 399 285 569 l 285 0 l 90 0 l 90 750 z "},"Ȓ":{"ha":1003,"x_min":111,"x_max":940,"o":"m 314 1051 l 314 1067 q 367 1197 314 1144 q 497 1250 419 1250 q 628 1197 575 1250 q 681 1065 681 1144 l 681 1051 l 603 1051 q 496 1143 590 1143 q 392 1051 407 1143 l 314 1051 m 685 174 q 686 239 685 215 q 688 281 688 263 q 657 373 688 344 q 558 401 626 401 l 319 401 l 319 0 l 111 0 l 111 1013 l 654 1013 q 788 986 732 1013 q 873 917 844 960 q 914 830 901 874 q 926 739 926 786 q 756 489 926 556 q 811 465 793 474 q 848 435 829 456 q 873 397 867 414 q 885 336 879 381 q 893 249 892 292 q 896 121 894 206 q 940 38 896 63 l 940 0 l 717 0 q 691 69 697 36 q 685 174 685 103 m 718 710 q 682 813 718 788 q 571 839 646 839 l 319 839 l 319 575 l 571 575 q 681 601 644 575 q 718 710 718 628 z "},"ȓ":{"ha":544,"x_min":90,"x_max":517,"o":"m 90 750 l 285 750 l 285 603 q 371 721 315 679 q 493 763 426 763 q 517 761 506 763 l 517 564 q 456 569 482 569 q 285 399 285 569 l 285 0 l 90 0 l 90 750 z "},"Ȕ":{"ha":1025,"x_min":111,"x_max":914,"o":"m 620 -22 q 594 -27 620 -22 q 513 -32 568 -32 q 405 -22 457 -32 q 298 13 353 -12 q 203 76 243 38 q 137 180 163 115 q 111 326 111 244 l 111 1013 l 319 1013 l 319 326 q 513 146 319 146 q 706 326 706 146 l 706 1013 l 914 1013 l 914 326 q 888 180 914 244 q 822 76 863 115 q 727 13 782 38 q 620 -22 672 -12 z "},"ȕ":{"ha":851,"x_min":90,"x_max":761,"o":"m 351 1050 l 526 1050 l 624 846 l 526 846 l 351 1050 m 90 1050 l 265 1050 l 363 846 l 265 846 l 90 1050 m 761 0 l 567 0 l 567 89 q 342 -32 486 -32 q 156 36 222 -32 q 90 228 90 104 l 90 750 l 285 750 l 285 268 q 410 133 285 133 q 524 174 481 133 q 567 281 567 214 l 567 750 l 761 750 l 761 0 z "},"Ȗ":{"ha":1025,"x_min":111,"x_max":914,"o":"m 332 1051 l 332 1067 q 385 1197 332 1144 q 515 1250 438 1250 q 646 1197 593 1250 q 699 1065 699 1144 l 699 1051 l 621 1051 q 514 1143 608 1143 q 410 1051 425 1143 l 332 1051 m 620 -22 q 594 -27 620 -22 q 513 -32 568 -32 q 405 -22 457 -32 q 298 13 353 -12 q 203 76 243 38 q 137 180 163 115 q 111 326 111 244 l 111 1013 l 319 1013 l 319 326 q 513 146 319 146 q 706 326 706 146 l 706 1013 l 914 1013 l 914 326 q 888 180 914 244 q 822 76 863 115 q 727 13 782 38 q 620 -22 672 -12 z "},"ȗ":{"ha":851,"x_min":90,"x_max":761,"o":"m 761 0 l 567 0 l 567 89 q 342 -32 486 -32 q 156 36 222 -32 q 90 228 90 104 l 90 750 l 285 750 l 285 268 q 410 133 285 133 q 524 174 481 133 q 567 281 567 214 l 567 750 l 761 750 l 761 0 z "},"Ș":{"ha":946,"x_min":56,"x_max":890,"o":"m 358 -94 l 528 -94 l 528 -244 q 479 -365 528 -314 q 358 -417 431 -415 l 358 -353 q 430 -312 408 -343 q 451 -243 451 -281 l 358 -243 l 358 -94 m 854 704 l 660 704 q 447 863 649 863 q 319 828 367 863 q 272 738 272 794 q 313 655 272 682 q 464 606 353 628 l 622 575 q 826 481 763 547 q 890 296 890 415 q 781 55 890 142 q 475 -32 671 -32 q 173 54 281 -32 q 56 303 65 140 l 258 303 q 322 178 264 221 q 486 135 381 135 q 635 171 581 135 q 690 271 690 207 q 647 365 690 332 q 500 418 604 399 l 358 446 q 139 538 204 475 q 74 718 74 600 q 174 948 74 867 q 457 1029 275 1029 q 559 1022 510 1029 q 664 994 608 1015 q 760 938 719 972 q 827 844 800 904 q 854 704 854 783 z "},"ș":{"ha":772,"x_min":42,"x_max":724,"o":"m 288 -94 l 457 -94 l 457 -244 q 408 -365 457 -314 q 288 -417 360 -415 l 288 -353 q 359 -312 338 -343 q 381 -243 381 -281 l 288 -243 l 288 -94 m 232 218 q 272 146 242 171 q 385 121 301 121 q 491 140 453 121 q 529 194 529 160 q 515 231 529 217 q 464 256 500 244 l 232 328 q 215 333 231 328 q 194 340 200 338 q 171 349 188 343 q 145 363 154 356 q 122 380 136 369 q 101 403 108 390 q 85 431 93 415 q 72 468 76 447 q 68 513 68 489 q 151 695 68 628 q 376 763 233 763 q 614 695 528 763 q 703 508 700 628 l 515 508 q 375 610 514 610 q 293 591 324 610 q 263 540 263 572 q 276 506 263 518 q 331 482 290 494 l 576 411 q 724 222 724 368 q 708 138 724 179 q 659 57 693 97 q 557 -8 625 17 q 396 -32 489 -32 q 42 218 50 -32 l 232 218 z "},"Ț":{"ha":894,"x_min":42,"x_max":853,"o":"m 367 -94 l 536 -94 l 536 -244 q 488 -365 536 -314 q 367 -417 439 -415 l 367 -353 q 438 -312 417 -343 q 460 -243 460 -281 l 367 -243 l 367 -94 m 557 839 l 557 0 l 349 0 l 349 839 l 42 839 l 42 1013 l 853 1013 l 853 839 l 557 839 z "},"ț":{"ha":469,"x_min":29,"x_max":428,"o":"m 163 -94 l 332 -94 l 332 -244 q 283 -365 332 -314 q 163 -417 235 -415 l 163 -353 q 234 -312 213 -343 q 256 -243 256 -281 l 163 -243 l 163 -94 m 428 735 l 428 606 l 319 606 l 319 197 q 332 131 319 147 q 383 115 344 115 q 428 119 399 115 l 428 -17 q 315 -32 381 -32 q 125 144 125 -32 l 125 606 l 29 606 l 29 735 l 125 735 l 125 936 l 319 936 l 319 735 l 428 735 z "},"Ȝ":{"ha":814,"x_min":49,"x_max":758,"o":"m 243 675 l 242 642 l 50 642 l 51 676 q 144 940 54 850 q 394 1029 233 1029 q 640 947 551 1029 q 729 724 729 865 q 647 528 729 610 q 758 285 758 446 q 738 179 758 229 q 687 92 717 129 q 603 17 657 54 q 504 -44 549 -21 q 385 -97 460 -68 q 263 -142 310 -126 q 136 -183 217 -158 l 100 -194 l 49 8 q 97 6 69 6 q 442 146 339 86 q 564 283 564 218 q 553 352 564 326 q 528 388 542 378 q 486 410 515 397 q 279 329 404 367 l 246 319 l 200 488 l 228 499 q 461 610 410 574 q 535 719 535 661 q 498 819 535 785 q 396 853 461 853 q 281 812 317 853 q 243 675 244 771 z "},"ȝ":{"ha":672,"x_min":42,"x_max":617,"o":"m 231 478 l 231 443 l 42 443 l 42 478 q 120 685 42 604 q 322 765 199 765 q 519 694 442 765 q 596 514 596 624 q 543 365 596 425 q 597 294 576 338 q 617 183 617 250 q 607 120 617 150 q 583 66 597 90 q 543 18 569 42 q 494 -23 517 -6 q 432 -59 471 -40 q 367 -90 393 -78 q 295 -118 342 -101 q 224 -143 249 -135 q 150 -167 199 -151 q 132 -172 138 -169 l 96 -183 l 64 -44 l 68 11 l 89 -3 q 154 16 104 0 q 267 56 204 32 q 378 116 331 81 q 426 183 426 151 q 420 226 426 213 q 393 256 414 240 q 239 197 335 225 l 204 188 l 165 347 l 193 358 q 206 364 197 360 q 272 391 250 382 q 324 416 293 400 q 368 444 354 432 q 393 474 382 457 q 404 510 404 490 q 324 588 404 588 q 257 558 283 588 q 231 478 231 529 z "},"Ȟ":{"ha":1040,"x_min":111,"x_max":929,"o":"m 579 1083 l 431 1083 l 288 1250 l 410 1250 l 510 1167 l 610 1250 l 729 1250 l 579 1083 m 721 460 l 319 460 l 319 0 l 111 0 l 111 1013 l 319 1013 l 319 633 l 719 633 l 719 1013 l 929 1013 l 929 0 l 721 0 l 721 460 z "},"ȟ":{"ha":839,"x_min":90,"x_max":749,"o":"m 526 1017 l 378 1017 l 235 1225 l 343 1225 l 457 1090 l 571 1225 l 676 1225 l 526 1017 m 554 458 q 435 597 554 597 q 327 556 369 597 q 285 450 285 514 l 285 0 l 90 0 l 90 1013 l 285 1013 l 285 642 q 504 763 365 763 q 588 751 549 763 q 666 712 628 739 q 726 631 704 685 q 749 503 749 576 l 749 0 l 554 0 l 554 458 z "},"Ȥ":{"ha":849,"x_min":42,"x_max":803,"o":"m 803 1013 l 803 839 l 286 174 l 803 174 l 803 -112 q 793 -174 803 -144 q 760 -233 783 -203 q 687 -281 736 -262 q 568 -299 638 -299 q 494 -287 547 -299 l 494 -124 q 557 -128 554 -128 q 606 -118 594 -128 q 617 -67 617 -108 l 617 0 l 42 0 l 42 174 l 560 839 l 42 839 l 42 1013 l 803 1013 z "},"ȥ":{"ha":694,"x_min":29,"x_max":650,"o":"m 638 750 l 638 593 l 269 157 l 650 157 q 650 -114 650 157 q 640 -175 650 -146 q 607 -234 631 -204 q 534 -282 583 -264 q 415 -300 485 -300 q 342 -289 394 -300 l 342 -125 q 404 -129 401 -129 q 452 -119 440 -129 q 464 -68 464 -110 l 464 0 l 29 0 l 29 157 l 400 593 l 54 593 l 54 750 l 638 750 z "},"Ȧ":{"ha":968,"x_min":14,"x_max":954,"o":"m 588 1250 l 588 1081 l 435 1081 l 435 1250 l 588 1250 m 674 204 l 294 204 l 226 0 l 14 0 l 374 1013 l 604 1013 l 954 0 l 740 0 l 674 204 m 617 378 l 485 774 l 353 378 l 617 378 z "},"ȧ":{"ha":786,"x_min":56,"x_max":744,"o":"m 467 1015 l 467 846 l 314 846 l 314 1015 l 467 1015 m 283 -32 q 118 30 181 -32 q 56 193 56 92 q 276 429 56 392 l 354 443 q 382 447 357 443 q 414 452 407 450 q 441 458 421 454 q 469 468 461 463 q 490 483 478 474 q 506 503 501 492 q 510 531 510 515 q 397 606 510 606 q 296 583 325 606 q 260 503 267 561 l 72 503 q 393 763 90 763 q 700 532 700 763 l 700 115 q 744 24 700 64 l 744 0 l 533 0 q 511 75 511 28 q 283 -32 408 -32 m 510 301 l 510 354 q 428 331 483 342 l 361 318 q 275 282 300 306 q 250 215 250 258 q 278 149 250 174 q 356 125 307 125 q 469 171 429 125 q 510 301 510 217 z "},"Ȩ":{"ha":910,"x_min":111,"x_max":868,"o":"m 319 436 l 319 174 l 868 174 l 868 0 l 515 0 l 479 -78 q 538 -68 508 -68 q 615 -94 586 -68 q 643 -167 643 -121 q 597 -262 643 -229 q 464 -296 550 -296 q 272 -257 388 -296 l 299 -185 q 444 -226 394 -226 q 501 -210 478 -226 q 524 -169 524 -193 q 504 -134 524 -147 q 453 -121 485 -121 q 385 -137 419 -121 l 454 0 l 111 0 l 111 1013 l 843 1013 l 843 839 l 319 839 l 319 610 l 804 610 l 804 436 l 319 436 z "},"ȩ":{"ha":810,"x_min":56,"x_max":754,"o":"m 551 443 q 506 569 544 525 q 400 614 468 614 q 253 443 272 614 l 551 443 m 403 763 q 497 751 451 763 q 591 711 543 740 q 674 637 639 682 q 732 517 710 592 q 754 347 754 443 q 753 314 754 331 l 250 314 q 258 240 251 271 q 280 178 264 208 q 327 133 296 149 q 406 117 358 117 q 554 211 517 117 l 746 211 q 679 89 725 142 q 568 5 633 36 q 425 -31 503 -26 l 389 -110 q 447 -100 418 -100 q 524 -126 496 -100 q 553 -199 553 -153 q 506 -294 553 -261 q 374 -328 460 -328 q 182 -289 297 -328 l 208 -217 q 354 -258 304 -258 q 410 -242 388 -258 q 433 -201 433 -225 q 414 -166 433 -179 q 363 -153 394 -153 q 294 -169 329 -153 l 365 -31 q 138 83 221 -19 q 56 356 56 185 q 149 653 56 544 q 403 763 242 763 z "},"Ȫ":{"ha":1086,"x_min":56,"x_max":1031,"o":"m 750 1374 l 750 1264 l 335 1264 l 335 1374 l 750 1374 m 756 1232 l 756 1063 l 603 1063 l 603 1232 l 756 1232 m 483 1232 l 483 1063 l 331 1063 l 331 1232 l 483 1232 m 189 117 q 122 191 189 117 q 56 499 56 265 q 190 881 56 732 q 542 1029 324 1029 q 896 881 761 1029 q 1031 492 1031 733 q 898 117 1031 267 q 543 -32 765 -32 q 189 117 322 -32 m 543 851 q 340 755 417 851 q 264 499 264 658 q 340 242 264 339 q 543 146 417 146 q 745 242 668 146 q 822 493 822 338 q 747 754 822 657 q 543 851 671 851 z "},"ȫ":{"ha":853,"x_min":56,"x_max":797,"o":"m 626 1193 l 626 1083 l 211 1083 l 211 1193 l 626 1193 m 632 1032 l 632 863 l 479 863 l 479 1032 l 632 1032 m 360 1032 l 360 863 l 207 863 l 207 1032 l 360 1032 m 425 763 q 699 656 601 763 q 797 360 797 550 q 697 74 797 179 q 426 -32 597 -32 q 154 74 253 -32 q 56 365 56 181 q 154 656 56 550 q 425 763 253 763 m 426 606 q 299 539 347 606 q 250 365 250 472 q 299 192 250 258 q 426 125 347 125 q 553 191 504 125 q 603 363 603 257 q 555 540 603 474 q 426 606 507 606 z "},"Ȭ":{"ha":1086,"x_min":56,"x_max":1031,"o":"m 754 1374 l 754 1264 l 339 1264 l 339 1374 l 754 1374 m 711 1239 l 799 1239 q 667 1063 790 1063 q 590 1079 633 1063 l 492 1115 q 450 1124 467 1124 q 413 1109 425 1124 q 394 1061 400 1094 l 307 1061 q 346 1188 311 1142 q 438 1233 381 1233 q 515 1215 465 1233 l 614 1181 q 661 1172 633 1172 q 711 1239 706 1172 m 189 117 q 122 191 189 117 q 56 499 56 265 q 190 881 56 732 q 542 1029 324 1029 q 896 881 761 1029 q 1031 492 1031 733 q 898 117 1031 267 q 543 -32 765 -32 q 189 117 322 -32 m 543 851 q 340 755 417 851 q 264 499 264 658 q 340 242 264 339 q 543 146 417 146 q 745 242 668 146 q 822 493 822 338 q 747 754 822 657 q 543 851 671 851 z "},"ȭ":{"ha":853,"x_min":56,"x_max":797,"o":"m 636 1193 l 636 1083 l 221 1083 l 221 1193 l 636 1193 m 582 1040 l 669 1040 q 538 864 661 864 q 461 881 504 864 l 363 917 q 321 925 338 925 q 283 910 296 925 q 265 863 271 896 l 178 863 q 217 989 182 943 q 308 1035 251 1035 q 386 1017 336 1035 l 485 982 q 532 974 504 974 q 582 1040 576 974 m 425 763 q 699 656 601 763 q 797 360 797 550 q 697 74 797 179 q 426 -32 597 -32 q 154 74 253 -32 q 56 365 56 181 q 154 656 56 550 q 425 763 253 763 m 426 606 q 299 539 347 606 q 250 365 250 472 q 299 192 250 258 q 426 125 347 125 q 553 191 504 125 q 603 363 603 257 q 555 540 603 474 q 426 606 507 606 z "},"Ȯ":{"ha":1086,"x_min":56,"x_max":1031,"o":"m 189 117 q 122 191 189 117 q 56 499 56 265 q 190 881 56 732 q 542 1029 324 1029 q 896 881 761 1029 q 1031 492 1031 733 q 898 117 1031 267 q 543 -32 765 -32 q 189 117 322 -32 m 543 851 q 340 755 417 851 q 264 499 264 658 q 340 242 264 339 q 543 146 417 146 q 745 242 668 146 q 822 493 822 338 q 747 754 822 657 q 543 851 671 851 m 618 1250 l 618 1081 l 465 1081 l 465 1250 l 618 1250 z "},"ȯ":{"ha":853,"x_min":56,"x_max":797,"o":"m 494 1015 l 494 846 l 342 846 l 342 1015 l 494 1015 m 425 763 q 699 656 601 763 q 797 360 797 550 q 697 74 797 179 q 426 -32 597 -32 q 154 74 253 -32 q 56 365 56 181 q 154 656 56 550 q 425 763 253 763 m 426 606 q 299 539 347 606 q 250 365 250 472 q 299 192 250 258 q 426 125 347 125 q 553 191 504 125 q 603 363 603 257 q 555 540 603 474 q 426 606 507 606 z "},"Ȱ":{"ha":1086,"x_min":56,"x_max":1031,"o":"m 749 1374 l 749 1264 l 333 1264 l 333 1374 l 749 1374 m 189 117 q 122 191 189 117 q 56 499 56 265 q 190 881 56 732 q 542 1029 324 1029 q 896 881 761 1029 q 1031 492 1031 733 q 898 117 1031 267 q 543 -32 765 -32 q 189 117 322 -32 m 543 851 q 340 755 417 851 q 264 499 264 658 q 340 242 264 339 q 543 146 417 146 q 745 242 668 146 q 822 493 822 338 q 747 754 822 657 q 543 851 671 851 m 619 1236 l 619 1067 l 467 1067 l 467 1236 l 619 1236 z "},"ȱ":{"ha":853,"x_min":56,"x_max":797,"o":"m 626 1193 l 626 1083 l 211 1083 l 211 1193 l 626 1193 m 494 1015 l 494 846 l 342 846 l 342 1015 l 494 1015 m 425 763 q 699 656 601 763 q 797 360 797 550 q 697 74 797 179 q 426 -32 597 -32 q 154 74 253 -32 q 56 365 56 181 q 154 656 56 550 q 425 763 253 763 m 426 606 q 299 539 347 606 q 250 365 250 472 q 299 192 250 258 q 426 125 347 125 q 553 191 504 125 q 603 363 603 257 q 555 540 603 474 q 426 606 507 606 z "},"Ȳ":{"ha":893,"x_min":14,"x_max":879,"o":"m 664 1221 l 664 1111 l 249 1111 l 249 1221 l 664 1221 m 558 375 l 558 0 l 350 0 l 350 375 l 14 1013 l 246 1013 l 453 565 l 646 1013 l 879 1013 l 558 375 z "},"ȳ":{"ha":763,"x_min":14,"x_max":749,"o":"m 585 971 l 585 861 l 169 861 l 169 971 l 585 971 m 293 -36 l 293 -31 l 14 750 l 228 750 l 393 204 l 549 750 l 749 750 l 440 -137 q 435 -156 440 -139 q 426 -180 429 -174 q 415 -203 422 -186 q 399 -228 407 -221 q 376 -251 390 -236 q 345 -273 363 -265 q 306 -289 328 -281 q 254 -301 283 -297 q 190 -304 225 -304 q 121 -299 160 -304 l 121 -153 q 172 -161 151 -161 q 258 -125 224 -161 q 293 -36 293 -89 z "},"ȷ":{"ha":389,"x_min":6,"x_max":292,"o":"m 292 750 l 292 -131 q 251 -262 292 -222 q 121 -303 211 -303 q 6 -296 71 -303 l 6 -140 q 40 -146 24 -146 q 85 -133 72 -146 q 97 -87 97 -119 l 97 750 l 292 750 z "},"ɐ":{"ha":786,"x_min":42,"x_max":731,"o":"m 503 763 q 668 701 606 763 q 731 538 731 639 q 510 301 731 339 l 432 288 q 404 284 429 288 q 372 278 379 281 q 345 272 365 276 q 317 263 325 268 q 297 248 308 257 q 281 227 285 239 q 276 200 276 215 q 389 125 276 125 q 490 147 461 125 q 526 228 519 169 l 714 228 q 393 -32 696 -32 q 86 199 86 -32 l 86 615 q 42 707 86 667 l 42 731 l 253 731 q 275 656 275 703 q 503 763 378 763 m 276 429 l 276 376 q 358 400 303 389 l 425 413 q 511 449 486 425 q 536 515 536 472 q 508 581 536 557 q 431 606 479 606 q 317 560 357 606 q 276 429 276 514 z "},"ɑ":{"ha":954,"x_min":56,"x_max":954,"o":"m 371 -32 q 144 82 232 -32 q 56 364 56 196 q 146 648 56 533 q 371 763 236 763 q 578 653 507 763 l 578 750 l 769 750 l 769 197 q 800 161 769 161 q 888 196 821 161 l 954 19 q 785 -24 847 -24 q 593 101 636 -24 q 371 -32 521 -32 m 414 600 q 296 534 342 600 q 250 364 250 468 q 296 196 250 261 q 414 131 342 131 q 532 194 486 131 q 578 361 578 258 q 533 534 578 468 q 414 600 488 600 z "},"ɒ":{"ha":954,"x_min":0,"x_max":899,"o":"m 583 782 q 810 668 722 782 q 899 386 899 554 q 808 102 899 217 q 583 -12 718 -12 q 376 97 447 -12 l 376 0 l 185 0 l 185 553 q 154 589 185 589 q 67 554 133 589 l 0 731 q 169 774 107 774 q 361 649 318 774 q 583 782 433 782 m 540 150 q 658 216 613 150 q 704 386 704 282 q 658 554 704 489 q 540 619 613 619 q 422 556 468 619 q 376 389 376 492 q 422 216 376 282 q 540 150 467 150 z "},"ɓ":{"ha":863,"x_min":90,"x_max":807,"o":"m 567 534 q 544 567 567 534 q 449 600 521 600 q 331 535 376 600 q 285 368 285 471 q 330 196 285 261 q 449 131 375 131 q 567 196 521 131 q 613 364 613 261 q 567 534 613 468 m 492 763 q 717 651 626 763 q 807 365 807 539 q 717 82 807 196 q 492 -32 626 -32 q 285 76 354 -32 l 285 0 l 90 0 l 90 840 q 131 972 90 932 q 261 1013 171 1013 q 376 1006 311 1013 l 376 850 q 342 856 358 856 q 297 842 310 856 q 285 797 285 829 l 285 653 q 492 763 354 763 z "},"ɔ":{"ha":775,"x_min":42,"x_max":719,"o":"m 367 125 q 525 371 525 125 q 483 543 525 481 q 367 606 440 606 q 278 574 310 606 q 228 471 246 543 l 42 471 q 144 684 56 606 q 368 763 232 763 q 627 660 535 763 q 719 371 719 557 q 626 74 719 179 q 365 -32 533 -32 q 138 46 225 -32 q 42 261 51 124 l 228 261 q 276 156 244 188 q 367 125 307 125 z "},"ɕ":{"ha":796,"x_min":14,"x_max":754,"o":"m 429 606 q 271 360 271 606 q 286 247 271 296 q 470 346 397 321 q 615 371 543 371 q 710 334 668 371 q 751 260 751 297 q 727 130 751 186 q 669 44 703 74 q 590 -3 635 15 q 515 -27 546 -22 q 456 -32 483 -32 q 338 -24 388 -32 q 239 14 289 -15 q 181 -26 221 1 q 119 -71 140 -54 l 14 54 l 125 135 q 98 201 108 165 q 82 276 88 236 q 76 360 76 315 q 169 657 76 551 q 431 763 263 763 q 658 685 571 763 q 754 469 744 607 l 568 469 q 520 574 551 543 q 429 606 489 606 m 574 175 q 538 207 564 207 q 516 201 531 207 q 483 185 501 194 q 447 166 465 176 q 415 146 429 156 q 392 131 400 136 q 413 126 406 126 q 428 125 421 125 q 472 128 450 125 q 524 144 494 132 q 574 175 553 156 z "},"ɖ":{"ha":883,"x_min":56,"x_max":864,"o":"m 414 600 q 296 534 342 600 q 250 364 250 468 q 296 196 250 261 q 414 131 342 131 q 532 194 486 131 q 578 361 578 258 q 533 534 578 468 q 414 600 488 600 m 371 -32 q 144 82 232 -32 q 56 364 56 196 q 146 648 56 533 q 371 763 236 763 q 578 653 507 763 l 578 1013 l 772 1013 l 772 -87 q 785 -133 772 -119 q 829 -146 797 -146 q 864 -140 846 -146 l 864 -296 q 749 -303 799 -303 q 618 -262 658 -303 q 578 -131 578 -222 l 578 76 q 371 -32 506 -32 z "},"ɗ":{"ha":883,"x_min":56,"x_max":864,"o":"m 414 600 q 296 534 342 600 q 250 364 250 468 q 296 196 250 261 q 414 131 342 131 q 532 194 486 131 q 578 361 578 258 q 533 534 578 468 q 414 600 488 600 m 371 -32 q 144 82 232 -32 q 56 364 56 196 q 146 648 56 533 q 371 763 236 763 q 578 653 507 763 l 578 840 q 618 972 578 932 q 749 1013 658 1013 q 864 1006 799 1013 l 864 850 q 829 856 846 856 q 785 842 797 856 q 772 797 772 829 l 772 0 l 578 0 l 578 76 q 371 -32 506 -32 z "},"ɘ":{"ha":810,"x_min":56,"x_max":754,"o":"m 407 763 q 661 653 568 763 q 754 356 754 544 q 663 72 754 175 q 411 -32 571 -32 q 190 34 285 -32 q 64 211 96 100 l 256 211 q 404 117 293 117 q 483 133 451 117 q 530 178 514 149 q 552 240 546 208 q 560 314 558 271 l 57 314 q 56 347 56 331 q 78 517 56 443 q 135 637 100 592 q 219 711 171 682 q 313 751 267 740 q 407 763 358 763 m 258 443 l 557 443 q 410 614 539 614 q 303 569 342 614 q 258 443 265 525 z "},"ə":{"ha":810,"x_min":56,"x_max":754,"o":"m 407 -32 q 313 -21 358 -32 q 219 19 267 -10 q 135 94 171 49 q 78 213 100 139 q 56 383 56 288 q 57 417 56 400 l 560 417 q 552 491 558 460 q 530 552 546 522 q 483 598 514 582 q 404 614 451 614 q 256 519 293 614 l 64 519 q 190 697 96 631 q 411 763 285 763 q 663 659 571 763 q 754 375 754 556 q 661 77 754 186 q 407 -32 568 -32 m 258 288 q 303 161 265 206 q 410 117 342 117 q 557 288 538 117 l 258 288 z "},"ɚ":{"ha":1158,"x_min":31,"x_max":1111,"o":"m 233 288 q 278 161 240 206 q 385 117 317 117 q 532 288 514 117 l 233 288 m 382 -32 q 288 -21 333 -32 q 194 19 242 -10 q 110 94 146 49 q 53 213 75 139 q 31 383 31 288 q 32 417 31 400 l 535 417 q 527 491 533 460 q 505 552 521 522 q 458 598 489 582 q 379 614 426 614 q 231 519 268 614 l 39 519 q 165 697 71 631 q 386 763 260 763 q 597 696 513 763 l 697 792 l 844 792 q 899 649 872 726 q 942 528 926 572 q 971 468 958 485 q 981 472 976 469 q 989 476 985 474 q 998 483 993 478 q 1008 494 1003 489 q 1019 508 1013 499 q 1031 525 1025 517 q 1047 547 1038 533 q 1065 574 1057 561 q 1086 606 1072 586 q 1111 643 1100 626 l 1111 372 q 1033 314 1065 331 q 956 297 1000 297 q 922 301 938 297 q 882 322 907 304 q 835 370 857 340 q 785 458 813 400 q 732 594 757 515 l 694 567 q 729 375 729 483 q 636 77 729 186 q 382 -32 543 -32 z "},"ɛ":{"ha":793,"x_min":111,"x_max":793,"o":"m 793 242 q 768 144 783 183 q 717 66 753 106 q 612 6 681 26 q 443 -14 543 -14 q 111 210 111 -14 q 133 308 111 271 q 201 372 156 344 q 111 536 111 428 q 197 706 111 656 q 443 760 283 757 l 456 760 q 618 739 551 760 q 719 678 685 718 q 769 598 754 638 q 793 503 785 558 l 617 503 q 572 576 610 549 q 439 603 535 603 q 294 528 294 603 q 330 461 294 479 q 438 443 365 443 l 536 443 l 536 301 l 438 301 q 329 283 364 301 q 294 217 294 265 q 439 143 294 143 q 572 170 535 143 q 617 242 610 197 l 793 242 z "},"ɜ":{"ha":779,"x_min":53,"x_max":735,"o":"m 243 218 q 283 146 253 171 q 396 121 313 121 q 506 140 472 121 q 540 199 540 158 q 516 266 540 243 q 426 289 492 289 l 299 289 l 299 442 l 429 442 q 519 540 519 442 q 489 591 519 572 q 407 610 458 610 q 267 508 268 610 l 79 508 q 168 695 82 628 q 406 763 254 763 q 631 695 549 763 q 714 513 714 628 q 653 376 714 424 q 735 222 735 325 q 719 138 735 179 q 670 57 704 97 q 568 -8 636 17 q 407 -32 500 -32 q 53 218 61 -32 l 243 218 z "},"ɝ":{"ha":1139,"x_min":42,"x_max":1111,"o":"m 232 218 q 272 146 242 171 q 385 121 301 121 q 529 199 529 121 q 526 227 529 215 q 514 255 524 239 q 479 280 504 271 q 415 289 454 289 l 288 289 l 288 442 l 418 442 q 491 465 474 442 q 508 522 508 488 q 503 557 508 540 q 470 592 497 574 q 396 610 443 610 q 256 508 257 610 l 68 508 q 157 695 71 628 q 394 763 243 763 q 600 710 522 763 l 697 792 l 843 792 q 897 649 869 729 q 941 524 924 569 q 972 464 958 479 q 1004 485 989 467 q 1065 572 1019 503 q 1079 594 1074 586 q 1094 615 1085 601 q 1111 642 1103 629 l 1111 368 q 1031 308 1064 325 q 956 290 999 290 q 872 318 910 290 q 806 400 833 346 q 760 500 778 454 q 724 614 743 546 l 693 586 q 703 513 703 556 q 642 376 703 424 q 724 222 724 325 q 708 138 724 179 q 659 57 693 97 q 557 -8 625 17 q 396 -32 489 -32 q 42 218 50 -32 l 232 218 z "},"ɞ":{"ha":792,"x_min":47,"x_max":738,"o":"m 410 143 q 554 217 554 143 q 519 283 554 265 q 411 301 485 301 l 313 301 l 313 443 l 411 443 q 519 461 483 443 q 554 528 554 479 q 410 603 554 603 q 324 596 357 603 q 269 576 290 589 q 239 532 249 563 q 226 468 229 501 q 224 374 224 435 q 228 262 224 299 q 251 194 232 225 q 306 153 269 163 q 410 143 343 143 m 400 760 q 738 536 738 760 q 647 372 738 428 q 715 308 693 344 q 738 210 738 271 q 406 -14 738 -14 q 222 11 294 -14 q 113 90 150 36 q 61 210 75 144 q 47 375 47 275 q 60 534 47 469 q 110 653 74 599 q 219 733 147 707 q 400 760 290 760 z "},"ɟ":{"ha":439,"x_min":42,"x_max":419,"o":"m 329 288 l 329 -131 q 289 -262 329 -222 q 158 -303 249 -303 q 43 -296 108 -303 l 43 -140 q 78 -146 61 -146 q 122 -133 110 -146 q 135 -87 135 -119 l 135 288 l 42 288 l 42 475 l 135 475 l 135 750 l 329 750 l 329 475 l 419 475 l 419 288 l 329 288 z "},"ɠ":{"ha":868,"x_min":56,"x_max":849,"o":"m 408 600 q 294 533 338 600 q 250 360 250 467 q 293 194 250 258 q 406 131 336 131 q 528 188 481 131 q 576 360 576 244 q 528 540 576 481 q 408 600 481 600 m 760 -25 q 666 -230 760 -157 q 403 -303 572 -303 q 160 -244 250 -303 q 71 -90 71 -186 l 272 -90 q 410 -178 296 -178 q 529 -135 483 -178 q 575 -25 575 -93 l 575 76 q 474 -8 521 15 q 363 -32 428 -32 q 140 75 224 -32 q 56 357 56 182 q 144 647 56 531 q 367 763 233 763 q 575 635 492 763 l 575 783 q 615 915 575 875 q 746 956 656 956 q 849 949 783 956 l 849 793 q 817 799 831 799 q 760 750 760 799 l 760 -25 z "},"ɡ":{"ha":857,"x_min":56,"x_max":838,"o":"m 408 600 q 294 533 338 600 q 250 360 250 467 q 293 194 250 258 q 406 131 336 131 q 530 194 482 131 q 578 360 578 258 q 530 532 578 464 q 408 600 482 600 m 760 569 l 760 -25 q 666 -230 760 -157 q 403 -303 572 -303 q 162 -245 253 -303 q 71 -90 71 -187 l 272 -90 q 410 -178 296 -178 q 529 -135 483 -178 q 575 -25 575 -93 l 575 76 q 474 -8 521 15 q 363 -32 428 -32 q 140 75 224 -32 q 56 357 56 182 q 144 647 56 531 q 367 763 233 763 q 575 635 492 763 q 713 761 617 761 q 838 733 761 761 l 806 575 q 775 582 786 582 q 764 579 768 582 q 760 569 760 576 z "},"ɢ":{"ha":804,"x_min":56,"x_max":735,"o":"m 408 607 q 250 361 250 607 q 292 189 250 251 q 408 126 335 126 q 535 219 500 126 l 413 219 l 413 365 l 735 365 l 735 0 l 610 0 l 603 40 q 407 -31 515 -31 q 148 72 240 -31 q 56 361 56 175 q 149 658 56 553 q 410 764 242 764 q 637 686 550 764 q 733 471 724 608 l 547 471 q 499 576 531 544 q 408 607 468 607 z "},"ɣ":{"ha":772,"x_min":14,"x_max":758,"o":"m 344 -156 q 353 -168 344 -156 q 386 -181 363 -181 q 428 -155 410 -181 q 447 -97 447 -129 q 438 -66 447 -87 q 412 -12 429 -44 q 389 31 394 19 q 369 -3 383 21 q 347 -42 356 -28 q 332 -74 339 -57 q 325 -99 325 -90 q 344 -156 325 -131 m 157 -90 q 169 -31 157 -68 q 194 38 181 7 q 232 119 208 68 q 267 194 256 171 l 14 750 l 229 750 l 386 410 l 544 750 l 758 750 l 503 194 q 601 -17 585 43 q 611 -83 611 -53 q 547 -242 611 -181 q 385 -304 483 -304 q 224 -242 290 -304 q 157 -90 157 -181 z "},"ɤ":{"ha":908,"x_min":14,"x_max":893,"o":"m 529 271 q 450 447 529 318 q 381 267 381 338 q 406 160 381 196 q 458 124 431 124 q 511 166 493 124 q 529 271 529 208 m 274 764 q 449 679 347 764 q 626 764 556 764 q 806 664 718 764 q 893 393 893 564 l 717 393 q 699 487 717 443 q 662 551 681 531 q 633 572 643 572 q 578 542 608 572 q 685 376 640 464 q 731 238 731 289 q 706 107 731 163 q 640 22 681 51 q 554 -20 599 -7 q 464 -33 510 -33 q 367 -19 414 -33 q 276 24 321 -6 q 205 110 232 53 q 178 243 178 167 q 217 383 178 294 q 322 558 257 472 q 278 586 289 586 q 256 575 272 586 q 218 523 240 564 q 190 422 196 482 l 14 422 q 42 567 18 503 q 97 667 67 631 q 165 726 128 703 q 228 756 201 749 q 274 764 254 764 z "},"ɥ":{"ha":851,"x_min":90,"x_max":761,"o":"m 761 -303 l 567 -303 l 567 89 q 342 -32 486 -32 q 156 36 222 -32 q 90 228 90 104 l 90 750 l 285 750 l 285 268 q 410 133 285 133 q 524 174 481 133 q 567 281 567 214 l 567 750 l 761 750 l 761 -303 z "}}}
